<?xml version="1.0" encoding="UTF-8"?>
<svg id="Layer_2" data-name="Layer 2" xmlns="http://www.w3.org/2000/svg" viewBox="0 0 215.193 220.006">
  <g id="Bg">
    <g>
      <path d="M113.987,73.316c0-.014-.003-.026-.008-.037-.022-.039-.058-.081-.108-.129s-.09-.079-.12-.096c-.011-.006-.023-.008-.037-.008h-.622c-.014,0-.027.003-.038.008-.039.019-.088.06-.149.12-.061.061-.091.108-.091.141v1.353c0,.028.031.073.093.135.062.062.111.102.147.118.011.006.023.008.038.008h.622c.014,0,.026-.003.037-.008.039-.019.088-.058.148-.116.059-.058.089-.104.089-.137v-1.353Z" fill="#282828"/>
      <polygon points="131.96 74.358 132.823 74.358 132.392 73.092 131.96 74.358" fill="#282828"/>
      <path d="M126.187,73.698c.003-.005.004-.021.004-.046v-.357c0-.028-.001-.043-.004-.046-.017-.028-.049-.064-.096-.11-.047-.046-.083-.07-.108-.073h-.851v.805h.826c.033,0,.076-.021.127-.062.051-.042.085-.079.102-.112Z" fill="#282828"/>
      <path d="M113.673,64.502c-.052.142-.132.356-.238.642-.107.286-.186.5-.238.642h.961l-.484-1.283Z" fill="#282828"/>
      <polygon points="152.517 157.155 154.133 163.014 146.088 158.445 144.898 160.541 152.941 165.109 147.084 166.723 147.724 169.047 157.53 166.345 154.84 156.515 152.517 157.155" fill="#282828"/>
      <path d="M108.243,177.419h-2.115v1.704h2.115c.025,0,.077-.035.156-.106.079-.07.135-.135.168-.193v-1.107c-.083-.133-.191-.232-.323-.298Z" fill="#282828"/>
      <path d="M99.801,179.341c-.187.535-.326.935-.417,1.201h1.679l-.846-2.401c-.091.265-.23.666-.417,1.201Z" fill="#282828"/>
      <path d="M112.348,79.923c.003-.006.004-.021.004-.046v-.357c0-.028-.002-.043-.004-.046-.016-.028-.048-.064-.095-.11-.047-.046-.083-.07-.108-.073h-.851v.805h.826c.033,0,.075-.021.127-.062.051-.041.085-.079.102-.112Z" fill="#282828"/>
      <polygon points="122.568 53.382 124.324 55.139 128.075 51.375 128.075 56.693 130.56 56.693 130.56 51.391 134.309 55.14 136.066 53.382 132.317 49.634 137.618 49.635 137.618 47.151 132.305 47.16 136.066 43.401 134.309 41.644 130.559 45.409 130.558 40.09 128.073 40.09 128.074 45.392 124.325 41.644 122.568 43.401 126.316 47.149 121.015 47.148 121.015 49.632 126.328 49.623 122.568 53.382" fill="#282828"/>
      <path d="M92.93,64.117h-1.167v2.434h1.167c.114-.062.202-.146.263-.253v-1.909c-.048-.111-.135-.202-.263-.273Z" fill="#282828"/>
      <path d="M107.144,73.166c-.053-.047-.097-.079-.133-.095-.006-.003-.015-.004-.029-.004h-.784v1.843h.801l.012-.004c.042-.019.092-.059.153-.118.061-.059.091-.106.091-.139v-1.316c0-.017-.002-.028-.004-.033-.019-.042-.055-.086-.108-.133Z" fill="#282828"/>
      <polygon points="108.642 80.582 109.505 80.582 109.073 79.317 108.642 80.582" fill="#282828"/>
      <path d="M118.381,130.858c1.727,0,3.127-1.4,3.127-3.127s-1.4-3.127-3.127-3.127-3.127,1.4-3.127,3.127,1.4,3.127,3.127,3.127ZM118.381,125.973c.971,0,1.758.787,1.758,1.758s-.787,1.758-1.758,1.758-1.758-.787-1.758-1.758.787-1.758,1.758-1.758Z" fill="#282828"/>
      <path d="M95.985,79.923c.003-.006.004-.021.004-.046v-.357c0-.028-.002-.043-.004-.046-.017-.028-.049-.064-.096-.11-.047-.046-.083-.07-.108-.073h-.851v.805h.826c.033,0,.075-.021.127-.062.051-.041.085-.079.102-.112Z" fill="#282828"/>
      <path d="M89.886,93.427h40.376c7.202,0,13.061-5.859,13.061-13.061v-32.915c0-7.202-5.859-13.061-13.061-13.061h-40.376c-7.202,0-13.061,5.859-13.061,13.061v32.915c0,7.202,5.859,13.061,13.061,13.061ZM83.494,79.292h-1.187v.76h1.12v.324h-1.12v.759h1.187v.324h-1.527v-2.49h1.527v.324ZM83.706,74.656c0,.088-.019.16-.058.216-.025.039-.071.091-.137.156-.066.065-.12.11-.162.135-.083.047-.162.071-.236.071h-1.145v-2.49h1.145c.086,0,.164.022.236.066.039.022.091.067.158.135.066.068.113.122.141.164.039.056.058.127.058.216v1.332ZM83.686,66.378l-.733-1.443v2.394h-.868v-3.99h.946l.954,1.809c.085-.16.235-.447.448-.861.214-.414.377-.73.491-.947h.939v3.99h-.868v-2.401c-.09.177-.219.431-.388.761-.168.33-.286.56-.352.688h-.569ZM86.005,81.458h-1.502v-2.49h.34v2.166h1.162v.324ZM86.246,73.067h-1.187v.76h1.12v.324h-1.12v.759h1.187v.324h-1.527v-2.49h1.527v.324ZM86.746,66.338v-2.002c0-.168.04-.308.121-.419.052-.066.134-.153.245-.259.111-.106.203-.18.274-.219.152-.084.308-.126.47-.126h1.082c.161,0,.318.042.47.126.133.071.306.231.52.479.081.111.121.251.121.419v2.002c0,.164-.04.302-.121.412-.199.239-.372.401-.52.486-.152.084-.308.126-.47.126h-1.082c-.161,0-.318-.042-.47-.126-.071-.04-.163-.114-.274-.223-.111-.109-.193-.196-.245-.263-.081-.111-.121-.248-.121-.412ZM90.25,72.743v2.49h-.34v-2.49h.34ZM88.416,79.292h-1.187v.76h1.12v.324h-1.12v.759h1.187v.324h-1.527v-2.49h1.527v.324ZM88.295,75.233h-.448l-.826-2.49h.361l.689,2.125.689-2.125h.361l-.826,2.49ZM89.833,81.031c.059.058.109.097.147.116.011.006.023.008.037.008h.519c.016,0,.03-.003.042-.008.05-.028.101-.071.153-.129.053-.058.09-.117.112-.178l.332.087c-.036.089-.075.161-.116.216-.18.224-.35.336-.511.336h-.548c-.077,0-.158-.023-.241-.071-.042-.025-.096-.07-.162-.135-.066-.065-.112-.117-.137-.156-.042-.061-.062-.134-.062-.22v-1.369c0-.083.021-.155.062-.216.028-.039.075-.092.141-.16.067-.068.119-.113.158-.135.083-.047.162-.07.237-.07h.552c.171,0,.342.112.511.336.03.036.069.107.116.212l-.332.095c-.044-.124-.136-.23-.274-.315-.011-.003-.022-.004-.033-.004h-.519c-.014,0-.026.003-.037.008-.031.017-.07.048-.118.096-.048.047-.085.09-.11.129-.006.008-.008.026-.008.054v1.336c0,.033.03.079.089.137ZM91.59,75.183c-.041-.025-.096-.07-.162-.135-.066-.065-.112-.117-.137-.156-.042-.061-.062-.134-.062-.22v-1.369c0-.083.021-.155.062-.216.028-.039.075-.092.141-.16.067-.068.119-.113.158-.135.083-.047.162-.071.237-.071h.552c.171,0,.341.112.51.336.03.036.069.107.116.212l-.332.096c-.044-.124-.135-.23-.274-.315-.011-.003-.022-.004-.033-.004h-.519c-.014,0-.026.003-.037.008-.031.017-.07.048-.119.096-.048.047-.085.09-.11.129-.006.008-.008.026-.008.054v1.336c0,.033.03.079.089.137.059.058.109.097.148.116.011.006.023.008.037.008h.519c.017,0,.031-.003.042-.008.05-.028.101-.071.153-.129.053-.058.09-.118.112-.178l.332.087c-.036.089-.075.161-.116.216-.18.224-.35.336-.51.336h-.548c-.078,0-.158-.023-.241-.071ZM93.707,79.292h-.71v2.166h-.34v-2.166h-.71v-.324h1.76v.324ZM93.702,66.989c-.111.102-.205.173-.281.213-.171.084-.323.126-.455.126h-2.071v-3.99h2.071c.18,0,.337.04.47.12.147.089.315.25.505.485.081.107.121.244.121.412v1.968c0,.16-.038.295-.114.406-.052.071-.134.157-.246.259ZM93.914,72.743h1.527v.324h-1.187v.76h1.121v.324h-1.121v.759h1.187v.324h-1.527v-2.49ZM96.089,81.458l-.585-1.037h-.573v1.037h-.34v-2.49h1.17c.105,0,.198.029.278.087.03.022.07.058.12.108.05.05.083.087.099.112.047.072.071.151.071.237v.374c0,.083-.023.16-.071.232-.016.025-.05.062-.099.112-.05.05-.09.086-.12.108-.061.044-.123.069-.187.075l.606,1.046h-.369ZM97.728,81.458h-.34v-2.49h.34v2.49ZM97.505,67.235c-.161.084-.318.126-.47.126h-1.018c-.161,0-.318-.042-.47-.126-.071-.04-.163-.114-.274-.223s-.193-.196-.245-.263c-.081-.111-.121-.248-.121-.412v-2.999h.868v2.992c.114.133.202.217.263.253h.975c.09-.053.175-.135.256-.246v-2.999h.868v2.999c0,.164-.04.302-.121.412-.052.071-.133.16-.242.266-.109.107-.199.18-.27.22ZM98.168,75.183c-.042-.025-.095-.07-.162-.135-.066-.065-.112-.117-.137-.156-.041-.061-.062-.133-.062-.216v-1.934h.34v1.926c0,.028.032.073.098.135.065.062.115.102.151.118.011.006.022.008.033.008h.515c.014,0,.026-.003.037-.008.036-.017.084-.056.145-.118.061-.062.091-.107.091-.135v-1.926h.34v1.934c0,.088-.019.161-.058.216-.025.039-.071.091-.137.156-.066.065-.12.11-.162.135-.083.047-.162.071-.237.071h-.556c-.077,0-.158-.023-.241-.071ZM99.141,81.031c.059.058.109.097.147.116.011.006.023.008.037.008h.519c.017,0,.031-.003.042-.008.05-.028.101-.071.154-.129.052-.058.09-.117.112-.178l.332.087c-.036.089-.075.161-.116.216-.18.224-.35.336-.51.336h-.548c-.077,0-.158-.023-.241-.071-.041-.025-.095-.07-.162-.135-.066-.065-.112-.117-.137-.156-.042-.061-.062-.134-.062-.22v-1.369c0-.083.021-.155.062-.216.028-.039.075-.092.141-.16.066-.068.119-.113.158-.135.083-.047.162-.07.237-.07h.552c.171,0,.342.112.51.336.03.036.069.107.116.212l-.332.095c-.044-.124-.136-.23-.274-.315-.011-.003-.022-.004-.033-.004h-.519c-.014,0-.026.003-.037.008-.031.017-.07.048-.118.096-.048.047-.085.09-.11.129-.006.008-.008.026-.008.054v1.336c0,.033.03.079.089.137ZM102.376,74.673c0,.091-.019.165-.058.22-.025.039-.071.091-.139.156-.068.065-.122.11-.164.135-.083.047-.162.071-.237.071h-.693c-.174,0-.346-.112-.515-.336-.022-.031-.06-.102-.112-.216l.328-.087.037.075c.025.044.061.089.11.135.048.046.091.078.127.098.011.006.023.008.037.008h.664c.011,0,.022-.003.033-.008.041-.019.092-.058.151-.116.059-.058.089-.104.089-.137v-.253c0-.033-.01-.064-.029-.091-.019-.028-.042-.044-.066-.05l-1.129-.29c-.091-.025-.163-.078-.216-.158-.053-.08-.079-.169-.079-.266v-.253c0-.091.019-.165.058-.22.025-.039.071-.091.139-.158.068-.066.122-.112.164-.137.083-.047.162-.071.237-.071h.61c.171,0,.341.112.51.336.03.036.069.107.116.212l-.332.096-.042-.083c-.022-.041-.058-.086-.108-.133s-.093-.08-.129-.1c-.008-.003-.018-.004-.029-.004h-.577c-.008,0-.021.003-.037.008-.036.017-.085.056-.147.118-.062.062-.093.107-.093.135v.237c0,.03.009.059.027.085.018.026.04.042.064.048l1.125.299c.091.025.165.077.22.156.055.079.083.165.083.259v.282ZM103.178,81.031c.059.058.109.097.147.116.011.006.023.008.037.008h.519c.017,0,.03-.003.042-.008.05-.028.101-.071.153-.129.053-.058.09-.117.112-.178l.332.087c-.036.089-.075.161-.116.216-.18.224-.35.336-.51.336h-.548c-.077,0-.158-.023-.241-.071-.041-.025-.095-.07-.162-.135-.066-.065-.112-.117-.137-.156-.042-.061-.062-.134-.062-.22v-1.369c0-.083.021-.155.062-.216.027-.039.075-.092.141-.16.067-.068.119-.113.158-.135.083-.047.162-.07.237-.07h.552c.171,0,.342.112.51.336.031.036.069.107.116.212l-.332.095c-.044-.124-.136-.23-.274-.315-.011-.003-.022-.004-.033-.004h-.519c-.014,0-.026.003-.037.008-.031.017-.07.048-.118.096-.048.047-.085.09-.11.129-.006.008-.008.026-.008.054v1.336c0,.033.03.079.089.137ZM104.849,73.067h-1.187v.76h1.12v.324h-1.12v.759h1.187v.324h-1.527v-2.49h1.527v.324ZM105.126,64.117h-1.936v.818h1.872v.778h-1.872v.838h1.936v.778h-2.804v-3.99h2.804v.778ZM107.181,81.458h-.34v-1.083h-1.071v1.083h-.34v-2.49h.34v1.083h1.071v-1.083h.34v2.49ZM107.596,74.656c0,.088-.019.16-.058.216-.025.039-.071.091-.137.156-.066.065-.12.11-.162.135-.083.047-.162.071-.237.071h-1.145v-2.49h1.145c.086,0,.164.022.237.066.039.022.091.067.158.135.067.068.114.122.141.164.039.056.058.127.058.216v1.332ZM109.8,81.458l-.187-.556h-1.079l-.191.556h-.361l.867-2.49h.448l.867,2.49h-.365ZM107.703,66.058v-.751h1.843v.751h-1.843ZM110.899,75.233h-.34v-2.166h-.709v-.324h1.76v.324h-.71v2.166ZM112.452,81.458l-.585-1.037h-.573v1.037h-.34v-2.49h1.17c.105,0,.198.029.278.087.03.022.07.058.12.108.05.05.083.087.1.112.047.072.071.151.071.237v.374c0,.083-.023.16-.071.232-.016.025-.05.062-.1.112-.05.05-.09.086-.12.108-.061.044-.123.069-.187.075l.606,1.046h-.369ZM111.716,67.328l1.48-3.99h.961l1.473,3.99h-.925l-.285-.765h-1.487c-.028.084-.077.212-.146.382-.069.171-.117.298-.146.383h-.925ZM113.07,75.254c-.075,0-.154-.023-.237-.071-.042-.025-.096-.07-.164-.135-.068-.065-.114-.117-.139-.156-.039-.055-.058-.129-.058-.22v-1.365c0-.091.019-.165.058-.22.025-.039.071-.091.139-.158.068-.066.122-.112.164-.137.083-.047.162-.071.237-.071h.656c.077,0,.158.024.241.071.039.022.091.067.158.135.066.068.114.121.141.16.041.061.062.134.062.22v1.365c0,.086-.021.159-.062.22-.025.039-.071.091-.137.156-.067.065-.12.11-.162.135-.083.047-.163.071-.241.071h-.656ZM115.311,81.458c-.003-.019-.008-.046-.017-.081-.008-.035-.012-.056-.012-.064-.008.006-.025.019-.05.042-.025.022-.045.038-.058.048-.014.01-.033.022-.056.037-.024.015-.047.026-.07.031-.023.005-.049.008-.077.008h-.639c-.077,0-.158-.023-.241-.071-.041-.025-.095-.07-.162-.135-.066-.065-.112-.117-.137-.156-.042-.061-.062-.134-.062-.22v-1.365c0-.086.021-.159.062-.22.028-.039.075-.092.141-.16.066-.068.119-.113.158-.135.083-.047.163-.07.241-.07h.639c.169,0,.34.113.515.34.033.042.072.111.116.208l-.332.095-.042-.083c-.022-.041-.057-.085-.104-.131-.047-.046-.089-.078-.125-.097-.011-.006-.025-.008-.042-.008h-.61c-.014,0-.026.003-.037.008-.033.017-.075.049-.126.097-.051.049-.087.092-.106.131-.006.011-.008.024-.008.037v1.341c0,.033.032.081.096.143.064.062.115.103.153.122.006.003.017.004.033.004h.597c.014,0,.026-.003.037-.008.039-.019.089-.06.152-.122.062-.062.093-.11.093-.143v-.515h-.569v-.324h.909v.834c0,.097.023.291.071.581h-.332ZM118.154,79.292h-1.187v.76h1.121v.324h-1.121v.759h1.187v.324h-1.527v-2.49h1.527v.324ZM118.523,74.673c0,.091-.019.165-.058.22-.025.039-.071.091-.139.156-.068.065-.122.11-.164.135-.083.047-.162.071-.237.071h-.693c-.174,0-.346-.112-.515-.336-.022-.031-.06-.102-.112-.216l.328-.087.037.075c.025.044.061.089.11.135.048.046.09.078.127.098.011.006.023.008.037.008h.664c.011,0,.022-.003.033-.008.041-.019.092-.058.151-.116.06-.058.089-.104.089-.137v-.253c0-.033-.01-.064-.029-.091-.019-.028-.042-.044-.066-.05l-1.129-.29c-.091-.025-.163-.078-.216-.158s-.079-.169-.079-.266v-.253c0-.091.019-.165.058-.22.025-.039.071-.091.139-.158.068-.066.122-.112.164-.137.083-.047.162-.071.237-.071h.61c.171,0,.342.112.51.336.031.036.069.107.116.212l-.332.096-.042-.083c-.022-.041-.058-.086-.108-.133-.05-.047-.093-.08-.129-.1-.008-.003-.018-.004-.029-.004h-.577c-.008,0-.021.003-.037.008-.036.017-.085.056-.147.118-.062.062-.093.107-.093.135v.237c0,.03.009.059.027.085.018.026.039.042.064.048l1.125.299c.091.025.165.077.22.156.055.079.083.165.083.259v.282ZM123.81,74.673c0,.086-.021.159-.062.22-.025.039-.071.091-.137.156-.066.065-.12.11-.162.135-.083.047-.163.071-.241.071h-.656c-.075,0-.154-.023-.237-.071-.042-.025-.096-.07-.164-.135-.068-.065-.114-.117-.139-.156-.039-.055-.058-.129-.058-.22v-1.365c0-.091.019-.165.058-.22.025-.039.071-.091.139-.158.068-.066.122-.112.164-.137.083-.047.162-.071.237-.071h.656c.077,0,.158.024.241.071.039.022.091.067.158.135.066.068.113.121.141.16.041.061.062.134.062.22v1.365ZM126.291,75.233l-.585-1.038h-.573v1.038h-.34v-2.49h1.17c.105,0,.198.029.278.087.03.022.07.058.12.108.05.05.083.087.1.112.047.072.071.151.071.237v.374c0,.083-.023.161-.071.232-.017.025-.05.062-.1.112-.05.05-.09.086-.12.108-.061.044-.123.069-.187.075l.606,1.046h-.369ZM129.121,73.067h-1.187v.76h1.12v.324h-1.12v.759h1.187v.324h-1.527v-2.49h1.527v.324ZM133.118,75.233l-.187-.556h-1.079l-.191.556h-.361l.867-2.49h.448l.867,2.49h-.365ZM136.048,75.233h-.394l-1.046-1.901v1.901h-.336v-2.49h.402l1.037,1.921v-1.921h.336v2.49ZM120.324,46.456h4.322s-3.057-3.055-3.057-3.055l2.735-2.735,3.057,3.057v-4.324s3.868,0,3.868,0v4.336s3.058-3.069,3.058-3.069l2.736,2.736-3.066,3.065,4.331-.008v3.869h-4.322s3.057,3.055,3.057,3.055l-2.735,2.735-3.057-3.057v4.324s-3.868,0-3.868,0v-4.336s-3.058,3.069-3.058,3.069l-2.736-2.736,3.066-3.065-4.331.008v-3.869ZM119.332,72.743h1.76v.324h-.71v2.166h-.34v-2.166h-.71v-.324ZM118.946,63.837c.085.106.128.251.128.432v.419c0,.173-.052.326-.157.459-.104.133-.235.235-.391.306-.161.071-.401.181-.719.329-.318.149-.558.258-.719.329-.043.022-.064.042-.064.06v.379h1.993v.778h-2.861v-1.177c0-.164.052-.311.157-.442.104-.131.237-.234.399-.309.157-.071.397-.182.722-.333.325-.151.568-.261.729-.332.029-.013.043-.036.043-.067v-.412c-.024-.04-.055-.078-.092-.113-.038-.035-.064-.053-.078-.053h-.804c-.152.08-.252.171-.299.273l-.833-.193c.057-.129.116-.23.178-.306.294-.368.607-.552.939-.552h.819c.185,0,.358.053.519.16.119.071.249.193.391.366ZM101.099,46.802h4.812s-3.403-3.401-3.403-3.401l2.246-2.246,3.403,3.403v-4.813s3.176,0,3.176,0v4.827s3.404-3.417,3.404-3.417l2.246,2.246-3.413,3.412,4.822-.009v3.177h-4.812s3.403,3.401,3.403,3.401l-2.246,2.246-3.403-3.403v4.813s-3.176,0-3.176,0v-4.827s-3.405,3.417-3.405,3.417l-2.246-2.246,3.413-3.412-4.822.009v-3.177ZM101.746,66.544v.785h-2.761v-3.99h.868v3.205h1.893ZM81.797,46.802h4.812s-3.403-3.401-3.403-3.401l2.246-2.246,3.403,3.403v-4.813s3.177,0,3.177,0v4.827s3.404-3.417,3.404-3.417l2.246,2.246-3.413,3.412,4.822-.009v3.177h-4.812s3.403,3.401,3.403,3.401l-2.246,2.246-3.403-3.403v4.813s-3.176,0-3.176,0v-4.827s-3.405,3.417-3.405,3.417l-2.246-2.246,3.413-3.412-4.822.009v-3.177Z" fill="#282828"/>
      <path d="M123.353,73.15c-.05-.047-.09-.079-.12-.096-.011-.006-.023-.008-.037-.008h-.622c-.014,0-.026.003-.038.008-.039.019-.088.06-.149.12-.061.061-.091.108-.091.141v1.353c0,.028.031.073.093.135.062.062.111.102.147.118.011.006.023.008.038.008h.622c.014,0,.026-.003.037-.008.039-.019.088-.058.147-.116.059-.058.089-.104.089-.137v-1.353c0-.014-.003-.026-.008-.037-.022-.039-.058-.081-.108-.129Z" fill="#282828"/>
      <path d="M87.87,66.584h1.046c.09-.062.178-.144.263-.246v-2.002c-.066-.106-.152-.188-.256-.246h-1.046c-.104.071-.192.155-.263.253v1.995c.095.12.18.202.256.246Z" fill="#282828"/>
      <path d="M136.867,146.197v-3.59c0-.307.249-.556.556-.556h2.917v-15.512c0-6.026-4.903-10.929-10.929-10.929h-37.411c-6.026,0-10.929,4.902-10.929,10.929v34.335c0,6.026,4.903,10.929,10.929,10.929h37.411c6.026,0,10.929-4.902,10.929-10.929v-14.121h-2.917c-.307,0-.556-.249-.556-.556ZM114.228,118.395c4.733,0,8.57,3.837,8.57,8.57s-3.837,8.57-8.57,8.57-8.571-3.837-8.571-8.57,3.837-8.57,8.571-8.57ZM126.96,147.032l-7.384-.023c-.514-.002-1.001-.231-1.329-.627l-3.069-3.697-3.158,6.828,9.574,19.69h-3.457c-1.154,0-2.207-.659-2.712-1.697l-8.182-16.828-.052-.024-.633,9.771c-.083,1.281-1.188,2.252-2.468,2.171l-15.917-1.008c.159-2.504,2.317-4.406,4.821-4.247l9.184.581.444-8.405c.033-.63.186-1.248.451-1.821l3.304-7.144h-4.378l-3.199,4.846c-.583.883-1.772,1.127-2.655.544-.883-.583-1.127-1.772-.544-2.655l3.993-5.948c.322-.48.862-.768,1.44-.768h12.588c.763,0,1.487.34,1.973.929l4.89,5.914h6.476c.999,0,1.809.81,1.809,1.809s-.81,1.809-1.809,1.809Z" fill="#282828"/>
      <path d="M170.955,70.474l-.011.053h1.658l.562-2.641h-.049c-.799.899-1.519,1.762-2.16,2.588Z" fill="#282828"/>
      <path d="M162.526,67.925h-.731l-.755,3.512h1.089c.51,0,.931-.194,1.261-.583s.495-.888.495-1.499c0-.445-.12-.794-.36-1.048s-.573-.381-.999-.381Z" fill="#282828"/>
      <path d="M83.253,73.166c-.053-.047-.097-.079-.133-.095-.006-.003-.015-.004-.029-.004h-.784v1.843h.801l.012-.004c.042-.019.093-.059.153-.118.061-.059.091-.106.091-.139v-1.316c0-.017-.001-.028-.004-.033-.019-.042-.055-.086-.108-.133Z" fill="#282828"/>
      <path d="M208.662,135.441l-26.468-25.782,24.406-24.063c4.47-4.47,6.532-9.283,6.532-16.158v-24.063c0-5.5-2.751-11.345-6.532-15.469l-23.033-23.033c-4.811-4.813-9.624-6.875-16.499-6.875H20.454v2.34h-12.401V.061C2.335.477,0,3.305,0,9.626v200.754c0,6.875,2.751,9.626,9.626,9.626h158.815c6.875,0,11.688-2.062,16.501-6.875l23.72-23.719c3.781-3.781,6.532-9.969,6.532-15.469v-22.344c0-6.875-2.062-11.688-6.532-16.158ZM20.454,219.816h-12.401v-1.621h12.401v1.621ZM20.454,213.88h-12.401v-6.034h12.401v6.034ZM20.454,204.528h-12.401v-1.745h12.401v1.745ZM20.454,200.3h-12.401v-2.712h12.401v2.712ZM20.454,187.668h-12.401v-9.491h12.401v9.491ZM20.454,174.201h-12.401v-2.882h12.401v2.882ZM20.454,166.611h-12.401v-2.983h12.401v2.983ZM20.454,160.479h-12.401v-1.621h12.401v1.621ZM20.454,154.543h-12.401v-6.034h12.401v6.034ZM20.454,145.192h-12.401v-1.746h12.401v1.746ZM20.454,140.964h-12.401v-2.712h12.401v2.712ZM20.454,135.528h-12.401v-9.491h12.401v9.491ZM20.454,120.691h-12.401v-2.983h12.401v2.983ZM20.454,114.882h-12.401v-1.621h12.401v1.621ZM20.454,108.946h-12.401v-6.034h12.401v6.034ZM20.454,99.595h-12.401v-1.746h12.401v1.746ZM20.454,95.367h-12.401v-2.712h12.401v2.712ZM20.454,82.735h-12.401v-9.491h12.401v9.491ZM20.454,69.267h-12.401v-2.882h12.401v2.882ZM20.454,61.677h-12.401v-2.983h12.401v2.983ZM20.454,55.545h-12.401v-1.621h12.401v1.621ZM20.454,49.609h-12.401v-6.034h12.401v6.034ZM20.454,40.258h-12.401v-1.746h12.401v1.746ZM20.454,36.03h-12.401v-2.712h12.401v2.712ZM20.454,23.398h-12.401v-9.491h12.401v9.491ZM188.406,67.735l-2.255,4.481h-.664l2.286-4.446v-.056h-2.616v-.565h3.248v.586ZM192.645,67.735l-2.255,4.481h-.664l2.286-4.446v-.056h-2.616v-.565h3.248v.586ZM203.323,55.787l5.102-5.121c.634-.636,1.664-.637,2.299-.002.634.635.634,1.663,0,2.297l-3.961,3.96h0l3.961,3.961c.634.634.634,1.663,0,2.297l-.002.002c-.634.634-1.663.634-2.297,0l-5.1-5.099c-.634-.634-.635-1.66-.002-2.295ZM189.955,50.304c.84-.835,2.19-.833,3.02-.002l5.1,5.1c.831.831.832,2.183.003,3.015l-5.102,5.121c-.403.404-.939.627-1.51.628h-.002c-.57,0-1.106-.222-1.509-.625-.403-.403-.625-.939-.625-1.509s.222-1.106.625-1.509l3.601-3.599-3.601-3.601c-.403-.403-.625-.939-.625-1.509s.222-1.106.625-1.509ZM170.926,50.665l.002-.002c.634-.634,1.663-.634,2.297,0l5.1,5.1c.634.634.635,1.66.002,2.295l-5.102,5.121c-.634.636-1.664.637-2.299.002-.634-.634-.634-1.663,0-2.297l3.961-3.96-3.961-3.961c-.635-.634-.635-1.663,0-2.297ZM161.232,50.665l.002-.002c.634-.634,1.663-.634,2.297,0l5.1,5.1c.634.634.635,1.66.002,2.295l-5.102,5.121c-.634.636-1.664.637-2.299.002-.634-.634-.634-1.663,0-2.297l3.961-3.96-3.962-3.961c-.634-.634-.634-1.663,0-2.297ZM146.044,125.186c-.224-.047-.417-.179-.542-.371-.125-.192-.168-.421-.121-.646l.417-1.974c.047-.224.179-.417.371-.542.192-.125.421-.168.646-.121l7.705,1.625c.462.098.76.553.663,1.015l-1.614,7.723c-.047.225-.179.417-.371.543-.141.092-.303.14-.467.14-.059,0-.119-.006-.179-.019l-1.974-.416c-.224-.047-.417-.179-.542-.371-.125-.192-.168-.421-.12-.646l.49-2.322-3.996,2.604c-.396.258-.929.146-1.187-.25l-1.102-1.691c-.258-.396-.146-.929.25-1.187l3.995-2.603-2.322-.49ZM75.96,47.451c0-7.679,6.247-13.926,13.926-13.926h40.376c7.679,0,13.926,6.247,13.926,13.926v32.915c0,7.678-6.247,13.926-13.926,13.926h-40.376c-7.679,0-13.926-6.247-13.926-13.926v-32.915ZM95.018,183.428h-1.63l-1.083-4.367c-.116.481-.295,1.209-.535,2.183-.241.975-.419,1.702-.535,2.184h-1.63l-1.704-7.465h1.568l.983,4.604c.124-.539.309-1.325.554-2.358.245-1.033.421-1.781.529-2.246h1.543l1.082,4.604c.1-.448.257-1.192.473-2.233s.382-1.831.498-2.37h1.617l-1.729,7.465ZM102.022,183.428l-.498-1.431h-2.6c-.05.158-.135.396-.255.715-.12.319-.205.558-.255.715h-1.618l2.588-7.465h1.679l2.576,7.465h-1.618ZM108.803,183.428l-1.481-2.849h-1.194v2.849h-1.518v-7.465h3.633c.365,0,.676.096.933.286.249.191.473.419.672.684.158.216.237.49.237.821v1.057c0,.307-.079.577-.237.809-.05.083-.151.199-.305.348-.154.149-.276.257-.367.324-.066.05-.166.108-.299.174l1.617,2.961h-1.692ZM117.101,183.428h-1.53l-2.414-4.392v4.392h-1.518v-7.465h1.555l2.389,4.454v-4.454h1.518v7.465ZM120.224,183.428h-1.53v-7.465h1.53v7.465ZM127.278,183.428h-1.53l-2.414-4.392v4.392h-1.518v-7.465h1.555l2.389,4.454v-4.454h1.518v7.465ZM133.337,183.441l-.05-.224c-.017.008-.071.042-.162.099-.199.116-.361.174-.485.174h-1.879c-.282,0-.556-.079-.821-.236-.124-.075-.284-.207-.479-.398-.195-.191-.338-.352-.429-.485-.141-.224-.211-.481-.211-.771v-3.782c0-.315.07-.576.211-.784.091-.125.234-.286.429-.485.195-.199.355-.336.479-.41.257-.149.531-.224.821-.224h1.891c.58,0,1.124.348,1.63,1.045.166.232.307.498.423.796l-1.406.398c-.157-.332-.377-.593-.659-.784h-1.817c-.199.133-.361.295-.485.485v3.77c0,.033.052.098.155.193.104.096.205.168.305.218h1.817c.091-.042.193-.116.305-.224.112-.108.168-.182.168-.224v-1.12h-1.704v-1.418h3.222v2.799c0,.124.029.361.087.709l.149.883h-1.505ZM157.946,167.362l-10.059,2.772c-.085.023-.17.035-.254.035-.421,0-.809-.28-.926-.705l-.711-2.578c-.141-.51.16-1.04.67-1.18l3.444-.949-5.867-3.332c-.46-.261-.622-.848-.361-1.308l1.321-2.325c.126-.223.332-.383.579-.451.247-.068.506-.036.729.091l5.868,3.332-.95-3.445c-.068-.247-.036-.506.09-.729.127-.223.333-.383.58-.451l2.577-.71c.248-.068.506-.036.73.091.223.127.383.333.451.581l2.76,10.083c.139.509-.161,1.038-.671,1.178ZM158.688,144.776l-9.907,9.943c-.217.218-.569.218-.787,0l-2.538-2.538c-.217-.217-.217-.569,0-.786l4.644-4.643h-8.671v14.121c0,6.628-5.392,12.02-12.02,12.02h-37.411c-6.628,0-12.02-5.392-12.02-12.02v-34.335c0-6.628,5.392-12.02,12.02-12.02h37.411c6.628,0,12.02,5.392,12.02,12.02v15.512h8.669l-4.643-4.642c-.217-.217-.217-.569,0-.786l2.538-2.538c.217-.217.569-.217.786,0l9.906,9.905c.217.217.217.568,0,.785ZM164.479,70.78c-.227.449-.542.801-.945,1.055-.403.254-.853.381-1.352.381h-2.22l1.075-5.068h1.658c.667,0,1.188.187,1.563.562.375.375.562.893.562,1.556,0,.559-.114,1.064-.34,1.514ZM167,68.878c.117.113.301.212.551.297l.499.165c.426.14.74.322.941.544s.302.499.302.829c0,.487-.188.88-.564,1.18-.376.3-.866.45-1.47.45-.557,0-1.013-.139-1.366-.418-.354-.279-.553-.658-.597-1.138h.885c.044.241.172.435.383.581.211.146.466.219.766.219.306,0,.556-.069.748-.207.192-.138.288-.318.288-.541,0-.173-.063-.317-.188-.432-.125-.115-.335-.22-.63-.316l-.509-.165c-.365-.119-.647-.297-.846-.532-.199-.235-.298-.51-.298-.823,0-.445.182-.814.546-1.108.364-.294.822-.441,1.375-.441.527,0,.964.143,1.312.428s.534.654.56,1.106h-.867c-.045-.239-.161-.428-.349-.569-.189-.141-.421-.211-.697-.211-.274,0-.501.066-.68.197-.179.131-.269.297-.269.499,0,.157.058.292.176.406ZM174.14,70.506l-.158.766h-.685l-.204.945h-.868l.204-.945h-2.483l.144-.843c.562-.74,1.478-1.833,2.75-3.28h1.331l-.716,3.357h.685ZM179.422,70.116h-2.304l.169-.818h2.307l-.172.818ZM180.621,63.18c-.634-.634-.634-1.663,0-2.297l3.961-3.96-3.961-3.961c-.634-.634-.635-1.663,0-2.297l.002-.002c.634-.634,1.663-.634,2.297,0l5.1,5.1c.634.634.635,1.66.002,2.295l-5.102,5.121c-.634.636-1.664.637-2.299.002ZM181.81,68.118l1.349-.969h.629v5.068h-.632v-4.365h-.056l-1.289.934v-.667Z" fill="#282828"/>
      <path d="M194.998,56.923l-4.322,4.32c-.21.21-.327.49-.327.788s.116.578.326.788c.211.21.49.326.788.326h.001c.298,0,.578-.117.788-.328l5.102-5.121c.433-.435.432-1.141-.001-1.575l-5.1-5.1c-.217-.217-.503-.326-.788-.326s-.571.109-.788.326l-.002.002c-.21.21-.326.49-.326.788s.116.578.326.788l4.322,4.321Z" fill="#282828"/>
      <polygon points="152.018 126.451 151.031 131.124 152.548 131.444 154.067 124.178 146.818 122.649 146.498 124.167 151.169 125.152 145.162 129.066 146.009 130.366 152.018 126.451" fill="#282828"/>
      <path d="M112.141,128.735c.056-.174.004-.371-.152-.485l-3.118-2.279c-.195-.142-.468-.1-.61.095-.142.195-.1.468.095.61l2.192,1.603-2.708.199c-.241.018-.421.227-.403.467.017.23.208.405.435.405.011,0,.021,0,.032-.001l3.852-.282c.193-.014.341-.153.386-.33Z" fill="#282828"/>
      <path d="M110.166,131.691c0,1.756,1.819,3.18,4.063,3.18s4.062-1.424,4.062-3.18h-1.863c0,.472-.383.855-.855.855s-.855-.383-.855-.855h-.884c0,.472-.383.855-.855.855s-.855-.383-.855-.855h-1.959Z" fill="#282828"/>
    </g>
  </g>
</svg>