<?xml version="1.0" encoding="UTF-8"?>
<svg id="Layer_2" data-name="Layer 2" xmlns="http://www.w3.org/2000/svg" xmlns:xlink="http://www.w3.org/1999/xlink" viewBox="0 0 441.132 441.63">
  <defs>
    <linearGradient id="linear-gradient" x1="252.491" y1="609.366" x2="354.432" y2="632.005" gradientTransform="translate(-514.158 183.765) rotate(-47.517)" gradientUnits="userSpaceOnUse">
      <stop offset="0" stop-color="#f49823"/>
      <stop offset="1" stop-color="#ef752d"/>
    </linearGradient>
    <linearGradient id="linear-gradient-2" x1="22.155" y1="824.903" x2="124.096" y2="847.542" gradientTransform="translate(-286.557 662.838) rotate(47.517) scale(1 -1)" gradientUnits="userSpaceOnUse">
      <stop offset="0" stop-color="#28addc"/>
      <stop offset="1" stop-color="#1a87c3"/>
    </linearGradient>
    <linearGradient id="linear-gradient-3" x1="135.106" y1="103.382" x2="220.483" y2="103.382" gradientUnits="userSpaceOnUse">
      <stop offset="0" stop-color="#017148"/>
      <stop offset="1" stop-color="#008e55"/>
    </linearGradient>
  </defs>
  <g id="Layer_1-2" data-name="Layer 1">
    <g>
      <g>
        <g>
          <path d="M161.367,273.869c3.515-4.944-.34-9.997-4.318-13.542-27.163-24.791-58.49-34.67-95.499-36.525l-.209-.01c-5.597-.22-13.264-.361-16.425.05-4.854.434-.501,3.504,1.154,5.358,18.785,18.827,65.905,66.159,77.654,77.892,1.158,1.108,2.398,2.036,3.975,1.837" fill="#f7a83b"/>
          <path d="M165.067,277.569c4.944-3.515,9.997.34,13.542,4.318,24.791,27.163,34.67,58.49,36.525,95.499l.01.209c.22,5.597.361,13.264-.05,16.425-.434,4.854-3.504.501-5.358-1.154-18.827-18.785-66.159-65.905-77.892-77.654-1.108-1.158-2.036-2.398-1.837-3.975" fill="#ec5a2b"/>
          <rect x="88.112" y="349.933" width="122.22" height="57.498" rx="6.33" ry="6.33" transform="translate(311.475 5.397) rotate(45)" fill="url(#linear-gradient)"/>
          <rect x="-.192" y="261.629" width="122.22" height="57.498" rx="6.33" ry="6.33" transform="translate(-101.334 538.781) rotate(-135)" fill="#f7a83b"/>
        </g>
        <path d="M275.401,164.631c-4.944,3.515-9.997-.34-13.542-4.318-24.791-27.163-34.67-58.49-36.525-95.499l-.01-.209c-.22-5.597-.361-13.264.05-16.425.434-4.854,3.504-.501,5.358,1.154,18.827,18.785,66.159,65.905,77.892,77.654,1.108,1.158,2.036,2.398,1.837,3.975" fill="#a9d7e5"/>
        <path d="M279.1,168.33c-3.515,4.944.34,9.997,4.318,13.542,27.163,24.791,58.49,34.67,95.499,36.525l.209.01c5.597.22,13.264.361,16.425-.05,4.854-.434.501-3.504-1.154-5.358-18.785-18.827-65.905-66.159-77.654-77.892-1.158-1.108-2.398-2.036-3.975-1.837" fill="#376a9f"/>
        <rect x="319.103" y="123.737" width="122.22" height="57.498" rx="6.33" ry="6.33" transform="translate(219.186 -224.19) rotate(45)" fill="url(#linear-gradient-2)"/>
        <rect x="230.799" y="35.432" width="122.22" height="57.498" rx="6.33" ry="6.33" transform="translate(452.937 315.975) rotate(-135)" fill="#5ac2e5"/>
        <path d="M279.171,275.899c-3.515-4.944.34-9.997,4.318-13.542,27.163-24.791,58.49-34.67,95.499-36.525l.209-.01c5.597-.22,13.264-.361,16.425.05,4.854.434.501,3.504-1.154,5.358-18.785,18.827-65.905,66.159-77.654,77.892-1.158,1.108-2.398,2.036-3.975,1.837" fill="#7f3f98"/>
        <path d="M275.472,279.598c-4.944-3.515-9.997.34-13.542,4.318-24.791,27.163-34.67,58.49-36.525,95.499l-.01.209c-.22,5.597-.361,13.264.05,16.425.434,4.854,3.504.501,5.358-1.154,18.827-18.785,66.159-65.905,77.892-77.654,1.108-1.158,2.036-2.398,1.837-3.975" fill="#df9ac4"/>
        <rect x="230.206" y="351.962" width="122.22" height="57.498" rx="6.33" ry="6.33" transform="translate(766.511 443.924) rotate(135)" fill="#b180b8"/>
        <rect x="318.51" y="263.658" width="122.22" height="57.498" rx="6.33" ry="6.33" transform="translate(-95.575 354.076) rotate(-45)" fill="#876497"/>
        <path d="M166.494,165.731c3.515,4.944-.34,9.997-4.318,13.542-27.163,24.791-58.49,34.67-95.499,36.525l-.209.01c-5.597.22-13.264.361-16.425-.05-4.854-.434-.501-3.504,1.154-5.358,18.785-18.827,65.905-66.159,77.654-77.892,1.158-1.108,2.398-2.036,3.975-1.837" fill="#6eab4e"/>
        <path d="M170.193,162.031c4.944,3.515,9.997-.34,13.542-4.318,24.791-27.163,34.67-58.49,36.525-95.499l.01-.209c.22-5.597.361-13.264-.05-16.425-.434-4.854-3.504-.501-5.358,1.154-18.827,18.785-66.159,65.905-77.892,77.654-1.108,1.158-2.036,2.398-1.837,3.975" fill="url(#linear-gradient-3)"/>
        <rect x="93.239" y="32.169" width="122.22" height="57.498" rx="6.33" ry="6.33" transform="translate(2.132 126.984) rotate(-45)" fill="#96bf56"/>
        <rect x="4.934" y="120.473" width="122.22" height="57.498" rx="6.33" ry="6.33" transform="translate(218.262 208.038) rotate(135)" fill="#d8e29a"/>
      </g>
      <polygon points="236.337 187.334 220.483 187.334 204.629 187.334 204.753 209.88 182.208 209.755 182.208 225.609 182.208 241.464 193.418 252.674 204.629 263.885 220.483 263.885 236.337 263.885 247.547 252.674 258.758 241.464 258.758 225.609 258.758 209.755 236.213 209.88 236.337 187.334" fill="#cccccb"/>
    </g>
  </g>
</svg>