<?xml version="1.0" encoding="UTF-8"?>
<svg id="Layer_2" data-name="Layer 2" xmlns="http://www.w3.org/2000/svg" viewBox="0 0 328.959 336.316">
  <g id="Bg">
    <g>
      <polygon points="26.541 281.282 21.577 286.097 21.577 314.916 37.283 314.916 37.283 286.986 31.356 281.134 26.541 281.282" fill="#282828"/>
      <path d="M164.982,75.13c-6.634,0-12.031,5.397-12.031,12.031s5.397,12.031,12.031,12.031,12.031-5.397,12.031-12.031-5.397-12.031-12.031-12.031ZM164.982,88.492c-.735,0-1.331-.596-1.331-1.331s.596-1.331,1.331-1.331,1.331.596,1.331,1.331-.596,1.331-1.331,1.331Z" fill="#282828"/>
      <path d="M164.982,67.518c-10.831,0-19.643,8.812-19.643,19.643s8.812,19.643,19.643,19.643,19.643-8.812,19.643-19.643-8.812-19.643-19.643-19.643ZM164.982,101.747c-8.043,0-14.586-6.543-14.586-14.586s6.543-14.586,14.586-14.586,14.586,6.543,14.586,14.586-6.543,14.586-14.586,14.586Z" fill="#282828"/>
      <polygon points="48.914 280.541 42.617 286.986 42.617 314.916 58.323 314.916 58.323 285.727 53.211 280.689 48.914 280.541" fill="#282828"/>
      <polygon points="29.578 128.185 21.503 136.26 21.503 163.004 29.43 170.931 50.322 170.931 58.397 162.93 58.397 136.112 50.47 128.185 29.578 128.185" fill="#282828"/>
      <path d="M165.076,190.418c-26.83,0-48.657,21.827-48.657,48.656s21.827,48.657,48.657,48.657,48.656-21.827,48.656-48.657-21.827-48.656-48.656-48.656ZM185.74,239.891h-.511v.406h-3.583v-.406h-15.752v15.753h.406v3.583h-.406v.511h-1.633v-.511h-.406v-3.583h.406v-15.753h-15.753v.406h-3.583v-.406h-.511v-1.633h.511v-.406h3.583v.406h15.753v-15.753h-.406v-3.583h.406v-.511h1.633v.511h.406v3.583h-.406v15.753h15.752v-.406h3.583v.406h.511v1.633Z" fill="#282828"/>
      <polygon points="41.728 78.413 35.209 71.82 27.134 71.82 21.726 77.228 21.726 104.787 41.728 104.787 41.728 78.413" fill="#282828"/>
      <path d="M165.192,39.7c-26.123,0-47.375,21.252-47.375,47.376v1.604h-1.492c.85,26.222,22.442,47.292,48.867,47.292s48.018-21.071,48.868-47.292h-1.492v-1.604c0-26.123-21.253-47.376-47.376-47.376ZM164.982,131.541c-24.471,0-44.38-19.909-44.38-44.38s19.909-44.38,44.38-44.38,44.38,19.909,44.38,44.38-19.909,44.38-44.38,44.38Z" fill="#282828"/>
      <path d="M164.982,43.834c-23.891,0-43.328,19.437-43.328,43.328s19.437,43.327,43.328,43.327,43.328-19.437,43.328-43.327-19.437-43.328-43.328-43.328ZM164.982,107.443c-11.184,0-20.282-9.099-20.282-20.282s9.099-20.282,20.282-20.282,20.282,9.099,20.282,20.282-9.099,20.282-20.282,20.282Z" fill="#282828"/>
      <path d="M318.974,207.045l-40.461-39.411,37.309-36.784c6.833-6.832,9.985-14.19,9.985-24.7v-36.784c0-8.407-4.205-17.342-9.985-23.647l-35.209-35.209c-7.354-7.357-14.712-10.51-25.222-10.51H14.715C4.205,0,0,4.205,0,14.715v306.887c0,10.51,4.205,14.715,14.715,14.715h242.776c10.51,0,17.867-3.152,25.224-10.51l36.259-36.259c5.78-5.78,9.985-15.24,9.985-23.647v-34.156c0-10.51-3.152-17.867-9.985-24.7ZM212.018,38.946h2.996v2.996h-2.996v-2.996ZM115.138,38.946h2.996v2.996h-2.996v-2.996ZM16.243,19.182c0-1.482.445-2.519,1.408-3.482l3.556-3.63c.963-.963,1.926-.963,2.963.074l1.334,1.334c1.111,1.037,1.111,1.926,0,2.963l-3.853,3.704v28.152h15.261v-28.003c0-1.482.593-2.074,2.074-2.074h1.778c1.482,0,2.075.593,2.075,2l-.074,28.078h15.484v-28.448l-3.704-3.63c-1.037-1.037-1.112-1.852-.148-2.889l1.482-1.556c.963-.963,1.852-.963,2.889.148l3.482,3.556c.963.963,1.408,2,1.408,3.482v33.19c0,1.482-.593,2.075-2.074,2.075H18.317c-1.481,0-2.074-.593-2.074-2.075V19.182ZM16.243,76.487c0-1.482.445-2.519,1.408-3.482l6.075-6.001c.963-.963,2-1.407,3.482-1.407h7.631c1.482,0,2.519.444,3.482,1.407l5.927,6.075,5.704-5.779c.963-.963,2-1.407,3.482-1.407h8.298c1.481,0,2.074.593,2.074,2.074v2.148c0,1.482-.593,2.075-2,2.075l-8.372-.148-6.297,6.371v26.374h14.447c1.482,0,2.148.593,2.148,2.074v1.778c0,1.482-.519,2.149-2,2.149H18.317c-1.481,0-2.074-.593-2.074-2.075v-32.226ZM63.657,318.99c0,1.482-.593,2.075-2.074,2.075H18.317c-1.481,0-2.074-.593-2.074-2.075v-33.93c0-1.482.445-2.519,1.482-3.556l4.964-4.964c.889-.815,2.148-1.407,3.333-1.407h5.186c1.482,0,2.519.445,3.482,1.407l5.186,5.26,5.557-5.704c.963-.963,2-1.408,3.482-1.408h4.815c1.186,0,2.519.593,3.334,1.408l5.112,5.112c1.037,1.037,1.482,2.074,1.482,3.556v34.227ZM21.402,244.979v-1.265c0-1.055.422-1.476,1.476-1.476h3.691c1.054,0,1.792.316,2.583,1.055l20.879,19.983,3.796-.053c1.054,0,1.529.369,1.529,1.424v1.265c0,1.054-.422,1.476-1.476,1.476h-3.691c-1.055,0-1.792-.317-2.583-1.055l-20.932-20.036-3.744.106c-1.054.053-1.529-.369-1.529-1.424ZM63.879,222.087c0,1.482-.444,2.519-1.407,3.482l-8.372,8.446c-.963.963-2,1.407-3.482,1.407h-21.262c-1.482,0-2.519-.444-3.556-1.482l-8.297-8.297c-1.037-1.037-1.482-2.074-1.482-3.556v-27.263c0-1.482.444-2.519,1.407-3.482l4.667-4.741c.963-.963,1.852-1.037,2.815,0l1.63,1.704c.963.963.963,1.852-.148,2.889l-4.89,4.667v25.559l7.779,7.853h21.262l7.853-7.927v-25.633l-4.815-4.593c-1.112-1.037-1.185-1.926-.148-2.889l1.63-1.556c.963-.963,1.852-.963,2.815,0l4.594,4.668c.963.963,1.407,2,1.407,3.482v27.263ZM63.879,163.597c0,1.482-.444,2.519-1.407,3.482l-8.52,8.594c-.963.963-2,1.407-3.482,1.407h-20.966c-1.481,0-2.519-.444-3.482-1.407l-8.594-8.52c-.963-.963-1.407-2-1.407-3.482v-28.152c0-1.482.444-2.519,1.482-3.556l8.445-8.445c1.037-1.037,2.075-1.482,3.556-1.482h21.04c1.482,0,2.519.445,3.482,1.408l8.446,8.594c.963.963,1.407,2,1.407,3.482v28.078ZM107.578,91.951h-2.105v-9.578h2.105v9.578ZM118.134,289.013h-2.996v-2.996h2.996v2.996ZM215.015,289.013h-2.996v-2.996h2.996v2.996ZM165.076,290.294c-28.243,0-51.22-22.977-51.22-51.22s22.977-51.22,51.22-51.22,51.22,22.977,51.22,51.22-22.977,51.22-51.22,51.22ZM118.134,189.136v2.996h-2.996v-2.996h2.996ZM115.138,138.823v-2.996h2.996v2.996h-2.996ZM215.015,189.136v2.996h-2.996v-2.996h2.996ZM212.018,138.823v-2.996h2.996v2.996h-2.996ZM217.693,88.679h-1.548c-.85,27.371-23.379,49.376-50.953,49.376s-50.101-22.005-50.952-49.376h-1.549v-1.604c0-28.95,23.552-52.501,52.501-52.501s52.501,23.552,52.501,52.501v1.604ZM226.129,91.951h-2.105v-9.578h2.105v9.578Z" fill="#282828"/>
    </g>
  </g>
</svg>