<?xml version="1.0" encoding="UTF-8"?>
<svg id="Layer_2" data-name="Layer 2" xmlns="http://www.w3.org/2000/svg" viewBox="0 0 328.959 336.316">
  <g id="Bg">
    <g>
      <path d="M153.37,67.518c-10.831,0-19.643,8.812-19.643,19.643s8.812,19.643,19.643,19.643,19.643-8.812,19.643-19.643-8.812-19.643-19.643-19.643ZM153.37,101.747c-8.043,0-14.586-6.543-14.586-14.586s6.543-14.586,14.586-14.586,14.586,6.543,14.586,14.586-6.543,14.586-14.586,14.586Z" fill="#282828"/>
      <path d="M153.37,75.13c-6.634,0-12.031,5.397-12.031,12.031s5.397,12.031,12.031,12.031,12.031-5.397,12.031-12.031-5.397-12.031-12.031-12.031ZM153.37,88.492c-.735,0-1.331-.596-1.331-1.331s.596-1.331,1.331-1.331,1.331.596,1.331,1.331-.596,1.331-1.331,1.331Z" fill="#282828"/>
      <path d="M153.37,43.834c-23.891,0-43.328,19.437-43.328,43.328s19.437,43.327,43.328,43.327,43.328-19.437,43.328-43.327-19.437-43.328-43.328-43.328ZM153.37,107.444c-11.184,0-20.282-9.099-20.282-20.282s9.099-20.282,20.282-20.282,20.282,9.099,20.282,20.282-9.099,20.282-20.282,20.282Z" fill="#282828"/>
      <path d="M318.974,207.045l-40.461-39.411,37.309-36.784c6.833-6.833,9.985-14.19,9.985-24.7v-36.784c0-8.407-4.205-17.342-9.985-23.647l-35.209-35.209c-7.354-7.357-14.712-10.51-25.221-10.51H14.715C4.205,0,0,4.205,0,14.715v306.887c0,10.51,4.205,14.715,14.715,14.715h242.776c10.51,0,17.867-3.152,25.224-10.51l36.259-36.259c5.78-5.78,9.985-15.24,9.985-23.647v-34.157c0-10.51-3.152-17.867-9.985-24.7ZM200.406,38.946h2.996v2.996h-2.996v-2.996ZM103.525,38.946h2.996v2.996h-2.996v-2.996ZM95.966,91.951h-2.105v-9.578h2.105v9.578ZM106.522,289.013h-2.996v-2.996h2.996v2.996ZM203.402,289.013h-2.996v-2.996h2.996v2.996ZM153.464,290.295c-28.243,0-51.22-22.977-51.22-51.22s22.977-51.22,51.22-51.22,51.22,22.977,51.22,51.22-22.977,51.22-51.22,51.22ZM106.522,189.137v2.996h-2.996v-2.996h2.996ZM103.525,138.823v-2.996h2.996v2.996h-2.996ZM203.402,189.137v2.996h-2.996v-2.996h2.996ZM200.406,138.823v-2.996h2.996v2.996h-2.996ZM206.081,88.679h-1.548c-.85,27.371-23.379,49.376-50.953,49.376s-50.101-22.005-50.952-49.376h-1.549v-1.604c0-28.95,23.552-52.501,52.501-52.501s52.501,23.552,52.501,52.501v1.604ZM214.517,91.951h-2.105v-9.578h2.105v9.578Z" fill="#282828"/>
      <path d="M153.464,190.418c-26.83,0-48.657,21.827-48.657,48.656s21.827,48.657,48.657,48.657,48.656-21.827,48.656-48.657-21.827-48.656-48.656-48.656ZM174.128,239.891h-.511v.406h-3.583v-.406h-15.752v15.753h.406v3.583h-.406v.511h-1.633v-.511h-.406v-3.583h.406v-15.753h-15.753v.406h-3.583v-.406h-.511v-1.633h.511v-.406h3.583v.406h15.753v-15.753h-.406v-3.583h.406v-.511h1.633v.511h.406v3.583h-.406v15.753h15.752v-.406h3.583v.406h.511v1.633Z" fill="#282828"/>
      <path d="M153.58,39.7c-26.123,0-47.375,21.253-47.375,47.376v1.604h-1.492c.85,26.222,22.442,47.292,48.867,47.292s48.018-21.071,48.868-47.292h-1.492v-1.604c0-26.123-21.253-47.376-47.376-47.376ZM153.37,131.541c-24.471,0-44.38-19.909-44.38-44.38s19.909-44.38,44.38-44.38,44.38,19.909,44.38,44.38-19.909,44.38-44.38,44.38Z" fill="#282828"/>
    </g>
  </g>
</svg>