<?xml version="1.0" encoding="UTF-8"?>
<svg id="Layer_2" data-name="Layer 2" xmlns="http://www.w3.org/2000/svg" viewBox="0 0 326.272 333.569">
  <g id="Bg">
    <g>
      <path d="M0,34.946L34.946,0H14.595c-2.454,0-4.549.241-6.337.73L.73,8.258c-.489,1.788-.73,3.883-.73,6.337v20.352Z" fill="#282828"/>
      <polygon points="86.863 0 60.905 0 0 60.905 0 86.863 86.863 0" fill="#282828"/>
      <polygon points="138.779 0 112.821 0 0 112.821 0 138.779 138.779 0" fill="#282828"/>
      <polygon points="190.696 0 164.737 0 0 164.737 0 190.696 190.696 0" fill="#282828"/>
      <polygon points="242.612 0 216.654 0 0 216.654 0 242.612 242.612 0" fill="#282828"/>
      <path d="M281.213,13.316l-2.892-2.892c-3.838-3.84-7.682-6.515-11.977-8.197L0,268.57v25.958L281.213,13.316Z" fill="#282828"/>
      <path d="M294.192,26.295L.039,320.448c.37,8.79,4.165,12.656,12.881,13.077L307.171,39.274l-12.979-12.979Z" fill="#282828"/>
      <path d="M64.792,333.569L323.145,75.216v-6.417c0-5.166-1.604-10.533-4.185-15.356L38.834,333.569h25.958Z" fill="#282828"/>
      <path d="M280.177,170.101l-3.939-3.837,37.004-36.484c6.777-6.777,9.903-14.074,9.903-24.498v-4.108l-232.395,232.395h25.958l163.468-163.468Z" fill="#282828"/>
      <polygon points="168.625 333.569 306.476 195.718 293.327 182.909 142.667 333.569 168.625 333.569" fill="#282828"/>
      <path d="M220.542,333.569l105.69-105.69c-.312-7.74-2.513-13.717-6.828-19.131l-124.821,124.821h25.958Z" fill="#282828"/>
      <path d="M246.5,333.569h8.887c10.424,0,17.721-3.127,25.018-10.424l35.963-35.963c5.733-5.733,9.903-15.115,9.903-23.454v-9.931l-79.772,79.772Z" fill="#282828"/>
    </g>
  </g>
</svg>