<?xml version="1.0" encoding="UTF-8"?>
<svg id="Layer_2" data-name="Layer 2" xmlns="http://www.w3.org/2000/svg" viewBox="0 0 328.959 336.316">
  <g id="Bg">
    <path d="M0,14.715C0,4.205,4.205,0,14.715,0h240.676c10.51,0,17.867,3.152,25.222,10.51l35.209,35.209c5.78,6.305,9.985,15.24,9.985,23.647v36.784c0,10.51-3.152,17.867-9.985,24.7l-37.309,36.784,40.461,39.411c6.832,6.832,9.985,14.19,9.985,24.7v34.157c0,8.407-4.205,17.867-9.985,23.647l-36.259,36.259c-7.357,7.357-14.715,10.51-25.224,10.51H14.715c-10.51,0-14.715-4.205-14.715-14.715V14.715Z" fill="#282828"/>
  </g>
</svg>