<?xml version="1.0" encoding="UTF-8"?>
<svg id="Layer_2" data-name="Layer 2" xmlns="http://www.w3.org/2000/svg" viewBox="0 0 217.798 222.67">
  <g id="Bg">
    <g>
      <path d="M0,9.742C0,2.784,2.784,0,9.742,0h159.348c6.958,0,11.83,2.087,16.699,6.958l23.311,23.311c3.827,4.174,6.611,10.09,6.611,15.656v24.354c0,6.958-2.087,11.83-6.611,16.353l-24.702,24.354,26.789,26.094c4.524,4.524,6.611,9.395,6.611,16.353v22.614c0,5.566-2.784,11.83-6.611,15.656l-24.007,24.007c-4.871,4.871-9.742,6.958-16.701,6.958H9.742c-6.958,0-9.742-2.784-9.742-9.742V9.742Z" fill="#282828"/>
      <g>
        <path d="M105.24,20.541v2.07c20.217,0,36.665,16.447,36.665,36.665s-16.448,36.665-36.665,36.665c-8.993,0-17.649-3.302-24.373-9.297l-1.377,1.545c7.103,6.334,16.248,9.822,25.751,9.822,21.358,0,38.735-17.376,38.735-38.734s-17.376-38.735-38.735-38.735Z" fill="#ff931e"/>
        <path d="M105.24,94.04c19.169,0,34.765-15.596,34.765-34.764s-15.596-34.766-34.765-34.766v2.07c18.029,0,32.696,14.668,32.696,32.696s-14.667,32.695-32.696,32.695-32.696-14.667-32.696-32.695c0-12.975,7.695-24.735,19.604-29.96l-.832-1.895c-12.661,5.556-20.842,18.059-20.842,31.856,0,19.169,15.596,34.764,34.766,34.764Z" fill="#ff931e"/>
        <path d="M133.967,59.276c0,15.84-12.888,28.727-28.727,28.727s-28.727-12.887-28.727-28.727c0-7.074,2.605-13.876,7.335-19.154l-1.541-1.381c-5.071,5.657-7.864,12.949-7.864,20.534,0,16.98,13.816,30.796,30.797,30.796s30.796-13.815,30.796-30.796-13.815-30.796-30.796-30.796v2.069c15.839,0,28.727,12.887,28.727,28.727Z" fill="#ff931e"/>
        <path d="M129.998,59.276c0,13.651-11.106,24.757-24.758,24.757s-24.758-11.106-24.758-24.757c0-2.254.305-4.489.904-6.642l-1.993-.556c-.65,2.334-.98,4.755-.98,7.198,0,14.792,12.035,26.827,26.827,26.827s26.827-12.035,26.827-26.827-12.035-26.827-26.827-26.827v2.069c13.652,0,24.758,11.106,24.758,24.758Z" fill="#ff931e"/>
        <path d="M82.382,59.276c0,12.604,10.255,22.858,22.859,22.858s22.858-10.254,22.858-22.858-10.254-22.858-22.858-22.858h0v2.069h0c11.463,0,20.788,9.325,20.788,20.789s-9.326,20.788-20.788,20.788-20.788-9.326-20.788-20.788c0-10.131,7.238-18.745,17.211-20.482l-.355-2.038c-10.967,1.91-18.926,11.38-18.926,22.52Z" fill="#ff931e"/>
        <path d="M105.24,42.456c9.274,0,16.819,7.546,16.819,16.82s-7.545,16.819-16.819,16.819-16.82-7.545-16.82-16.819c0-2.702.621-5.282,1.845-7.668l-1.841-.944c-1.376,2.681-2.074,5.579-2.074,8.613,0,10.415,8.474,18.889,18.889,18.889s18.889-8.473,18.889-18.889-8.474-18.89-18.889-18.89v2.07Z" fill="#ff931e"/>
        <g>
          <path d="M100.066,59.769h.95v.695h-.95v1.577h-.695v-1.577h-4.257v-.78l4.173-3.757h.78v3.842ZM99.37,57.038l-3.366,2.731h3.366v-2.731Z" fill="#ff931e"/>
          <path d="M102.432,56.955v1.252c0,.09.032.17.098.238.065.068.142.103.233.103h4.113c.283,0,.524.099.725.296.201.199.301.441.301.729v1.442c0,.284-.1.525-.301.726s-.442.301-.725.301h-4.113c-.289,0-.531-.1-.729-.301-.198-.201-.297-.442-.297-.726v-.245h.695v.245c0,.091.032.169.098.233.065.066.142.098.233.098h4.113c.09,0,.168-.032.233-.098.065-.065.098-.142.098-.233v-1.442c0-.09-.033-.167-.098-.233s-.143-.097-.233-.097h-5.139v-3.317h6.164v.696h-5.138c-.091,0-.169.032-.233.098-.066.065-.098.144-.098.234Z" fill="#ff931e"/>
          <path d="M109.733,55.935h.797c.288,0,.533.1.734.302.201.201.301.445.301.734v.712c0,.283-.1.525-.301.726-.201.201-.445.301-.734.301h-.797c-.289,0-.533-.1-.734-.301s-.301-.443-.301-.726v-.712c0-.289.101-.533.301-.734.201-.202.445-.302.734-.302ZM109.546,58.191h1.171c.091,0,.169-.032.233-.097.065-.065.098-.144.098-.234v-1.068c0-.091-.033-.169-.098-.234-.065-.065-.142-.097-.233-.097h-1.171c-.09,0-.167.032-.233.097s-.097.143-.097.234v1.068c0,.09.032.169.097.234s.142.097.233.097ZM109.453,62.041v-.916l6.173-5.199v.908l-6.173,5.207ZM114.363,59.277h.806c.283,0,.524.1.725.301s.301.442.301.725v.721c0,.283-.101.524-.301.725s-.442.301-.725.301h-.806c-.288,0-.531-.101-.729-.301-.198-.201-.297-.442-.297-.725v-.721c0-.283.099-.524.297-.725.198-.201.441-.301.729-.301ZM114.184,61.532h1.162c.091,0,.169-.032.234-.097.065-.065.098-.142.098-.233v-1.077c0-.091-.033-.169-.098-.234s-.142-.098-.234-.098h-1.162c-.09,0-.167.033-.233.098s-.097.143-.097.234v1.077c0,.09.032.168.097.233.065.065.142.097.233.097Z" fill="#ff931e"/>
        </g>
      </g>
      <g>
        <path d="M103.292,119.725v2.155c21.047,0,38.168,17.122,38.168,38.168,0,16.285-10.356,30.794-25.77,36.103l.701,2.037c16.284-5.608,27.223-20.935,27.223-38.139,0-22.234-18.088-40.323-40.322-40.323Z" fill="#ff931e"/>
        <path d="M139.483,160.048c0-19.955-16.236-36.191-36.191-36.191v2.154c18.769,0,34.037,15.269,34.037,34.037s-15.269,34.037-34.037,34.037c-16.662,0-31.127-12.41-33.645-28.866l-2.129.326c1.293,8.453,5.59,16.215,12.099,21.856,6.576,5.699,14.984,8.839,23.675,8.839,19.955,0,36.191-16.235,36.191-36.191Z" fill="#ff931e"/>
        <path d="M103.292,192.107c17.677,0,32.059-14.381,32.059-32.059s-14.382-32.059-32.059-32.059v2.155c16.49,0,29.905,13.415,29.905,29.905s-13.415,29.905-29.905,29.905-29.905-13.416-29.905-29.905c0-13.906,9.445-25.87,22.969-29.093l-.499-2.096c-6.89,1.643-13.141,5.615-17.601,11.185-4.53,5.657-7.024,12.761-7.024,20.004,0,17.677,14.382,32.059,32.059,32.059Z" fill="#ff931e"/>
        <path d="M129.066,160.048c0,14.211-11.562,25.773-25.773,25.773s-25.773-11.562-25.773-25.773c0-10.557,6.336-19.94,16.141-23.906l-.807-1.997c-10.624,4.296-17.488,14.464-17.488,25.903,0,15.399,12.528,27.927,27.927,27.927s27.927-12.528,27.927-27.927-12.529-27.927-27.927-27.927v2.155c14.211,0,25.773,11.561,25.773,25.773Z" fill="#ff931e"/>
        <path d="M124.933,160.048c0,11.933-9.708,21.641-21.641,21.641s-21.642-9.708-21.642-21.641c0-6.578,2.952-12.726,8.097-16.867l-1.351-1.678c-5.655,4.551-8.9,11.311-8.9,18.545,0,13.121,10.675,23.795,23.796,23.795s23.796-10.674,23.796-23.795-10.675-23.796-23.796-23.796v2.154c11.933,0,21.641,9.709,21.641,21.642Z" fill="#ff931e"/>
        <path d="M83.629,160.048c0,10.843,8.821,19.664,19.663,19.664s19.664-8.821,19.664-19.664-8.821-19.663-19.664-19.663v2.154c9.655,0,17.51,7.855,17.51,17.509s-7.855,17.51-17.51,17.51-17.509-7.855-17.509-17.51c0-7.714,4.943-14.434,12.302-16.722l-.64-2.057c-8.265,2.57-13.817,10.117-13.817,18.779Z" fill="#ff931e"/>
        <path d="M97.043,158.29h-4.237v-.724h4.237c.294,0,.547.105.755.313.209.209.313.464.313.764v5.287h-.724v-5.296c0-.094-.034-.176-.101-.243-.068-.068-.149-.102-.243-.102Z" fill="#ff931e"/>
        <path d="M105.527,158.466v1.475c0,.235-.088.473-.264.714.176.229.264.465.264.706v1.501c0,.295-.104.546-.314.755s-.461.314-.755.314h-4.281c-.3,0-.554-.105-.76-.314-.206-.209-.309-.46-.309-.755v-1.501c0-.241.089-.477.265-.706-.176-.241-.265-.479-.265-.714v-1.298c0-.301.103-.555.309-.764.206-.208.459-.313.76-.313h4.281c.235,0,.455.09.658.269.202.18.34.391.41.631ZM104.803,160.047v-1.395c0-.094-.034-.176-.102-.243-.068-.068-.148-.102-.243-.102h-4.281c-.095,0-.176.034-.243.102-.067.067-.101.149-.101.243v1.395c0,.094.034.175.101.242.068.068.148.102.243.102h4.281c.094,0,.175-.034.243-.102.068-.067.102-.148.102-.242ZM104.803,162.863v-1.501c0-.094-.034-.175-.102-.242-.068-.068-.148-.102-.243-.102h-4.281c-.095,0-.176.034-.243.102-.067.067-.101.148-.101.242v1.501c0,.095.034.176.101.243.068.068.148.101.243.101h4.281c.094,0,.175-.033.243-.101s.102-.148.102-.243Z" fill="#ff931e"/>
        <path d="M107.468,157.575h.83c.301,0,.555.104.764.314.209.208.314.464.314.764v.741c0,.294-.105.546-.314.754-.209.209-.463.314-.764.314h-.83c-.3,0-.554-.105-.763-.314-.209-.208-.314-.46-.314-.754v-.741c0-.3.105-.556.314-.764.209-.209.463-.314.763-.314ZM107.275,159.923h1.218c.094,0,.176-.034.243-.102.067-.068.101-.148.101-.243v-1.112c0-.094-.034-.175-.101-.242-.068-.068-.149-.102-.243-.102h-1.218c-.094,0-.175.034-.243.102-.068.067-.102.148-.102.242v1.112c0,.094.034.175.102.243s.149.102.243.102ZM107.178,163.931v-.953l6.426-5.411v.944l-6.426,5.42ZM112.289,161.053h.838c.294,0,.546.105.755.314.209.209.313.461.313.755v.75c0,.294-.104.547-.313.755-.209.209-.461.314-.755.314h-.838c-.301,0-.553-.105-.76-.314-.206-.209-.309-.461-.309-.755v-.75c0-.294.103-.546.309-.755.206-.209.459-.314.76-.314ZM112.103,163.401h1.209c.094,0,.176-.034.243-.102.068-.067.102-.148.102-.243v-1.121c0-.094-.034-.174-.102-.242s-.149-.102-.243-.102h-1.209c-.094,0-.175.034-.243.102-.067.068-.102.148-.102.242v1.121c0,.094.034.176.102.243.068.068.148.102.243.102Z" fill="#ff931e"/>
      </g>
    </g>
  </g>
</svg>