<?xml version="1.0" encoding="UTF-8"?>
<svg id="Layer_2" data-name="Layer 2" xmlns="http://www.w3.org/2000/svg" viewBox="0 0 215.193 220.006">
  <g id="Bg">
    <g>
      <path d="M107.195,156.231h-1.204c-.093,0-.173.034-.24.101-.067.066-.1.146-.1.239v1.099c0,.093.034.173.1.24s.147.1.24.1h1.204c.093,0,.173-.034.24-.1.066-.067.1-.146.1-.24v-1.099c0-.093-.034-.173-.1-.239-.067-.067-.148-.101-.24-.101Z" fill="#282828"/>
      <path d="M110.522,159.759c-.066.067-.1.146-.1.239v1.108c0,.093.034.173.1.24.067.067.146.1.24.1h1.195c.093,0,.173-.034.24-.1.067-.066.101-.146.101-.24v-1.108c0-.093-.034-.172-.101-.239-.067-.067-.148-.101-.24-.101h-1.195c-.093,0-.173.034-.24.101Z" fill="#282828"/>
      <path d="M98.979,158.472h4.23c.093,0,.173-.034.24-.1.067-.066.1-.146.1-.239v-1.378c0-.093-.033-.173-.1-.24-.067-.067-.146-.101-.24-.101h-4.23c-.094,0-.173.034-.24.101-.066.066-.1.147-.1.24v1.378c0,.093.033.173.1.239.067.067.146.1.24.1Z" fill="#282828"/>
      <path d="M98.979,161.255h4.23c.093,0,.173-.033.24-.1.067-.067.1-.146.1-.24v-1.483c0-.093-.033-.173-.1-.239-.067-.067-.146-.101-.24-.101h-4.23c-.094,0-.173.034-.24.101-.066.066-.1.147-.1.239v1.483c0,.094.033.173.1.24.067.067.146.1.24.1Z" fill="#282828"/>
      <polygon points="98.182 59.054 98.182 56.355 94.856 59.054 98.182 59.054" fill="#282828"/>
      <path d="M109.392,55.786h-1.157c-.089,0-.165.032-.23.096s-.096.141-.096.231v1.055c0,.089.032.167.096.231.064.064.141.096.23.096h1.157c.089,0,.166-.032.23-.096.064-.064.096-.142.096-.231v-1.055c0-.09-.032-.167-.096-.231-.064-.064-.141-.096-.23-.096Z" fill="#282828"/>
      <path d="M112.589,59.175c-.064.064-.096.141-.096.231v1.064c0,.089.032.166.096.23.064.064.141.096.23.096h1.148c.09,0,.167-.031.231-.096.064-.064.097-.141.097-.23v-1.064c0-.09-.033-.167-.097-.231s-.141-.096-.231-.096h-1.148c-.089,0-.165.032-.23.096Z" fill="#282828"/>
      <path d="M208.662,135.441l-26.468-25.782,24.406-24.063c4.469-4.47,6.532-9.283,6.532-16.158v-24.063c0-5.5-2.751-11.345-6.532-15.469l-23.033-23.033c-4.811-4.813-9.624-6.875-16.499-6.875H9.626C2.751,0,0,2.751,0,9.626v200.755c0,6.875,2.751,9.626,9.626,9.626h158.815c6.875,0,11.688-2.062,16.501-6.875l23.719-23.719c3.781-3.781,6.532-9.969,6.532-15.469v-22.344c0-6.875-2.062-11.688-6.532-16.158ZM103.982,28.138c16.778,0,30.428,13.649,30.428,30.428s-13.65,30.428-30.428,30.428-30.429-13.65-30.429-30.428c0-7.494,2.76-14.699,7.77-20.289l1.522,1.364c-4.674,5.215-7.248,11.935-7.248,18.924,0,15.65,12.732,28.383,28.384,28.383s28.383-12.733,28.383-28.383-12.733-28.384-28.383-28.384v-2.044ZM103.982,32.06c14.615,0,26.506,11.891,26.506,26.506s-11.891,26.506-26.506,26.506-26.506-11.891-26.506-26.506c0-2.413.326-4.806.968-7.111l1.969.549c-.592,2.127-.893,4.335-.893,6.562,0,13.488,10.974,24.461,24.462,24.461s24.461-10.973,24.461-24.461-10.973-24.462-24.461-24.462v-2.044ZM103.982,40.525v-.622c10.29,0,18.663,8.373,18.663,18.664s-8.372,18.663-18.663,18.663-18.663-8.372-18.663-18.663c0-2.997.689-5.86,2.049-8.51l1.819.933c-1.21,2.358-1.823,4.907-1.823,7.577,0,9.163,7.455,16.618,16.619,16.618s16.618-7.454,16.618-16.618-7.455-16.619-16.618-16.619v-1.423ZM99.807,59.054v.687h-.939v1.558h-.687v-1.558h-4.206v-.77l4.123-3.713h.77v3.796h.939ZM114.243,56.154l-6.099,5.145v-.905l6.099-5.137v.897ZM114.507,58.865c.198.198.298.437.298.716v.712c0,.279-.099.518-.298.716-.198.198-.437.298-.716.298h-.796c-.284,0-.525-.099-.72-.298-.196-.198-.294-.437-.294-.716v-.712c0-.279.098-.518.294-.716.195-.198.436-.297.72-.297h.796c.279,0,.518.099.716.297ZM110.23,56.992c0,.279-.099.519-.297.717s-.44.297-.725.297h-.788c-.286,0-.527-.099-.725-.297s-.298-.438-.298-.717v-.703c0-.286.099-.527.298-.725.198-.199.439-.298.725-.298h.788c.285,0,.527.099.725.298.198.198.297.439.297.725v.703ZM100.519,60.043h.687v.242c0,.09.032.167.096.23.064.065.141.096.23.096h4.064c.089,0,.166-.032.23-.096.064-.064.096-.141.096-.23v-1.425c0-.089-.032-.165-.096-.23s-.141-.096-.23-.096h-5.077v-3.277h6.091v.688h-5.077c-.09,0-.166.032-.23.096-.065.064-.096.142-.096.232v1.237c0,.089.032.168.096.235.064.067.141.102.23.102h4.064c.279,0,.518.098.716.292.198.196.297.436.297.72v1.425c0,.28-.099.519-.297.717-.198.198-.437.297-.716.297h-4.064c-.285,0-.525-.099-.72-.297-.196-.198-.294-.436-.294-.717v-.242ZM100.447,38.33c-9.853,1.716-17.005,10.227-17.005,20.236,0,11.326,9.214,20.54,20.54,20.54s20.54-9.214,20.54-20.54-9.214-20.54-20.54-20.54v-2.044c12.453,0,22.585,10.131,22.585,22.585s-10.132,22.584-22.585,22.584-22.585-10.131-22.585-22.584c0-11.007,7.865-20.363,18.7-22.25l.35,2.014ZM90.225,27.092l.822,1.873c-11.767,5.163-19.37,16.782-19.37,29.602,0,17.813,14.491,32.304,32.305,32.304s32.305-14.492,32.305-32.304-14.492-32.305-32.305-32.305v-2.045c18.94,0,34.349,15.41,34.349,34.35s-15.409,34.349-34.349,34.349-34.35-15.409-34.35-34.349c0-13.632,8.083-25.985,20.593-31.475ZM96.122,156.497c-.067-.067-.147-.1-.241-.1h-4.186v-.715h4.186c.291,0,.54.103.746.309.206.207.309.458.309.755v5.224h-.715v-5.233c0-.093-.034-.173-.1-.24ZM84.757,158.133c0,9.54,7.761,17.3,17.3,17.3s17.3-7.761,17.3-17.3-7.761-17.3-17.3-17.3v-2.128c10.713,0,19.428,8.714,19.428,19.428s-8.716,19.429-19.428,19.429-19.428-8.716-19.428-19.429c0-8.558,5.485-16.015,13.651-18.554l.632,2.032c-7.271,2.261-12.155,8.901-12.155,16.522ZM97.923,158.028v-1.282c0-.297.102-.548.305-.755.203-.206.454-.309.75-.309h4.23c.233,0,.45.088.65.265.2.178.335.386.405.624v1.457c0,.232-.087.468-.261.706.174.227.261.46.261.698v1.483c0,.291-.103.539-.31.746-.207.206-.455.31-.746.31h-4.23c-.297,0-.547-.103-.75-.31-.203-.206-.305-.455-.305-.746v-1.483c0-.238.088-.471.262-.698-.174-.238-.262-.474-.262-.706ZM112.245,156.615l-6.349,5.355v-.942l6.349-5.347v.933ZM112.52,159.436c.206.206.309.455.309.746v.741c0,.291-.103.54-.309.746-.207.206-.456.31-.746.31h-.828c-.297,0-.547-.104-.75-.31-.203-.206-.305-.456-.305-.746v-.741c0-.291.102-.539.305-.746.204-.206.453-.31.75-.31h.828c.291,0,.539.103.746.31ZM108.067,157.487c0,.291-.103.539-.31.745-.206.207-.458.31-.755.31h-.82c-.297,0-.548-.103-.754-.31-.206-.206-.31-.454-.31-.745v-.733c0-.297.103-.549.31-.755.206-.207.458-.31.754-.31h.82c.297,0,.548.103.755.31.206.206.31.458.31.755v.733ZM125.568,158.133c0,12.964-10.547,23.51-23.511,23.51s-23.511-10.547-23.511-23.51c0-7.147,3.206-13.826,8.793-18.323l1.335,1.658c-5.084,4.091-8,10.166-8,16.665,0,11.79,9.593,21.382,21.383,21.382s21.382-9.592,21.382-21.382-9.592-21.383-21.382-21.383v-2.128c12.964,0,23.511,10.547,23.511,23.511ZM102.057,132.669v-2.129c15.214,0,27.593,12.378,27.593,27.593s-12.379,27.594-27.593,27.594-27.593-12.378-27.593-27.594c0-11.302,6.782-21.349,17.279-25.593l.798,1.973c-9.688,3.919-15.948,13.19-15.948,23.62,0,14.041,11.423,25.465,25.465,25.465s25.465-11.423,25.465-25.465-11.424-25.465-25.465-25.465ZM72.51,158.133c0,16.292,13.254,29.548,29.547,29.548s29.547-13.256,29.547-29.548-13.254-29.547-29.547-29.547v-2.129c17.466,0,31.676,14.21,31.676,31.676s-14.21,31.675-31.676,31.675-31.676-14.209-31.676-31.675c0-7.157,2.464-14.176,6.939-19.765,4.406-5.503,10.582-9.427,17.39-11.051l.493,2.071c-13.362,3.185-22.694,15.006-22.694,28.745ZM78.665,185.159c-6.431-5.574-10.676-13.242-11.954-21.594l2.103-.322c2.488,16.26,16.78,28.521,33.243,28.521,18.544,0,33.63-15.087,33.63-33.63s-15.086-33.629-33.63-33.629v-2.128c19.717,0,35.758,16.041,35.758,35.758s-16.042,35.758-35.758,35.758c-8.587,0-16.894-3.102-23.391-8.733ZM115,195.817l-.693-2.012c15.23-5.245,25.462-19.581,25.462-35.671,0-20.794-16.917-37.712-37.712-37.712v-2.129c21.968,0,39.84,17.873,39.84,39.841,0,16.999-10.809,32.142-26.897,37.683ZM103.982,96.837c-9.388,0-18.424-3.446-25.443-9.705l1.361-1.526c6.644,5.924,15.197,9.186,24.082,9.186,19.975,0,36.226-16.252,36.226-36.226s-16.251-36.226-36.226-36.226v-2.045c21.103,0,38.271,17.168,38.271,38.271s-17.168,38.271-38.271,38.271Z" fill="#282828"/>
    </g>
  </g>
</svg>