<?xml version="1.0" encoding="UTF-8"?>
<svg id="Layer_2" data-name="Layer 2" xmlns="http://www.w3.org/2000/svg" viewBox="0 0 217.798 223.32">
  <g id="Bg">
    <g>
      <path d="M0,10.392C0,3.434,2.784.65,9.742.65h159.348c6.958,0,11.83,2.087,16.699,6.958l23.311,23.311c3.827,4.174,6.611,10.09,6.611,15.656v24.354c0,6.958-2.087,11.83-6.611,16.353l-24.702,24.354,26.789,26.094c4.524,4.524,6.611,9.395,6.611,16.353v22.614c0,5.566-2.784,11.83-6.611,15.656l-24.007,24.007c-4.871,4.871-9.742,6.958-16.701,6.958H9.742c-6.958,0-9.742-2.784-9.742-9.742V10.392Z" fill="#282828"/>
      <g>
        <path d="M130.977,175.637h-37.864c-6.708,0-12.166-5.457-12.166-12.166v-34.75c0-6.708,5.457-12.166,12.166-12.166h37.864c6.708,0,12.166,5.457,12.166,12.166v34.75c0,6.708-5.457,12.166-12.166,12.166ZM93.114,117.66c-6.099,0-11.061,4.962-11.061,11.061v34.75c0,6.099,4.962,11.061,11.061,11.061h37.864c6.099,0,11.061-4.962,11.061-11.061v-34.75c0-6.099-4.962-11.061-11.061-11.061h-37.864Z" fill="#ff931e"/>
        <path d="M149.787,136.358l-2.569,2.569c-.22.22-.22.576,0,.796l4.699,4.698h-12.83c-.311,0-.563.252-.563.563v3.633c0,.311.252.563.563.563h12.832l-4.701,4.699c-.22.22-.22.576,0,.796l2.568,2.568c.22.22.577.22.796,0l10.027-10.063c.219-.22.219-.575,0-.795l-10.026-10.025c-.22-.22-.576-.22-.796,0Z" fill="#ff931e"/>
        <path d="M154.579,134.834c-.06,0-.121-.006-.181-.019l-1.998-.421c-.227-.048-.422-.181-.549-.376-.127-.194-.17-.427-.122-.654l.496-2.35-4.044,2.635c-.401.261-.94.148-1.202-.253l-1.115-1.711c-.261-.401-.148-.94.253-1.202l4.043-2.635-2.35-.495c-.227-.048-.422-.181-.549-.376-.127-.194-.17-.426-.122-.653l.422-1.998c.048-.227.181-.422.376-.549.194-.127.426-.17.653-.122l7.798,1.645c.468.099.769.56.671,1.028l-1.634,7.816c-.048.227-.181.422-.375.549-.143.093-.306.142-.473.142ZM152.859,133.361l1.535.324,1.537-7.354-7.337-1.547-.324,1.536,4.728.997-6.08,3.962.857,1.315,6.081-3.962-.999,4.729Z" fill="#ff931e"/>
        <path d="M149.42,172.879c-.426,0-.818-.283-.937-.713l-.719-2.609c-.142-.516.162-1.052.678-1.194l3.486-.96-5.937-3.372c-.466-.264-.629-.858-.365-1.324l1.337-2.353c.128-.226.336-.388.586-.457.25-.069.512-.036.738.092l5.939,3.373-.962-3.487c-.069-.25-.036-.512.092-.738s.336-.388.587-.457l2.608-.719c.25-.069.513-.036.738.092.226.128.388.337.457.588l2.793,10.206c.141.516-.163,1.051-.679,1.193l-10.181,2.806c-.086.024-.172.035-.258.035ZM148.864,169.391l.648,2.352,9.924-2.735-2.723-9.949-2.351.648,1.636,5.93-8.143-4.624-1.205,2.121,8.141,4.623-5.928,1.634Z" fill="#ff931e"/>
        <g>
          <path d="M128.497,145.8h-6.554l-4.949-5.985c-.492-.595-1.225-.94-1.997-.94h-12.741c-.585,0-1.131.291-1.457.777l-4.041,6.02c-.59.894-.344,2.097.55,2.687.894.59,2.097.344,2.687-.55l3.238-4.904h4.431l-3.344,7.23c-.268.58-.423,1.205-.457,1.843l-.449,8.507-9.295-.589c-2.535-.16-4.719,1.764-4.88,4.298l16.109,1.02c1.296.082,2.414-.901,2.498-2.198l.641-9.889.053.024,8.281,17.032c.511,1.051,1.576,1.717,2.745,1.717h3.499l-9.689-19.928,3.196-6.91,3.106,3.742c.332.4.825.633,1.346.634l7.473.023c1.011,0,1.831-.82,1.831-1.831s-.82-1.831-1.831-1.831Z" fill="#ff931e"/>
          <path d="M115.611,137.827c4.79,0,8.674-3.883,8.674-8.674s-3.884-8.674-8.674-8.674-8.674,3.884-8.674,8.674,3.884,8.674,8.674,8.674ZM119.815,126.762c1.748,0,3.165,1.417,3.165,3.165s-1.417,3.165-3.165,3.165-3.165-1.417-3.165-3.165,1.417-3.165,3.165-3.165ZM116.107,133.935c0,.478.388.865.865.865s.865-.387.865-.865h1.885c0,1.778-1.841,3.219-4.112,3.219s-4.112-1.441-4.112-3.219h1.983c0,.478.387.865.865.865s.865-.387.865-.865h.894ZM109.177,131.565c-.23,0-.424-.177-.44-.409-.018-.243.165-.455.408-.473l2.741-.201-2.219-1.622c-.197-.144-.24-.421-.096-.617.144-.197.42-.24.617-.096l3.155,2.307c.158.115.211.315.154.491-.045.18-.196.32-.391.334l-3.898.286c-.011,0-.022.001-.033.001Z" fill="#ff931e"/>
          <path d="M119.815,128.148c.983,0,1.779.797,1.779,1.779s-.797,1.779-1.779,1.779-1.779-.797-1.779-1.779.797-1.779,1.779-1.779Z" fill="#ff931e"/>
          <circle cx="119.815" cy="129.928" r="1.779" fill="#ff931e"/>
        </g>
        <g>
          <path d="M97.918,178.744l-1.75,7.555h-1.65l-1.096-4.42c-.118.487-.298,1.224-.542,2.21-.244.986-.424,1.723-.541,2.21h-1.65l-1.725-7.555h1.587l.995,4.659c.126-.546.313-1.341.56-2.386.247-1.045.426-1.803.535-2.273h1.561l1.096,4.659c.101-.453.26-1.207.479-2.26.218-1.053.386-1.853.504-2.399h1.637Z" fill="#ff931e"/>
          <path d="M104.894,186.299h-1.637l-.504-1.448h-2.632c-.05.16-.137.401-.258.724-.122.323-.208.565-.258.724h-1.637l2.619-7.555h1.7l2.607,7.555ZM102.288,183.378l-.856-2.43c-.092.269-.233.674-.422,1.215-.189.542-.33.947-.422,1.215h1.7Z" fill="#ff931e"/>
          <path d="M111.417,181.627c0,.311-.08.584-.239.818-.05.084-.153.202-.309.353-.155.151-.279.26-.372.328-.067.05-.168.109-.302.176l1.637,2.997h-1.713l-1.498-2.884h-1.209v2.884h-1.536v-7.555h3.677c.369,0,.684.097.944.29.252.193.479.424.68.693.159.218.239.495.239.831v1.07ZM109.881,181.64v-1.121c-.084-.134-.193-.235-.327-.302h-2.141v1.725h2.141c.025,0,.078-.036.157-.107.08-.071.136-.136.17-.195Z" fill="#ff931e"/>
          <path d="M118.519,186.299h-1.549l-2.443-4.445v4.445h-1.536v-7.555h1.574l2.418,4.508v-4.508h1.536v7.555Z" fill="#ff931e"/>
          <path d="M121.679,186.299h-1.549v-7.555h1.549v7.555Z" fill="#ff931e"/>
          <path d="M128.819,186.299h-1.549l-2.443-4.445v4.445h-1.536v-7.555h1.574l2.418,4.508v-4.508h1.536v7.555Z" fill="#ff931e"/>
          <path d="M131.513,178.92c.26-.151.537-.227.831-.227h1.914c.587,0,1.137.353,1.65,1.058.168.235.311.504.428.806l-1.423.403c-.16-.336-.382-.6-.667-.793h-1.838c-.201.134-.365.298-.491.491v3.815c0,.034.052.099.157.195.105.097.208.17.309.22h1.839c.092-.042.195-.117.309-.227.113-.109.17-.185.17-.227v-1.133h-1.725v-1.436h3.261v2.833c0,.126.029.365.088.718l.151.894h-1.524l-.05-.227c-.017.009-.071.042-.164.101-.201.117-.365.176-.491.176h-1.901c-.286,0-.563-.08-.831-.239-.126-.076-.288-.21-.485-.403-.197-.193-.342-.357-.434-.491-.143-.227-.214-.487-.214-.781v-3.828c0-.319.071-.583.214-.793.092-.126.237-.29.434-.491.197-.201.359-.34.485-.416Z" fill="#ff931e"/>
        </g>
      </g>
      <g>
        <path d="M131.838,96.083h-40.864c-7.772,0-14.094-6.323-14.094-14.094v-33.314c0-7.772,6.323-14.094,14.094-14.094h40.864c7.772,0,14.094,6.323,14.094,14.094v33.314c0,7.771-6.323,14.094-14.094,14.094ZM90.974,35.456c-7.289,0-13.219,5.93-13.219,13.219v33.314c0,7.289,5.93,13.219,13.219,13.219h40.864c7.289,0,13.219-5.93,13.219-13.219v-33.314c0-7.289-5.93-13.219-13.219-13.219h-40.864Z" fill="#ff931e"/>
        <g>
          <path d="M86.903,68.794h-.879v-2.43c-.091.18-.222.436-.392.771-.171.334-.289.567-.357.697h-.576l-.742-1.461v2.423h-.879v-4.038h.958l.965,1.831c.086-.162.238-.452.454-.872.216-.419.382-.739.497-.959h.951v4.038Z" fill="#ff931e"/>
          <path d="M91.138,67.791c0,.166-.041.305-.122.417-.202.242-.377.406-.526.491-.154.085-.312.128-.475.128h-1.095c-.163,0-.322-.042-.475-.128-.072-.04-.165-.116-.277-.226-.113-.11-.196-.198-.249-.266-.082-.112-.122-.251-.122-.417v-2.026c0-.17.041-.312.122-.424.053-.067.136-.155.249-.262.113-.108.205-.182.277-.222.154-.085.312-.128.475-.128h1.095c.163,0,.322.043.475.128.134.072.31.233.526.485.082.112.122.254.122.424v2.026ZM90.259,67.791v-2.026c-.067-.108-.154-.191-.259-.249h-1.059c-.106.072-.194.157-.266.256v2.019c.096.121.182.204.259.249h1.059c.091-.063.18-.146.267-.249Z" fill="#ff931e"/>
          <path d="M95.2,67.777c0,.162-.038.298-.115.411-.053.072-.136.159-.249.262-.113.103-.208.175-.284.215-.173.085-.327.128-.461.128h-2.096v-4.038h2.096c.182,0,.341.04.475.121.149.09.319.254.511.491.082.108.122.247.122.417v1.992ZM94.321,67.75v-1.932c-.048-.112-.137-.204-.266-.276h-1.181v2.463h1.181c.115-.063.204-.148.266-.256Z" fill="#ff931e"/>
          <path d="M99.327,67.791c0,.166-.041.305-.122.417-.053.072-.134.162-.245.269-.11.108-.202.182-.274.222-.163.085-.322.128-.475.128h-1.03c-.163,0-.322-.042-.475-.128-.072-.04-.165-.116-.277-.226-.113-.11-.196-.198-.248-.266-.082-.112-.122-.251-.122-.417v-3.035h.879v3.029c.115.135.204.22.266.256h.987c.091-.054.178-.137.259-.249v-3.035h.879v3.035Z" fill="#ff931e"/>
          <path d="M102.978,68.794h-2.794v-4.038h.879v3.244h1.916v.794Z" fill="#ff931e"/>
          <path d="M106.399,68.794h-2.838v-4.038h2.838v.787h-1.959v.828h1.894v.788h-1.894v.848h1.959v.787Z" fill="#ff931e"/>
          <path d="M110.872,67.508h-1.865v-.761h1.865v.761Z" fill="#ff931e"/>
          <path d="M117.03,68.794h-.936l-.288-.774h-1.505c-.029.085-.078.214-.148.387-.07.173-.119.302-.148.387h-.936l1.498-4.038h.972l1.491,4.038ZM115.539,67.232l-.49-1.299c-.053.144-.133.36-.241.65-.108.289-.188.506-.241.649h.972Z" fill="#ff931e"/>
          <path d="M118.65,65.516c-.154.081-.255.173-.302.276l-.843-.195c.058-.13.118-.233.18-.31.298-.372.615-.559.951-.559h.828c.187,0,.362.054.526.162.12.072.252.195.396.37.086.108.13.254.13.437v.424c0,.175-.053.33-.158.464-.106.135-.238.238-.396.309-.163.072-.406.183-.727.333-.322.15-.564.261-.727.333-.043.022-.065.043-.065.061v.384h2.017v.787h-2.895v-1.191c0-.166.053-.315.158-.448.106-.132.24-.237.403-.313.158-.072.402-.184.731-.337.329-.152.575-.265.738-.337.029-.013.043-.036.043-.067v-.417c-.024-.04-.055-.078-.094-.114-.038-.036-.065-.054-.079-.054h-.814Z" fill="#ff931e"/>
        </g>
        <g>
          <path d="M84.719,76.21c0,.09-.02.162-.059.218-.025.039-.071.092-.139.157-.067.066-.122.111-.164.137-.084.048-.164.071-.239.071h-1.159v-2.52h1.159c.087,0,.166.023.239.067.039.022.092.068.16.136.067.069.115.124.143.166.039.056.059.129.059.218v1.348ZM84.375,76.202v-1.332c0-.017-.002-.028-.004-.033-.02-.042-.056-.087-.109-.134-.053-.048-.098-.08-.134-.097-.006-.003-.015-.004-.029-.004h-.794v1.865h.811l.013-.004c.042-.019.094-.059.155-.12.062-.06.092-.107.092-.141Z" fill="#ff931e"/>
          <path d="M87.29,76.794h-1.546v-2.52h1.546v.328h-1.201v.769h1.134v.328h-1.134v.769h1.201v.328Z" fill="#ff931e"/>
          <path d="M90.2,74.274l-.836,2.52h-.454l-.836-2.52h.365l.697,2.151.697-2.151h.365Z" fill="#ff931e"/>
          <path d="M91.342,76.794h-.344v-2.52h.344v2.52Z" fill="#ff931e"/>
          <path d="M94.131,76.256c-.036.09-.076.163-.118.218-.182.227-.354.34-.517.34h-.554c-.078,0-.16-.024-.244-.071-.042-.025-.097-.071-.164-.137-.067-.066-.113-.118-.139-.157-.042-.062-.063-.136-.063-.223v-1.386c0-.084.021-.157.063-.218.028-.039.076-.093.143-.162.067-.069.12-.114.16-.137.084-.048.164-.071.239-.071h.559c.173,0,.346.113.517.34.031.036.07.108.118.214l-.336.097c-.045-.126-.137-.232-.277-.319-.011-.003-.023-.004-.034-.004h-.525c-.014,0-.027.003-.038.009-.031.017-.071.049-.12.097-.049.048-.086.091-.111.13-.006.008-.008.027-.008.055v1.353c0,.033.03.08.09.139.06.059.11.098.149.118.011.006.024.008.038.008h.525c.017,0,.031-.003.042-.008.05-.028.102-.071.155-.13.053-.059.091-.119.113-.181l.336.088Z" fill="#ff931e"/>
          <path d="M96.597,76.794h-1.546v-2.52h1.546v.328h-1.201v.769h1.134v.328h-1.134v.769h1.201v.328Z" fill="#ff931e"/>
          <path d="M100.763,76.231c0,.09-.02.162-.059.218-.025.039-.071.092-.139.157-.067.066-.122.111-.164.137-.084.048-.164.071-.239.071h-.563c-.078,0-.16-.024-.244-.071-.042-.025-.097-.071-.164-.137-.067-.066-.113-.118-.139-.157-.042-.062-.063-.135-.063-.218v-1.957h.344v1.949c0,.028.033.073.099.136.066.063.117.103.153.12.011.006.022.008.033.008h.521c.014,0,.026-.003.038-.008.036-.017.085-.057.147-.12.062-.063.092-.108.092-.136v-1.949h.344v1.957Z" fill="#ff931e"/>
          <path d="M103.615,76.227c0,.092-.02.167-.059.223-.025.039-.072.092-.141.157-.069.066-.124.111-.166.137-.084.048-.164.071-.239.071h-.701c-.176,0-.35-.113-.521-.34-.023-.031-.06-.104-.113-.218l.332-.088.038.076c.025.045.062.09.111.136.049.046.092.079.128.099.011.006.024.008.038.008h.672c.011,0,.022-.003.034-.008.042-.02.093-.059.153-.118.06-.059.09-.105.09-.139v-.256c0-.034-.01-.064-.029-.092-.02-.028-.042-.045-.067-.05l-1.143-.294c-.092-.025-.165-.078-.218-.16-.053-.081-.08-.171-.08-.269v-.256c0-.092.02-.167.059-.223.025-.039.072-.092.141-.16.069-.067.124-.113.166-.139.084-.048.164-.071.239-.071h.617c.173,0,.346.113.517.34.031.036.07.108.118.214l-.336.097-.042-.084c-.022-.042-.059-.087-.109-.134-.05-.048-.094-.081-.13-.101-.008-.003-.018-.004-.029-.004h-.584c-.008,0-.021.003-.038.009-.036.017-.086.057-.149.12-.063.063-.095.109-.095.137v.239c0,.031.009.059.027.086.018.027.04.043.065.048l1.138.302c.092.025.167.078.223.158.056.08.084.167.084.263v.286Z" fill="#ff931e"/>
          <path d="M106.118,76.794h-1.546v-2.52h1.546v.328h-1.201v.769h1.134v.328h-1.134v.769h1.201v.328Z" fill="#ff931e"/>
          <path d="M108.899,76.21c0,.09-.02.162-.059.218-.025.039-.071.092-.139.157-.067.066-.122.111-.164.137-.084.048-.164.071-.239.071h-1.159v-2.52h1.159c.087,0,.166.023.239.067.039.022.092.068.16.136.067.069.115.124.143.166.039.056.059.129.059.218v1.348ZM108.554,76.202v-1.332c0-.017-.002-.028-.004-.033-.02-.042-.056-.087-.109-.134-.053-.048-.098-.08-.134-.097-.006-.003-.015-.004-.029-.004h-.794v1.865h.811l.013-.004c.042-.019.094-.059.155-.12.062-.06.092-.107.092-.141Z" fill="#ff931e"/>
          <path d="M112.96,74.601h-.718v2.193h-.344v-2.193h-.718v-.328h1.781v.328Z" fill="#ff931e"/>
          <path d="M115.711,76.227c0,.087-.021.161-.063.223-.025.039-.071.092-.139.157-.067.066-.122.111-.164.137-.084.048-.165.071-.244.071h-.664c-.076,0-.156-.024-.239-.071-.042-.025-.097-.071-.166-.137-.069-.066-.116-.118-.141-.157-.039-.056-.059-.13-.059-.223v-1.382c0-.092.019-.167.059-.223.025-.039.072-.092.141-.16.069-.067.124-.113.166-.139.084-.048.164-.071.239-.071h.664c.078,0,.16.024.244.071.039.023.092.068.16.137.067.069.115.123.143.162.042.062.063.136.063.223v1.382ZM115.367,76.223v-1.369c0-.014-.003-.027-.008-.038-.023-.039-.059-.083-.109-.13-.05-.048-.091-.08-.122-.097-.011-.006-.024-.009-.038-.009h-.63c-.014,0-.027.003-.038.009-.039.019-.09.06-.151.122s-.092.109-.092.143v1.369c0,.028.031.073.095.136.063.063.113.103.149.12.011.006.024.008.038.008h.63c.014,0,.026-.003.038-.008.039-.02.089-.059.149-.118.06-.059.09-.105.09-.139Z" fill="#ff931e"/>
          <path d="M119.957,76.227c0,.092-.02.167-.059.223-.025.039-.072.092-.141.157-.069.066-.124.111-.166.137-.084.048-.164.071-.239.071h-.701c-.176,0-.35-.113-.521-.34-.023-.031-.06-.104-.113-.218l.332-.088.038.076c.025.045.062.09.111.136.049.046.092.079.128.099.011.006.024.008.038.008h.672c.011,0,.022-.003.034-.008.042-.02.093-.059.153-.118.06-.059.09-.105.09-.139v-.256c0-.034-.01-.064-.029-.092-.02-.028-.042-.045-.067-.05l-1.143-.294c-.092-.025-.165-.078-.218-.16s-.08-.171-.08-.269v-.256c0-.092.02-.167.059-.223.025-.039.072-.092.141-.16.069-.067.124-.113.166-.139.084-.048.164-.071.239-.071h.617c.173,0,.346.113.517.34.031.036.07.108.118.214l-.336.097-.042-.084c-.022-.042-.059-.087-.109-.134-.05-.048-.094-.081-.13-.101-.008-.003-.018-.004-.029-.004h-.584c-.008,0-.021.003-.038.009-.036.017-.086.057-.149.12-.063.063-.095.109-.095.137v.239c0,.031.009.059.027.086.018.027.04.043.065.048l1.138.302c.092.025.167.078.223.158.056.08.084.167.084.263v.286Z" fill="#ff931e"/>
          <path d="M122.557,74.601h-.718v2.193h-.344v-2.193h-.718v-.328h1.781v.328Z" fill="#ff931e"/>
          <path d="M125.308,76.227c0,.087-.021.161-.063.223-.025.039-.071.092-.139.157-.067.066-.122.111-.164.137-.084.048-.165.071-.244.071h-.664c-.076,0-.156-.024-.239-.071-.042-.025-.097-.071-.166-.137-.069-.066-.116-.118-.141-.157-.039-.056-.059-.13-.059-.223v-1.382c0-.092.019-.167.059-.223.025-.039.072-.092.141-.16.069-.067.124-.113.166-.139.084-.048.164-.071.239-.071h.664c.078,0,.16.024.244.071.039.023.092.068.16.137.067.069.115.123.143.162.042.062.063.136.063.223v1.382ZM124.964,76.223v-1.369c0-.014-.003-.027-.008-.038-.023-.039-.059-.083-.109-.13-.05-.048-.091-.08-.122-.097-.011-.006-.024-.009-.038-.009h-.63c-.014,0-.027.003-.038.009-.039.019-.09.06-.151.122s-.092.109-.092.143v1.369c0,.028.031.073.095.136.063.063.113.103.149.12.011.006.024.008.038.008h.63c.014,0,.026-.003.038-.008.039-.02.089-.059.149-.118.06-.059.09-.105.09-.139Z" fill="#ff931e"/>
          <path d="M128.194,76.794h-.374l-.592-1.05h-.58v1.05h-.344v-2.52h1.184c.106,0,.2.029.281.088.031.023.071.059.122.109.05.05.084.088.101.113.048.073.071.153.071.239v.378c0,.084-.024.162-.071.235-.017.025-.05.063-.101.113-.05.05-.091.087-.122.109-.062.045-.125.07-.189.076l.613,1.058ZM127.719,75.194v-.361c0-.028-.002-.043-.004-.046-.017-.028-.049-.065-.097-.111-.048-.046-.084-.071-.109-.073h-.861v.815h.836c.034,0,.076-.021.128-.063.052-.042.086-.08.103-.113.003-.006.004-.021.004-.046Z" fill="#ff931e"/>
          <path d="M130.685,76.794h-1.546v-2.52h1.546v.328h-1.201v.769h1.134v.328h-1.134v.769h1.201v.328Z" fill="#ff931e"/>
          <path d="M135.099,76.794h-.37l-.189-.563h-1.092l-.193.563h-.365l.878-2.52h.454l.878,2.52ZM134.431,75.908l-.437-1.281-.437,1.281h.874Z" fill="#ff931e"/>
          <path d="M137.695,76.794h-.399l-1.058-1.924v1.924h-.34v-2.52h.407l1.05,1.945v-1.945h.34v2.52Z" fill="#ff931e"/>
          <path d="M84.505,83.094h-1.546v-2.52h1.546v.328h-1.201v.769h1.134v.328h-1.134v.769h1.201v.328Z" fill="#ff931e"/>
          <path d="M87.046,83.094h-1.52v-2.52h.344v2.193h1.176v.328Z" fill="#ff931e"/>
          <path d="M89.486,83.094h-1.546v-2.52h1.546v.328h-1.201v.769h1.134v.328h-1.134v.769h1.201v.328Z" fill="#ff931e"/>
          <path d="M92.279,82.557c-.036.09-.076.163-.118.218-.182.227-.354.34-.517.34h-.554c-.078,0-.16-.024-.244-.071-.042-.025-.097-.071-.164-.137-.067-.066-.113-.118-.139-.157-.042-.062-.063-.136-.063-.223v-1.386c0-.084.021-.157.063-.218.028-.039.076-.093.143-.162.067-.069.12-.114.16-.137.084-.048.164-.071.239-.071h.559c.173,0,.346.113.517.34.031.036.07.108.118.214l-.336.097c-.045-.126-.137-.232-.277-.319-.011-.003-.023-.004-.034-.004h-.525c-.014,0-.027.003-.038.009-.031.017-.071.049-.12.097-.049.048-.086.091-.111.13-.006.008-.008.027-.008.055v1.353c0,.033.03.08.09.139.06.059.11.098.149.118.011.006.024.008.038.008h.525c.017,0,.031-.003.042-.008.05-.028.102-.071.155-.13.053-.059.091-.119.113-.181l.336.088Z" fill="#ff931e"/>
          <path d="M94.841,80.902h-.718v2.193h-.344v-2.193h-.718v-.328h1.781v.328Z" fill="#ff931e"/>
          <path d="M97.626,83.094h-.374l-.592-1.05h-.58v1.05h-.344v-2.52h1.184c.106,0,.2.029.281.088.031.023.071.059.122.109.05.05.084.088.101.113.048.073.071.153.071.239v.378c0,.084-.024.162-.071.235-.017.025-.05.063-.101.113-.05.05-.091.087-.122.109-.062.045-.125.07-.189.076l.613,1.058ZM97.151,81.494v-.361c0-.028-.002-.043-.004-.046-.017-.028-.049-.065-.097-.111-.048-.046-.084-.071-.109-.073h-.861v.815h.836c.034,0,.076-.021.128-.063.052-.042.086-.08.103-.113.003-.006.004-.021.004-.046Z" fill="#ff931e"/>
          <path d="M98.911,83.094h-.344v-2.52h.344v2.52Z" fill="#ff931e"/>
          <path d="M101.7,82.557c-.036.09-.076.163-.118.218-.182.227-.354.34-.517.34h-.554c-.078,0-.16-.024-.244-.071-.042-.025-.097-.071-.164-.137-.067-.066-.113-.118-.139-.157-.042-.062-.063-.136-.063-.223v-1.386c0-.084.021-.157.063-.218.028-.039.076-.093.143-.162.067-.069.12-.114.16-.137.084-.048.164-.071.239-.071h.559c.173,0,.346.113.517.34.031.036.07.108.118.214l-.336.097c-.045-.126-.137-.232-.277-.319-.011-.003-.023-.004-.034-.004h-.525c-.014,0-.027.003-.038.009-.031.017-.071.049-.12.097-.049.048-.086.091-.111.13-.006.008-.008.027-.008.055v1.353c0,.033.03.08.09.139.06.059.11.098.149.118.011.006.024.008.038.008h.525c.017,0,.031-.003.042-.008.05-.028.102-.071.155-.13.053-.059.091-.119.113-.181l.336.088Z" fill="#ff931e"/>
          <path d="M105.786,82.557c-.036.09-.076.163-.118.218-.182.227-.354.34-.517.34h-.554c-.078,0-.16-.024-.244-.071-.042-.025-.097-.071-.164-.137-.067-.066-.113-.118-.139-.157-.042-.062-.063-.136-.063-.223v-1.386c0-.084.021-.157.063-.218.028-.039.076-.093.143-.162.067-.069.12-.114.16-.137.084-.048.164-.071.239-.071h.559c.173,0,.346.113.517.34.031.036.07.108.118.214l-.336.097c-.045-.126-.137-.232-.277-.319-.011-.003-.023-.004-.034-.004h-.525c-.014,0-.027.003-.038.009-.031.017-.071.049-.12.097-.049.048-.086.091-.111.13-.006.008-.008.027-.008.055v1.353c0,.033.03.08.09.139.06.059.11.098.149.118.011.006.024.008.038.008h.525c.017,0,.031-.003.042-.008.05-.028.102-.071.155-.13.053-.059.091-.119.113-.181l.336.088Z" fill="#ff931e"/>
          <path d="M108.479,83.094h-.345v-1.096h-1.084v1.096h-.344v-2.52h.344v1.096h1.084v-1.096h.345v2.52Z" fill="#ff931e"/>
          <path d="M111.499,83.094h-.37l-.189-.563h-1.092l-.193.563h-.365l.878-2.52h.454l.878,2.52ZM110.831,82.208l-.437-1.281-.437,1.281h.874Z" fill="#ff931e"/>
          <path d="M114.187,83.094h-.374l-.592-1.05h-.58v1.05h-.344v-2.52h1.184c.106,0,.2.029.281.088.031.023.071.059.122.109.05.05.084.088.101.113.048.073.071.153.071.239v.378c0,.084-.024.162-.071.235-.017.025-.05.063-.101.113-.05.05-.091.087-.122.109-.062.045-.125.07-.189.076l.613,1.058ZM113.712,81.494v-.361c0-.028-.002-.043-.004-.046-.017-.028-.049-.065-.097-.111-.048-.046-.084-.071-.109-.073h-.861v.815h.836c.034,0,.076-.021.128-.063.052-.042.086-.08.103-.113.003-.006.004-.021.004-.046Z" fill="#ff931e"/>
          <path d="M117.043,83.094h-.336c-.003-.019-.009-.047-.017-.082-.008-.035-.012-.057-.012-.065-.009.006-.025.02-.05.042-.025.022-.045.038-.059.048-.014.01-.033.023-.057.038-.024.016-.048.026-.071.032-.024.005-.05.008-.078.008h-.647c-.078,0-.16-.024-.244-.071-.042-.025-.097-.071-.164-.137-.067-.066-.113-.118-.139-.157-.042-.062-.063-.136-.063-.223v-1.382c0-.087.021-.161.063-.223.028-.039.076-.093.143-.162.067-.069.12-.114.16-.137.084-.048.165-.071.244-.071h.647c.171,0,.345.115.521.344.033.042.073.112.118.21l-.336.097-.042-.084c-.022-.042-.057-.086-.105-.132-.048-.046-.09-.079-.126-.099-.011-.006-.025-.009-.042-.009h-.617c-.014,0-.027.003-.038.009-.034.017-.076.05-.128.099-.052.049-.088.093-.107.132-.006.011-.009.024-.009.038v1.357c0,.033.032.082.097.145.064.063.116.104.155.124.006.003.017.004.034.004h.605c.014,0,.026-.003.038-.008.039-.02.09-.061.153-.124.063-.063.095-.111.095-.145v-.521h-.575v-.328h.92v.844c0,.098.024.294.071.588Z" fill="#ff931e"/>
          <path d="M119.584,83.094h-1.546v-2.52h1.546v.328h-1.201v.769h1.134v.328h-1.134v.769h1.201v.328Z" fill="#ff931e"/>
        </g>
        <g>
          <g>
            <polygon points="118.401 54.679 113.348 49.627 113.348 49.627 118.401 44.576 116.127 42.303 108.816 49.641 116.127 56.952 118.401 54.679" fill="#ff931e"/>
            <polygon points="103.749 44.576 108.801 49.628 108.801 49.628 103.749 54.679 106.022 56.952 113.334 49.614 106.022 42.303 103.749 44.576" fill="#ff931e"/>
            <polygon points="112.683 58.379 112.683 51.235 112.683 51.235 119.827 51.236 119.827 48.021 109.468 48.04 109.468 58.379 112.683 58.379" fill="#ff931e"/>
            <polygon points="109.466 40.876 109.467 48.02 109.467 48.02 102.323 48.019 102.323 51.234 112.682 51.215 112.682 40.876 109.466 40.876" fill="#ff931e"/>
          </g>
          <g>
            <polygon points="98.865 54.679 93.812 49.627 93.812 49.627 98.865 44.576 96.591 42.303 89.28 49.641 96.591 56.952 98.865 54.679" fill="#ff931e"/>
            <polygon points="84.213 44.576 89.265 49.628 89.265 49.628 84.213 54.679 86.486 56.952 93.798 49.614 86.486 42.303 84.213 44.576" fill="#ff931e"/>
            <polygon points="93.147 58.379 93.147 51.235 93.147 51.235 100.291 51.236 100.291 48.021 89.932 48.04 89.932 58.379 93.147 58.379" fill="#ff931e"/>
            <polygon points="89.93 40.876 89.931 48.02 89.931 48.02 82.787 48.019 82.787 51.234 93.146 51.215 93.145 40.876 89.93 40.876" fill="#ff931e"/>
          </g>
          <path d="M132.841,58.729h-3.915v-4.388s-3.095,3.107-3.095,3.107l-2.769-2.769,3.103-3.102-4.384.008v-3.916h4.375s-3.094-3.092-3.094-3.092l2.769-2.768,3.094,3.094v-4.376s3.915,0,3.915,0v4.388s3.095-3.106,3.095-3.106l2.769,2.769-3.103,3.102,4.384-.008v3.916h-4.375s3.094,3.092,3.094,3.092l-2.769,2.769-3.094-3.094v4.376ZM129.626,58.029h2.515v-5.366s3.794,3.794,3.794,3.794l1.778-1.779-3.794-3.794h5.365s0-2.513,0-2.513l-5.378.01,3.807-3.805-1.778-1.778-3.796,3.81v-5.383h-2.515v5.366s-3.794-3.794-3.794-3.794l-1.778,1.779,3.794,3.794h-5.365s0,2.513,0,2.513l5.378-.01-3.807,3.805,1.778,1.778,3.796-3.81v5.383Z" fill="#ff931e"/>
        </g>
      </g>
      <g>
        <path d="M193.782,65.592c-.577,0-1.119-.225-1.527-.633-.408-.408-.633-.95-.633-1.527,0-.577.225-1.119.633-1.527l3.644-3.643-3.645-3.644c-.408-.408-.633-.95-.633-1.527,0-.577.225-1.119.633-1.527h0c.85-.845,2.217-.843,3.057-.002l5.162,5.161c.841.841.842,2.21.003,3.052l-5.164,5.183c-.408.409-.95.635-1.528.635h-.002ZM193.784,51.961c-.289,0-.578.11-.798.33l-.002.002c-.213.213-.33.496-.33.798s.117.585.33.798l4.374,4.374-4.374,4.373c-.213.213-.331.496-.331.798s.117.585.33.798c.213.213.496.33.798.33h.001c.302,0,.585-.118.798-.332l5.164-5.183c.438-.44.438-1.155-.001-1.594l-5.162-5.161c-.22-.22-.509-.33-.798-.33Z" fill="#ff931e"/>
        <path d="M213.276,64.595c.642-.642.642-1.683,0-2.325l-4.009-4.009h0l4.009-4.007c.642-.642.642-1.683,0-2.325h0c-.643-.643-1.685-.642-2.327.002l-5.164,5.183c-.64.642-.639,1.682.002,2.323l5.162,5.161c.642.642,1.683.642,2.325,0l.002-.002Z" fill="#ff931e"/>
        <path d="M182.808,51.928c-.642.642-.642,1.683,0,2.325l4.009,4.009h0l-4.009,4.007c-.642.642-.642,1.683,0,2.325h0c.643.643,1.685.642,2.327-.002l5.164-5.183c.64-.642.639-1.682-.002-2.323l-5.162-5.161c-.642-.642-1.683-.642-2.325,0l-.002.002Z" fill="#ff931e"/>
        <path d="M172.996,51.928c-.642.642-.642,1.683,0,2.325l4.009,4.009h0l-4.009,4.007c-.642.642-.642,1.683,0,2.325h0c.643.643,1.685.642,2.327-.002l5.164-5.183c.64-.642.639-1.682-.002-2.323l-5.162-5.161c-.642-.642-1.683-.642-2.325,0l-.002.002Z" fill="#ff931e"/>
        <path d="M163.184,51.928c-.642.642-.642,1.683,0,2.325l4.009,4.009h0l-4.009,4.007c-.642.642-.642,1.683,0,2.325h0c.643.643,1.685.642,2.327-.002l5.164-5.183c.64-.642.639-1.682-.002-2.323l-5.162-5.161c-.642-.642-1.683-.642-2.325,0l-.002.002Z" fill="#ff931e"/>
        <g>
          <path d="M162.986,68.612h1.678c.675,0,1.203.19,1.582.569.379.379.569.904.569,1.575,0,.566-.115,1.077-.345,1.532-.23.455-.549.811-.956,1.068-.408.257-.864.386-1.368.386h-2.246l1.088-5.129ZM163.754,69.397l-.764,3.554h1.102c.517,0,.942-.197,1.276-.59.334-.393.501-.899.501-1.518,0-.45-.122-.804-.364-1.061-.243-.257-.58-.386-1.011-.386h-.739Z" fill="#ff931e"/>
          <path d="M167.298,72.294h.896c.045.244.174.44.387.588.213.148.471.222.775.222.31,0,.563-.07.757-.21.194-.14.291-.322.291-.547,0-.175-.064-.321-.19-.437-.127-.116-.339-.223-.638-.32l-.515-.167c-.37-.121-.655-.3-.857-.539-.201-.238-.302-.516-.302-.834,0-.45.184-.824.553-1.121.368-.297.832-.446,1.392-.446.533,0,.976.145,1.328.434s.541.662.567,1.12h-.878c-.045-.242-.163-.434-.354-.576-.191-.142-.426-.213-.706-.213-.277,0-.507.066-.688.199-.181.133-.272.301-.272.505,0,.159.059.296.178.411.118.115.304.215.558.3l.505.167c.431.142.749.326.953.551.204.225.306.505.306.839,0,.493-.19.891-.57,1.194-.38.303-.876.455-1.488.455-.564,0-1.025-.141-1.383-.423-.358-.282-.559-.666-.604-1.152Z" fill="#ff931e"/>
          <path d="M174.311,73.741l.206-.956h-2.513l.146-.853c.569-.749,1.496-1.855,2.783-3.32h1.347l-.725,3.398h.693l-.16.775h-.693l-.206.956h-.878ZM173.024,71.978l-.011.053h1.678l.569-2.673h-.05c-.808.91-1.537,1.783-2.186,2.62Z" fill="#ff931e"/>
          <path d="M181.594,71.615h-2.332l.171-.828h2.335l-.174.828Z" fill="#ff931e"/>
          <path d="M185.373,69.323h-.057l-1.304.945v-.675l1.365-.981h.636v5.129h-.64v-4.418Z" fill="#ff931e"/>
          <path d="M190.047,69.241v-.057h-2.648v-.572h3.288v.594l-2.282,4.536h-.672l2.314-4.5Z" fill="#ff931e"/>
          <path d="M194.337,69.241v-.057h-2.648v-.572h3.288v.594l-2.282,4.536h-.672l2.314-4.5Z" fill="#ff931e"/>
        </g>
      </g>
      <g>
        <rect x="12.916" y="-4.766" width="3.019" height="12.551" transform="translate(15.935 -12.916) rotate(90)" fill="#ff931e"/>
        <rect x="9.623" y="13.253" width="9.606" height="12.551" transform="translate(33.954 5.102) rotate(90)" fill="#ff931e"/>
        <rect x="13.053" y="29.469" width="2.745" height="12.551" transform="translate(50.17 21.318) rotate(90)" fill="#ff931e"/>
        <rect x="13.542" y="34.237" width="1.767" height="12.551" transform="translate(54.938 26.087) rotate(90)" fill="#ff931e"/>
        <rect x="11.372" y="41.531" width="6.107" height="12.551" transform="translate(62.232 33.381) rotate(90)" fill="#ff931e"/>
        <rect x="13.605" y="49.772" width="1.641" height="12.551" transform="translate(70.473 41.622) rotate(90)" fill="#ff931e"/>
        <rect x="12.916" y="55.289" width="3.019" height="12.551" transform="translate(75.99 47.138) rotate(90)" fill="#ff931e"/>
        <rect x="9.623" y="73.308" width="9.606" height="12.551" transform="translate(94.009 65.157) rotate(90)" fill="#ff931e"/>
        <rect x="12.967" y="63.022" width="2.917" height="12.551" transform="translate(83.723 54.871) rotate(90)" fill="#ff931e"/>
        <rect x="13.053" y="89.523" width="2.745" height="12.551" transform="translate(110.225 81.373) rotate(90)" fill="#ff931e"/>
        <rect x="13.542" y="94.292" width="1.767" height="12.551" transform="translate(114.993 86.142) rotate(90)" fill="#ff931e"/>
        <rect x="11.372" y="101.586" width="6.107" height="12.551" transform="translate(122.287 93.436) rotate(90)" fill="#ff931e"/>
        <rect x="13.605" y="109.827" width="1.641" height="12.551" transform="translate(130.528 101.676) rotate(90)" fill="#ff931e"/>
        <rect x="12.916" y="115.017" width="3.019" height="12.551" transform="translate(135.718 106.867) rotate(90)" fill="#ff931e"/>
        <rect x="9.623" y="126.74" width="9.606" height="12.551" transform="translate(147.441 118.59) rotate(90)" fill="#ff931e"/>
        <rect x="13.053" y="135.673" width="2.745" height="12.551" transform="translate(156.374 127.522) rotate(90)" fill="#ff931e"/>
        <rect x="13.542" y="140.441" width="1.767" height="12.551" transform="translate(161.142 132.291) rotate(90)" fill="#ff931e"/>
        <rect x="11.372" y="147.735" width="6.107" height="12.551" transform="translate(168.436 139.585) rotate(90)" fill="#ff931e"/>
        <rect x="13.605" y="155.976" width="1.641" height="12.551" transform="translate(176.677 147.826) rotate(90)" fill="#ff931e"/>
        <rect x="12.916" y="161.493" width="3.019" height="12.551" transform="translate(182.194 153.342) rotate(90)" fill="#ff931e"/>
        <rect x="9.623" y="179.512" width="9.606" height="12.551" transform="translate(200.213 171.361) rotate(90)" fill="#ff931e"/>
        <rect x="12.967" y="169.226" width="2.917" height="12.551" transform="translate(189.927 161.075) rotate(90)" fill="#ff931e"/>
        <rect x="13.053" y="195.727" width="2.745" height="12.551" transform="translate(216.429 187.577) rotate(90)" fill="#ff931e"/>
        <rect x="13.542" y="200.496" width="1.767" height="12.551" transform="translate(221.197 192.345) rotate(90)" fill="#ff931e"/>
        <rect x="11.372" y="207.79" width="6.107" height="12.551" transform="translate(228.491 199.639) rotate(90)" fill="#ff931e"/>
        <rect x="13.605" y="216.031" width="1.641" height="12.551" transform="translate(236.732 207.88) rotate(90)" fill="#ff931e"/>
      </g>
    </g>
  </g>
</svg>