<?xml version="1.0" encoding="UTF-8"?>
<svg id="Layer_2" data-name="Layer 2" xmlns="http://www.w3.org/2000/svg" viewBox="0 0 351.513 359.374">
  <g id="Bg">
    <path d="M340.844,221.24l-43.238-42.114,39.869-39.306c7.299-7.3,10.668-15.162,10.668-26.392v-39.306c0-8.984-4.492-18.529-10.668-25.269l-37.623-37.622c-7.861-7.861-15.722-11.23-26.953-11.23H15.723C4.492,0,0,4.492,0,15.722v327.931c0,11.23,4.492,15.722,15.723,15.722h259.423c11.231,0,19.092-3.369,26.953-11.23l38.745-38.745c6.177-6.178,10.668-16.285,10.668-25.269v-36.499c0-11.23-3.369-19.093-10.668-26.392ZM257.312,85.73c0,8.617-2.585,14.647-8.617,21.11l-163.297,170.623.433,31.023c0,8.617-3.017,12.493-11.635,12.493h-10.341c-8.617,0-12.065-3.445-12.065-12.062v-30.162c0-8.617,2.587-14.647,8.62-21.11L224.138,86.591l-.863-30.593c-.43-8.617,3.017-12.493,11.635-12.493h10.341c8.617,0,12.062,3.445,12.062,12.062v30.162Z" fill="#282828"/>
  </g>
</svg>