<?xml version="1.0" encoding="UTF-8"?>
<svg id="Layer_2" data-name="Layer 2" xmlns="http://www.w3.org/2000/svg" viewBox="0 0 215.206 177.879">
  <g id="Bg">
    <path d="M0,34.208c0-3.925,1.308-6.978,3.925-9.594L26.603,1.936c2.617-2.616,5.015-2.616,7.85.218l.654.654c2.617,2.835,2.617,5.233,0,7.85l-22.896,22.459v111.644l22.896,22.241c2.617,2.617,2.835,5.233,0,8.068l-.654.654c-2.617,2.834-5.233,2.617-7.85,0l-22.678-22.678c-2.617-2.616-3.925-5.669-3.925-9.594V34.208Z" fill="#282828"/>
    <path d="M54.316,35.957c0-3.623,1.449-5.073,5.073-5.073h82.979c3.624,0,6.16,1.087,8.696,3.623l12.139,12.139c1.993,2.175,3.442,5.254,3.442,8.153v12.682c0,3.623-1.087,6.16-3.442,8.515l-12.864,12.682,13.951,13.588c2.355,2.355,3.442,4.892,3.442,8.515v11.776c0,2.899-1.449,6.16-3.442,8.153l-12.501,12.501c-2.537,2.536-5.073,3.623-8.697,3.623H59.389c-3.624,0-5.073-1.449-5.073-5.073V35.957Z" fill="#282828"/>
    <path d="M215.206,143.671c0,3.925-1.308,6.978-3.925,9.594l-22.678,22.678c-2.617,2.616-5.015,2.616-7.85-.218l-.872-.872c-2.617-2.835-2.617-5.015.218-7.85l22.896-22.241V33.118l-23.114-22.459c-2.617-2.617-2.617-5.015.218-7.85l.654-.654c2.835-2.617,5.233-2.617,7.85,0l22.678,22.678c2.616,2.616,3.925,5.669,3.925,9.594v109.245Z" fill="#282828"/>
  </g>
</svg>