<?xml version="1.0" encoding="UTF-8"?>
<svg id="Layer_2" data-name="Layer 2" xmlns="http://www.w3.org/2000/svg" viewBox="0 0 231.077 163.764">
  <g id="Bg">
    <path d="M43.355,12.811c0-4.908,1.963-6.871,6.871-6.871h112.387c4.908,0,8.343,1.472,11.778,4.908l16.441,16.441c2.699,2.945,4.662,7.117,4.662,11.043v17.177c0,4.908-1.472,8.343-4.662,11.533l-17.423,17.177,18.895,18.404c3.19,3.19,4.662,6.626,4.662,11.533v15.95c0,3.926-1.963,8.343-4.662,11.043l-16.932,16.932c-3.436,3.435-6.871,4.908-11.779,4.908H50.226c-4.908,0-6.871-1.963-6.871-6.871V12.811ZM63.722,75.63h92.511l19.386-19.631-.491-15.95-15.95-16.441H63.722v52.022ZM160.405,145.32l16.686-16.932.491-14.232-21.349-20.858H63.722v52.022h96.683Z" fill="#282828"/>
    <g>
      <path d="M2.775,81.882C2.775,54.149,8.541,27.388,19.913,2.341l.207-.456-1.383-.63-.208.458C7.066,26.96,1.255,53.932,1.255,81.882s5.812,54.922,17.274,80.17l.208.457,1.384-.629-.207-.457C8.541,136.375,2.775,109.614,2.775,81.882Z" fill="#282828" stroke="#282828" stroke-linecap="round" stroke-linejoin="round" stroke-width="2.509"/>
      <path d="M212.549,1.712l-.208-.458-1.383.63.207.456c11.371,25.047,17.137,51.808,17.137,79.541s-5.766,54.494-17.137,79.542l-.207.457,1.384.629.208-.457c11.462-25.247,17.273-52.221,17.273-80.17s-5.812-54.923-17.273-80.17Z" fill="#282828" stroke="#282828" stroke-linecap="round" stroke-linejoin="round" stroke-width="2.509"/>
    </g>
    <polygon points="2.531 10.63 1.498 10.63 1.498 1.51 10.618 1.51 10.618 2.544 2.531 2.544 2.531 10.63" fill="#282828" stroke="#282828" stroke-miterlimit="10" stroke-width="1.004"/>
    <g>
      <path d="M18.086,93.315c-.437-3.768-.659-7.615-.659-11.433s.222-7.666.659-11.434l1.026.119c-.432,3.729-.652,7.536-.652,11.315s.22,7.585.652,11.314l-1.026.119Z" fill="#282828" stroke="#282828" stroke-miterlimit="10" stroke-width="1.004"/>
      <rect x="10.618" y="81.365" width="7.326" height="1.033" fill="#282828" stroke="#282828" stroke-miterlimit="10" stroke-width="1.004"/>
    </g>
    <g>
      <path d="M212.992,93.315l-1.027-.119c.433-3.732.653-7.538.653-11.314s-.22-7.583-.653-11.315l1.027-.119c.437,3.771.659,7.618.659,11.434s-.222,7.662-.659,11.433Z" fill="#282828" stroke="#282828" stroke-miterlimit="10" stroke-width="1.004"/>
      <rect x="213.134" y="81.365" width="7.326" height="1.033" fill="#282828" stroke="#282828" stroke-miterlimit="10" stroke-width="1.004"/>
    </g>
  </g>
</svg>