<?xml version="1.0" encoding="UTF-8"?>
<svg id="Layer_2" data-name="Layer 2" xmlns="http://www.w3.org/2000/svg" viewBox="0 0 488.595 359.205">
  <g id="Bg">
    <g>
      <path d="M5.372,179.298c0-58.869,12.24-115.678,36.379-168.845l.881-1.943-4.888-2.227-.884,1.947C12.402,62.104,0,119.659,0,179.298s12.402,117.192,36.859,171.066l.883,1.945,4.89-2.223-.882-1.944C17.611,294.974,5.372,238.165,5.372,179.298Z" fill="#282828"/>
      <path d="M451.738,8.231l-.884-1.946-4.89,2.226.882,1.943c24.139,53.165,36.378,109.972,36.378,168.845s-12.239,115.678-36.378,168.845l-.882,1.945,4.891,2.222.883-1.945c24.457-53.874,36.857-111.429,36.857-171.066s-12.401-117.194-36.857-171.067Z" fill="#282828"/>
      <polygon points="3.786 10.442 20.996 10.442 20.996 8.243 1.586 8.243 1.586 27.652 3.786 27.652 3.786 10.442" fill="#282828"/>
      <polygon points="484.81 27.652 487.009 27.652 487.009 8.243 467.6 8.243 467.6 10.442 484.81 10.442 484.81 27.652" fill="#282828"/>
      <polygon points="484.81 348.152 467.6 348.152 467.6 350.351 487.009 350.351 487.009 330.943 484.81 330.943 484.81 348.152" fill="#282828"/>
      <polygon points="3.786 330.943 1.586 330.943 1.586 350.351 20.996 350.351 20.996 348.152 3.786 348.152 3.786 330.943" fill="#282828"/>
      <path d="M36.891,154.964c-.889,7.658-1.346,15.469-1.387,23.234h-14.508v2.199h14.508c.041,7.765.498,15.575,1.387,23.234l2.184-.253c-.92-7.936-1.388-16.038-1.388-24.08s.468-16.145,1.388-24.081l-2.184-.253Z" fill="#282828"/>
      <path d="M451.706,203.631c.888-7.665,1.346-15.474,1.387-23.234h14.507v-2.199h-14.507c-.041-7.76-.499-15.57-1.387-23.234l-2.186.253c.922,7.942,1.389,16.044,1.389,24.081s-.468,16.137-1.389,24.08l2.186.253Z" fill="#282828"/>
      <path d="M51.122,126.435c-.821,0-1.487.665-1.487,1.487s.666,1.486,1.487,1.486,1.487-.665,1.487-1.486-.665-1.487-1.487-1.487Z" fill="#282828"/>
      <path d="M437.475,126.435c-.821,0-1.487.665-1.487,1.487s.666,1.486,1.487,1.486,1.486-.665,1.486-1.486-.665-1.487-1.486-1.487Z" fill="#282828"/>
      <path d="M51.122,152.123c-.821,0-1.487.665-1.487,1.486s.666,1.487,1.487,1.487,1.487-.665,1.487-1.487-.665-1.486-1.487-1.486Z" fill="#282828"/>
      <path d="M437.475,152.123c-.821,0-1.487.665-1.487,1.486s.666,1.487,1.487,1.487,1.486-.665,1.486-1.487-.665-1.486-1.486-1.486Z" fill="#282828"/>
      <path d="M51.122,177.811c-.821,0-1.487.666-1.487,1.487s.666,1.486,1.487,1.486,1.487-.665,1.487-1.486-.665-1.487-1.487-1.487Z" fill="#282828"/>
      <path d="M14.512,179.297c0,.821.666,1.486,1.487,1.486s1.486-.665,1.486-1.486-.665-1.487-1.486-1.487-1.487.666-1.487,1.487Z" fill="#282828"/>
      <path d="M474.084,179.297c0-.821-.665-1.487-1.487-1.487s-1.487.666-1.487,1.487.666,1.486,1.487,1.486,1.487-.665,1.487-1.486Z" fill="#282828"/>
      <path d="M437.475,177.811c-.821,0-1.487.666-1.487,1.487s.666,1.486,1.487,1.486,1.486-.665,1.486-1.486-.665-1.487-1.486-1.487Z" fill="#282828"/>
      <path d="M51.122,203.499c-.821,0-1.487.665-1.487,1.486s.666,1.487,1.487,1.487,1.487-.666,1.487-1.487-.665-1.486-1.487-1.486Z" fill="#282828"/>
      <path d="M437.475,203.499c-.821,0-1.487.665-1.487,1.486s.666,1.487,1.487,1.487,1.486-.666,1.486-1.487-.665-1.486-1.486-1.486Z" fill="#282828"/>
      <path d="M51.122,229.186c-.821,0-1.487.665-1.487,1.486s.666,1.487,1.487,1.487,1.487-.665,1.487-1.487-.665-1.486-1.487-1.486Z" fill="#282828"/>
      <path d="M437.475,229.186c-.821,0-1.487.665-1.487,1.486s.666,1.487,1.487,1.487,1.486-.665,1.486-1.487-.665-1.486-1.486-1.486Z" fill="#282828"/>
      <polygon points="141.528 185.097 141.528 173.498 131.361 179.298 141.528 185.097" fill="#282828"/>
      <path d="M395.503,200.999l-22.542-21.957,17.79-17.54c-8.815-72.988-71.128-129.736-146.455-129.736,0,0,0-4.119,0-5.223h0c-84.229,0-152.753,68.526-152.753,152.756h5.223c0,81.349,66.18,147.531,147.53,147.531v5.223c76.863,0,140.637-57.066,151.206-131.053ZM269.224,322.245l-1.568-8.89.541-.094,1.568,8.89-.541.094ZM293.671,315.746l-3.088-8.483.515-.189,3.088,8.483-.515.189ZM316.613,305.1l-4.515-7.818.477-.275,4.514,7.818-.477.275ZM337.361,290.632l-5.803-6.916.421-.354,5.803,6.916-.421.355ZM355.28,272.78l-6.916-5.803.352-.421,6.916,5.803-.352.421ZM367.228,257.848c-.821,0-1.486-.666-1.486-1.487s.665-1.487,1.486-1.487,1.487.665,1.487,1.487-.666,1.487-1.487,1.487ZM378.355,202.656l8.892,1.568-.095.541-8.891-1.568.094-.541ZM387.247,154.371l-8.892,1.568-.094-.541,8.891-1.568.095.541ZM380.559,129.409l.189.518-8.484,3.087-.189-.518,8.483-3.087ZM372.264,225.581l8.484,3.087-.189.517-8.483-3.087.189-.517ZM367.228,100.747c.821,0,1.487.665,1.487,1.486s-.666,1.487-1.487,1.487-1.486-.665-1.486-1.487.665-1.486,1.486-1.486ZM369.827,106.506l.275.477-7.818,4.514-.275-.477,7.818-4.514ZM367.228,206.472c-.821,0-1.486-.666-1.486-1.487s.665-1.486,1.486-1.486,1.487.665,1.487,1.486-.666,1.487-1.487,1.487ZM368.715,230.673c0,.821-.666,1.487-1.487,1.487s-1.486-.665-1.486-1.487.665-1.486,1.486-1.486,1.487.665,1.487,1.486ZM367.228,180.784c-.821,0-1.486-.665-1.486-1.486s.665-1.487,1.486-1.487,1.487.666,1.487,1.487-.666,1.486-1.487,1.486ZM367.228,155.096c-.821,0-1.486-.665-1.486-1.487s.665-1.486,1.486-1.486,1.487.665,1.487,1.486-.666,1.487-1.487,1.487ZM367.228,129.408c-.821,0-1.486-.665-1.486-1.486s.665-1.487,1.486-1.487,1.487.665,1.487,1.487-.666,1.486-1.487,1.486ZM362.284,247.098l7.818,4.514-.275.477-7.818-4.514.275-.477ZM355.28,85.814l.352.421-6.916,5.803-.352-.421,6.916-5.803ZM337.361,67.962l.421.355-5.803,6.916-.421-.354,5.803-6.916ZM316.613,53.495l.477.275-4.514,7.818-.477-.275,4.515-7.818ZM293.671,42.848l.515.189-3.088,8.483-.515-.189,3.088-8.483ZM269.224,36.349l.541.095-1.568,8.89-.541-.095,1.568-8.89ZM244.022,34.192h.55v9.027h-.55v-9.027ZM219.373,36.349l1.566,8.89-.541.095-1.566-8.89.541-.095ZM194.927,42.848l3.088,8.483-.516.189-3.088-8.483.516-.189ZM171.984,53.495l4.515,7.818-.477.275-4.515-7.818.477-.275ZM151.236,67.962l5.803,6.916-.421.354-5.803-6.916.421-.355ZM133.317,85.814l6.916,5.803-.352.421-6.916-5.803.352-.421ZM121.368,100.747c.821,0,1.486.665,1.486,1.486s-.665,1.487-1.486,1.487-1.487-.665-1.487-1.487.665-1.486,1.487-1.486ZM101.444,153.829l8.891,1.568-.095.541-8.891-1.568.094-.541ZM99.192,179.023h9.027v.55h-9.027v-.55ZM101.35,204.224l8.891-1.568.095.541-8.891,1.568-.094-.541ZM108.038,229.185l-.189-.517,8.484-3.087.189.517-8.484,3.087ZM116.333,133.014l-8.484-3.087.189-.518,8.484,3.087-.189.518ZM121.368,257.848c-.821,0-1.487-.666-1.487-1.487s.665-1.487,1.487-1.487,1.486.665,1.486,1.487-.665,1.487-1.486,1.487ZM118.77,252.088l-.275-.477,7.818-4.514.275.477-7.818,4.514ZM121.368,152.123c.821,0,1.486.665,1.486,1.486s-.665,1.487-1.486,1.487-1.487-.665-1.487-1.487.665-1.486,1.487-1.486ZM119.881,127.922c0-.821.665-1.487,1.487-1.487s1.486.665,1.486,1.487-.665,1.486-1.486,1.486-1.487-.665-1.487-1.486ZM121.368,177.811c.821,0,1.486.666,1.486,1.487s-.665,1.486-1.486,1.486-1.487-.665-1.487-1.486.665-1.487,1.487-1.487ZM121.368,203.499c.821,0,1.486.665,1.486,1.486s-.665,1.487-1.486,1.487-1.487-.666-1.487-1.487.665-1.486,1.487-1.486ZM121.368,229.186c.821,0,1.486.665,1.486,1.486s-.665,1.487-1.486,1.487-1.487-.665-1.487-1.487.665-1.486,1.487-1.486ZM126.313,111.497l-7.818-4.514.275-.477,7.818,4.514-.275.477ZM133.317,272.78l-.352-.421,6.916-5.803.352.421-6.916,5.803ZM151.236,290.632l-.421-.355,5.803-6.916.421.354-5.803,6.916ZM156.844,257.8c-.114.028-.231.047-.354.047-.821,0-1.487-.666-1.487-1.487,0-.189.039-.369.104-.535-17.685-20.582-28.389-47.328-28.389-76.528s10.704-55.947,28.389-76.529c-.065-.166-.104-.346-.104-.536,0-.821.666-1.486,1.487-1.486.123,0,.24.019.354.047,21.54-23.972,52.764-39.077,87.452-39.077s65.913,15.105,87.454,39.077c.114-.028.232-.047.355-.047.821,0,1.486.665,1.486,1.486,0,.19-.039.369-.103.536,17.685,20.582,28.389,47.328,28.389,76.529s-10.704,55.945-28.389,76.527c.065.167.103.346.103.536,0,.821-.665,1.487-1.486,1.487-.123,0-.24-.019-.354-.047-21.541,23.972-52.766,39.077-87.454,39.077s-65.912-15.105-87.453-39.077ZM171.984,305.1l-.477-.275,4.515-7.818.477.275-4.515,7.818ZM194.927,315.746l-.516-.189,3.088-8.483.516.189-3.088,8.483ZM219.373,322.245l-.541-.094,1.566-8.89.541.094-1.566,8.89ZM244.022,324.403v-9.027h.55v9.027h-.55Z" fill="#282828"/>
      <path d="M396.011,201.494c-4.689,32.526-19.657,62.552-43.311,86.207-28.954,28.955-67.453,44.902-108.403,44.902s-79.446-15.946-108.403-44.902c-28.954-28.956-44.901-67.454-44.901-108.403s15.946-79.448,44.901-108.403c28.956-28.956,67.453-44.903,108.403-44.903s79.449,15.946,108.403,44.903c23.487,23.488,38.414,53.256,43.214,85.518l16.895-16.658c7.298-7.298,10.664-15.156,10.664-26.381v-39.287c0-8.979-4.491-18.523-10.664-25.256l-37.605-37.606c-7.855-7.858-15.713-11.225-26.938-11.225H91.21c-11.225,0-15.716,4.491-15.716,15.716v327.773c0,11.225,4.491,15.716,15.716,15.716h259.298c11.225,0,19.083-3.366,26.941-11.225l38.726-38.727c6.173-6.173,10.664-16.277,10.664-25.256v-36.481c0-11.225-3.367-19.083-10.664-26.381l-20.165-19.642ZM402.351,100.747c.821,0,1.487.665,1.487,1.486s-.665,1.487-1.487,1.487-1.486-.665-1.486-1.487.665-1.486,1.486-1.486ZM402.351,126.435c.821,0,1.487.665,1.487,1.487s-.665,1.486-1.487,1.486-1.486-.665-1.486-1.486.665-1.487,1.486-1.487ZM397.749,70.239c.597-.418,1.419-.273,1.837.324s.273,1.419-.324,1.837-1.419.273-1.837-.324-.273-1.419.324-1.837ZM387.661,57.28c.558-.468,1.39-.395,1.858.163.468.557.395,1.389-.162,1.858-.558.468-1.39.395-1.858-.162-.468-.558-.395-1.39.163-1.858ZM376.481,45.25c.515-.515,1.35-.515,1.865,0,.515.515.515,1.35,0,1.865-.515.515-1.35.515-1.865,0-.515-.515-.515-1.35,0-1.865ZM364.294,34.239c.468-.558,1.3-.631,1.858-.162.558.468.631,1.3.163,1.858-.468.558-1.3.631-1.858.162-.558-.468-.631-1.3-.163-1.858ZM351.195,24.333c.418-.597,1.24-.742,1.837-.324.597.418.742,1.24.324,1.837s-1.24.742-1.836.324c-.597-.418-.742-1.24-.324-1.836ZM337.283,15.606c.364-.631,1.171-.846,1.801-.482.631.364.847,1.171.482,1.801-.364.631-1.17.847-1.801.483-.631-.364-.847-1.171-.482-1.802ZM322.662,8.125c.308-.66,1.093-.946,1.752-.638.66.308.946,1.093.638,1.753-.308.66-1.092.946-1.752.638-.66-.308-.946-1.093-.638-1.753ZM307.445,1.946c.249-.685,1.005-1.037,1.69-.788.684.249,1.037,1.005.788,1.69-.249.685-1.006,1.038-1.69.789s-1.037-1.006-.788-1.69ZM86.245,257.848c-.821,0-1.486-.666-1.486-1.487s.665-1.487,1.486-1.487,1.487.665,1.487,1.487-.665,1.487-1.487,1.487ZM86.245,232.159c-.821,0-1.486-.665-1.486-1.487s.665-1.486,1.486-1.486,1.487.665,1.487,1.486-.665,1.487-1.487,1.487ZM86.245,206.472c-.821,0-1.486-.666-1.486-1.487s.665-1.486,1.486-1.486,1.487.665,1.487,1.486-.665,1.487-1.487,1.487ZM86.245,180.784c-.821,0-1.486-.665-1.486-1.486s.665-1.487,1.486-1.487,1.487.666,1.487,1.487-.665,1.486-1.487,1.486ZM86.245,155.096c-.821,0-1.486-.665-1.486-1.487s.665-1.486,1.486-1.486,1.487.665,1.487,1.486-.665,1.487-1.487,1.487ZM86.245,129.408c-.821,0-1.486-.665-1.486-1.486s.665-1.487,1.486-1.487,1.487.665,1.487,1.487-.665,1.486-1.487,1.486ZM86.245,103.72c-.821,0-1.486-.665-1.486-1.487s.665-1.486,1.486-1.486,1.487.665,1.487,1.486-.665,1.487-1.487,1.487ZM90.846,288.355c-.596.418-1.419.273-1.836-.324s-.273-1.419.324-1.837,1.419-.273,1.837.324c.417.597.273,1.419-.324,1.837ZM100.936,301.314c-.558.468-1.39.396-1.858-.162-.468-.558-.396-1.39.162-1.858.558-.468,1.39-.395,1.858.162.468.558.395,1.39-.163,1.858ZM112.116,313.345c-.515.515-1.35.515-1.865,0-.515-.515-.515-1.35,0-1.865.515-.515,1.35-.515,1.865,0s.515,1.35,0,1.865ZM124.302,324.355c-.468.558-1.3.631-1.858.163s-.631-1.3-.163-1.858c.468-.557,1.3-.631,1.858-.162s.631,1.3.163,1.858ZM137.401,334.262c-.418.597-1.24.742-1.837.324-.597-.418-.742-1.24-.323-1.837.418-.597,1.24-.742,1.836-.324s.742,1.24.324,1.837ZM151.314,342.989c-.364.631-1.171.847-1.801.483-.631-.365-.847-1.171-.483-1.802.365-.631,1.171-.847,1.802-.482.631.364.846,1.17.482,1.801ZM165.934,350.47c-.308.66-1.093.946-1.753.638-.66-.308-.946-1.092-.638-1.752s1.093-.946,1.753-.638c.66.308.946,1.093.638,1.753ZM181.151,356.649c-.249.684-1.005,1.037-1.69.788-.684-.249-1.037-1.006-.788-1.69.249-.685,1.006-1.037,1.69-.789.684.249,1.037,1.006.788,1.691ZM402.351,257.848c-.821,0-1.486-.666-1.486-1.487s.665-1.487,1.486-1.487,1.487.665,1.487,1.487-.665,1.487-1.487,1.487ZM402.351,232.159c-.821,0-1.486-.665-1.486-1.487s.665-1.486,1.486-1.486,1.487.665,1.487,1.486-.665,1.487-1.487,1.487Z" fill="#282828"/>
      <path d="M331.232,257.558c-.37-.27-.613-.704-.613-1.197,0-.821.665-1.487,1.487-1.487.424,0,.804.18,1.075.465,17.536-20.468,28.147-47.037,28.147-76.041s-10.61-55.573-28.147-76.042c-.271.285-.651.465-1.075.465-.821,0-1.487-.665-1.487-1.487,0-.493.243-.927.613-1.197-21.436-23.788-52.467-38.769-86.935-38.769s-65.497,14.98-86.933,38.769c.37.27.613.704.613,1.197,0,.821-.666,1.487-1.487,1.487-.424,0-.804-.18-1.075-.465-17.536,20.468-28.146,47.038-28.146,76.042s10.61,55.572,28.146,76.041c.271-.285.651-.465,1.075-.465.821,0,1.487.665,1.487,1.487,0,.493-.244.927-.613,1.198,21.436,23.788,52.466,38.768,86.933,38.768s65.498-14.98,86.935-38.769ZM346.519,172.551l11.826,6.747-11.826,6.746v-13.493ZM332.106,126.435c.821,0,1.486.665,1.486,1.487s-.665,1.486-1.486,1.486-1.487-.665-1.487-1.486.665-1.487,1.487-1.487ZM332.106,152.123c.821,0,1.486.665,1.486,1.486s-.665,1.487-1.486,1.487-1.487-.665-1.487-1.487.665-1.486,1.487-1.486ZM332.106,177.811c.821,0,1.486.666,1.486,1.487s-.665,1.486-1.486,1.486-1.487-.665-1.487-1.486.665-1.487,1.487-1.487ZM332.106,203.499c.821,0,1.486.665,1.486,1.486s-.665,1.487-1.486,1.487-1.487-.666-1.487-1.487.665-1.486,1.487-1.486ZM332.106,229.186c.821,0,1.486.665,1.486,1.486s-.665,1.487-1.486,1.487-1.487-.665-1.487-1.487.665-1.486,1.487-1.486ZM142.078,186.044l-11.826-6.746,11.826-6.747v13.493ZM156.491,232.159c-.821,0-1.487-.665-1.487-1.487s.666-1.486,1.487-1.486,1.487.665,1.487,1.486-.666,1.487-1.487,1.487ZM156.491,206.472c-.821,0-1.487-.666-1.487-1.487s.666-1.486,1.487-1.486,1.487.665,1.487,1.486-.666,1.487-1.487,1.487ZM156.491,180.784c-.821,0-1.487-.665-1.487-1.486s.666-1.487,1.487-1.487,1.487.666,1.487,1.487-.666,1.486-1.487,1.486ZM156.491,155.096c-.821,0-1.487-.665-1.487-1.487s.666-1.486,1.487-1.486,1.487.665,1.487,1.486-.666,1.487-1.487,1.487ZM156.491,129.408c-.821,0-1.487-.665-1.487-1.486s.666-1.487,1.487-1.487,1.487.665,1.487,1.487-.666,1.486-1.487,1.486ZM261.86,283.535c-.821,0-1.486-.665-1.486-1.487s.665-1.486,1.486-1.486,1.486.665,1.486,1.486-.665,1.487-1.486,1.487ZM296.982,257.848c-.821,0-1.486-.666-1.486-1.487s.665-1.487,1.486-1.487,1.487.665,1.487,1.487-.665,1.487-1.487,1.487ZM301.409,236.798l-4.662-4.663c-.631-.101-1.126-.596-1.227-1.227l-9.493-9.493.391-.389,9.165,9.165c.201-.584.748-1.005,1.4-1.005.821,0,1.487.665,1.487,1.486,0,.652-.422,1.199-1.005,1.4l4.336,4.336-.391.389ZM296.982,177.811c.821,0,1.487.666,1.487,1.487s-.665,1.486-1.487,1.486-1.486-.665-1.486-1.486.665-1.487,1.486-1.487ZM295.496,153.609c0-.821.665-1.486,1.486-1.486s1.487.665,1.487,1.486-.665,1.487-1.487,1.487-1.486-.665-1.486-1.487ZM296.982,203.499c.821,0,1.487.665,1.487,1.486s-.665,1.487-1.487,1.487-1.486-.666-1.486-1.487.665-1.486,1.486-1.486ZM296.982,100.747c.821,0,1.487.665,1.487,1.486s-.665,1.487-1.487,1.487-1.486-.665-1.486-1.487.665-1.486,1.486-1.486ZM295.52,127.686c.101-.631.596-1.126,1.228-1.227l4.662-4.662.391.389-4.336,4.336c.584.201,1.005.748,1.005,1.4,0,.821-.665,1.486-1.487,1.486-.651,0-1.199-.422-1.4-1.005l-14.253,14.254-.391-.389,14.581-14.582ZM261.86,75.059c.821,0,1.486.666,1.486,1.487s-.665,1.487-1.486,1.487-1.486-.666-1.486-1.487.665-1.487,1.486-1.487ZM232.779,71.955h23.039v.55h-23.039v-.55ZM231.475,79.689h25.646v.55h-25.646v-.55ZM230.266,87.423h28.065v.55h-28.065v-.55ZM229.01,95.158h30.578v.55h-30.578v-.55ZM226.737,75.059c.821,0,1.486.666,1.486,1.487s-.665,1.487-1.486,1.487-1.487-.666-1.487-1.487.665-1.487,1.487-1.487ZM226.737,100.747c.821,0,1.486.665,1.486,1.486,0,.238-.06.459-.16.658h32.469c-.099-.199-.16-.42-.16-.658,0-.821.665-1.486,1.486-1.486s1.486.665,1.486,1.486-.665,1.487-1.486,1.487c-.395,0-.751-.157-1.018-.408v.129h-33.088v-.128c-.266.25-.622.407-1.016.407-.821,0-1.487-.665-1.487-1.487s.665-1.486,1.487-1.486ZM262.098,110.626v.55h-35.602v-.55h35.602ZM225.24,118.359h38.115v.55h-38.115v-.55ZM223.986,126.093h40.625v.55h-2.005c.441.258.74.731.74,1.279,0,.821-.665,1.486-1.486,1.486s-1.486-.665-1.486-1.486c0-.548.299-1.021.74-1.279h-33.63c.441.258.74.731.74,1.279,0,.821-.665,1.486-1.486,1.486s-1.487-.665-1.487-1.486c0-.548.299-1.021.741-1.279h-2.005v-.55ZM222.729,133.827h43.138v.55h-43.138v-.55ZM221.473,141.561h45.651v.55h-45.651v-.55ZM220.216,149.295h48.164v.55h-48.164v-.55ZM261.86,180.784c-.821,0-1.486-.665-1.486-1.486s.665-1.487,1.486-1.487,1.486.666,1.486,1.487-.665,1.486-1.486,1.486ZM263.346,204.985c0,.821-.665,1.487-1.486,1.487s-1.486-.666-1.486-1.487.665-1.486,1.486-1.486,1.486.665,1.486,1.486ZM261.86,155.096c-.821,0-1.486-.665-1.486-1.487s.665-1.486,1.486-1.486,1.486.665,1.486,1.486-.665,1.487-1.486,1.487ZM259.345,179.298c0,8.297-6.75,15.046-15.048,15.046s-15.045-6.749-15.045-15.046,6.748-15.048,15.045-15.048,15.048,6.75,15.048,15.048ZM226.737,180.784c-.821,0-1.487-.665-1.487-1.486s.665-1.487,1.487-1.487,1.486.666,1.486,1.487-.665,1.486-1.486,1.486ZM228.223,204.985c0,.821-.665,1.487-1.486,1.487s-1.487-.666-1.487-1.487.665-1.486,1.487-1.486,1.486.665,1.486,1.486ZM226.737,155.096c-.821,0-1.487-.665-1.487-1.487s.665-1.486,1.487-1.486,1.486.665,1.486,1.486-.665,1.487-1.486,1.487ZM191.613,100.747c.821,0,1.487.665,1.487,1.486s-.665,1.487-1.487,1.487-1.486-.665-1.486-1.487.665-1.486,1.486-1.486ZM191.613,257.848c-.821,0-1.486-.666-1.486-1.487s.665-1.487,1.486-1.487,1.487.665,1.487,1.487-.665,1.487-1.487,1.487ZM193.077,230.908c-.101.632-.597,1.127-1.228,1.228l-4.663,4.662-.391-.389,4.337-4.336c-.584-.201-1.005-.748-1.005-1.4,0-.821.665-1.486,1.486-1.486.652,0,1.199.422,1.4,1.005l14.254-14.252.391.389-14.581,14.58ZM191.613,177.811c.821,0,1.487.666,1.487,1.487s-.665,1.486-1.487,1.486-1.486-.665-1.486-1.486.665-1.487,1.486-1.487ZM190.127,153.609c0-.821.665-1.486,1.486-1.486s1.487.665,1.487,1.486-.665,1.487-1.487,1.487-1.486-.665-1.486-1.487ZM191.613,203.499c.821,0,1.487.665,1.487,1.486s-.665,1.487-1.487,1.487-1.486-.666-1.486-1.487.665-1.486,1.486-1.486ZM207.268,142.657l-14.254-14.253c-.201.583-.748,1.004-1.4,1.004-.821,0-1.486-.665-1.486-1.486,0-.651.421-1.199,1.004-1.4l-4.337-4.336.391-.389,4.662,4.662c.632.101,1.128.596,1.229,1.228l14.581,14.581-.391.389ZM220.216,208.749h48.164v.55h-48.164v-.55ZM221.473,216.483h45.651v.55h-45.651v-.55ZM222.729,224.217h43.138v.55h-43.138v-.55ZM223.986,231.951h2.004c-.441-.258-.74-.731-.74-1.279,0-.821.665-1.486,1.487-1.486s1.486.665,1.486,1.486c0,.548-.299,1.021-.74,1.279h33.63c-.441-.258-.74-.731-.74-1.279,0-.821.665-1.486,1.486-1.486s1.486.665,1.486,1.486c0,.548-.299,1.021-.74,1.279h2.005v.55h-40.625v-.55ZM225.24,239.686h38.115v.55h-38.115v-.55ZM262.098,247.42v.55h-35.602v-.55h35.602ZM226.737,283.535c-.821,0-1.487-.665-1.487-1.487s.665-1.486,1.487-1.486,1.486.665,1.486,1.486-.665,1.487-1.486,1.487ZM226.737,257.848c-.821,0-1.487-.666-1.487-1.487s.665-1.487,1.487-1.487c.394,0,.75.156,1.016.407v-.128h33.088v.129c.266-.251.623-.408,1.018-.408.821,0,1.486.665,1.486,1.487s-.665,1.487-1.486,1.487-1.486-.666-1.486-1.487c0-.237.06-.459.16-.658h-32.469c.099.199.16.421.16.658,0,.821-.665,1.487-1.486,1.487ZM229.01,262.887h30.578v.55h-30.578v-.55ZM230.266,270.622h28.065v.55h-28.065v-.55ZM231.475,278.356h25.646v.55h-25.646v-.55ZM232.779,286.09h23.039v.55h-23.039v-.55Z" fill="#282828"/>
      <polygon points="347.068 173.498 347.068 185.097 357.236 179.298 347.068 173.498" fill="#282828"/>
      <path d="M231.451,179.298c0,7.083,5.763,12.847,12.846,12.847s12.848-5.764,12.848-12.847-5.764-12.848-12.848-12.848-12.846,5.764-12.846,12.848Z" fill="#282828"/>
    </g>
  </g>
</svg>