<?xml version="1.0" encoding="UTF-8"?>
<svg id="Layer_2" data-name="Layer 2" xmlns="http://www.w3.org/2000/svg" viewBox="0 0 231.077 163.764">
  <g id="Bg">
    <g>
      <path d="M2.775,81.882C2.775,54.149,8.541,27.388,19.913,2.341l.207-.456-1.383-.63-.208.458C7.066,26.96,1.255,53.932,1.255,81.882s5.812,54.922,17.274,80.17l.208.457,1.384-.629-.207-.457C8.541,136.375,2.775,109.614,2.775,81.882Z" fill="#282828" stroke="#282828" stroke-linecap="round" stroke-linejoin="round" stroke-width="2.509"/>
      <path d="M212.549,1.712l-.208-.458-1.383.63.207.456c11.371,25.047,17.137,51.808,17.137,79.541s-5.766,54.494-17.137,79.542l-.207.457,1.384.629.208-.457c11.462-25.247,17.273-52.221,17.273-80.17s-5.812-54.923-17.273-80.17Z" fill="#282828" stroke="#282828" stroke-linecap="round" stroke-linejoin="round" stroke-width="2.509"/>
    </g>
    <polygon points="2.531 10.63 1.498 10.63 1.498 1.51 10.618 1.51 10.618 2.544 2.531 2.544 2.531 10.63" fill="#282828" stroke="#282828" stroke-miterlimit="10" stroke-width="1.004"/>
    <polygon points="229.579 162.253 220.46 162.253 220.46 161.22 228.546 161.22 228.546 153.134 229.579 153.134 229.579 162.253" fill="#282828" stroke="#282828" stroke-miterlimit="10" stroke-width="1.004"/>
    <polygon points="10.618 162.253 1.498 162.253 1.498 153.134 2.531 153.134 2.531 161.22 10.618 161.22 10.618 162.253" fill="#282828" stroke="#282828" stroke-miterlimit="10" stroke-width="1.004"/>
    <g>
      <path d="M192.526,101.239l-19.206-18.706,17.709-17.459c3.242-3.242,4.739-6.735,4.739-11.723v-17.459c0-3.991-1.995-8.231-4.739-11.224l-16.712-16.711c-3.492-3.492-6.983-4.988-11.972-4.988H48.112c-4.989,0-6.984,1.995-6.984,6.983v145.662c0,4.988,1.995,6.983,6.984,6.983h115.232c4.989,0,8.48-1.496,11.972-4.988l17.21-17.21c2.743-2.744,4.739-7.234,4.739-11.224v-16.212c0-4.988-1.496-8.481-4.739-11.723ZM74.553,125.584l-1.429-1.421,16.48-16.478,1.429,1.421-16.48,16.478ZM89.605,55.008l-16.48-16.479,1.429-1.421,16.48,16.479-1.429,1.421ZM117.367,92.926c-6.385,0-11.579-5.194-11.579-11.58s5.194-11.581,11.579-11.581,11.581,5.195,11.581,11.581-5.195,11.58-11.581,11.58ZM160.181,125.585l-12.665-12.665,1.429-1.421,12.663,12.663-1.427,1.422ZM145.13,55.009l-1.427-1.422,16.478-16.479,1.427,1.422-16.478,16.479Z" fill="#282828"/>
      <path d="M117.367,72.015c-5.145,0-9.33,4.186-9.33,9.332s4.185,9.331,9.33,9.331,9.332-4.186,9.332-9.331-4.186-9.332-9.332-9.332Z" fill="#282828"/>
    </g>
    <g>
      <path d="M18.086,93.315c-.437-3.768-.659-7.615-.659-11.433s.222-7.666.659-11.434l1.026.119c-.432,3.729-.652,7.536-.652,11.315s.22,7.585.652,11.314l-1.026.119Z" fill="#282828" stroke="#282828" stroke-miterlimit="10" stroke-width="1.004"/>
      <rect x="10.618" y="81.365" width="7.326" height="1.033" fill="#282828" stroke="#282828" stroke-miterlimit="10" stroke-width="1.004"/>
    </g>
    <g>
      <path d="M212.992,93.315l-1.027-.119c.433-3.732.653-7.538.653-11.314s-.22-7.583-.653-11.315l1.027-.119c.437,3.771.659,7.618.659,11.434s-.222,7.662-.659,11.433Z" fill="#282828" stroke="#282828" stroke-miterlimit="10" stroke-width="1.004"/>
      <rect x="213.134" y="81.365" width="7.326" height="1.033" fill="#282828" stroke="#282828" stroke-miterlimit="10" stroke-width="1.004"/>
    </g>
  </g>
</svg>