<?xml version="1.0" encoding="UTF-8"?>
<svg id="Layer_2" data-name="Layer 2" xmlns="http://www.w3.org/2000/svg" viewBox="0 0 467.491 386.406">
  <g id="Bg">
    <g>
      <path d="M26.526,314.464V71.941l49.736-48.788c5.684-5.684,5.684-10.895,0-17.053l-1.421-1.421c-6.158-6.157-11.369-6.157-17.053-.474L8.526,53.468C2.842,59.153,0,65.783,0,74.31v237.313c0,8.526,2.842,15.158,8.526,20.841l49.262,49.263c5.684,5.684,11.369,6.157,17.053,0l1.421-1.421c6.158-6.158,5.684-11.842,0-17.527l-49.736-48.315Z" fill="#282828"/>
      <path d="M327.846,192.638l27.944-27.55c5.116-5.116,7.478-10.627,7.478-18.498v-27.55c0-6.297-3.148-12.987-7.478-17.711l-26.37-26.369c-5.51-5.51-11.019-7.871-18.891-7.871h-180.254c-7.871,0-11.02,3.148-11.02,11.019v229.845c0,7.871,3.149,11.019,11.02,11.019h181.828c7.872,0,13.381-2.361,18.892-7.871l27.156-27.156c4.329-4.33,7.477-11.414,7.477-17.711v-25.582c0-7.871-2.361-13.382-7.477-18.498l-30.305-29.517ZM151.921,95.427h153.098l25.582,26.369.787,25.582-31.092,31.485h-148.375v-83.436ZM333.75,263.481l-26.763,27.156h-155.067v-83.436h148.375l34.241,33.453-.787,22.827Z" fill="#282828"/>
      <path d="M458.965,53.942l-49.263-49.263c-5.684-5.684-10.895-5.684-17.052,0l-1.421,1.421c-6.157,6.158-6.157,11.369-.473,17.053l50.21,48.788v242.523l-49.737,48.315c-6.157,6.158-6.157,10.895-.473,17.053l1.895,1.895c6.157,6.157,11.368,6.157,17.052.474l49.263-49.263c5.684-5.684,8.526-12.315,8.526-20.842V74.783c0-8.526-2.842-15.158-8.526-20.841Z" fill="#282828"/>
    </g>
  </g>
</svg>