<?xml version="1.0" encoding="UTF-8"?>
<svg xmlns="http://www.w3.org/2000/svg" viewBox="0 0 495.363 386.908">
  <g isolation="isolate">
    <g id="Layer_2" data-name="Layer 2">
      <g id="Bg">
        <g>
          <path d="M194.946,256.74c.758.007,1.272.55,1.455.996.125.307.146.617.028.93-.223.59-.637.977-1.267,1.049-.634.073-1.127-.219-1.46-.752-.39-.624-.223-1.295.227-1.74.308-.306.659-.482,1.019-.482ZM194.982,256.955c-.764.007-1.279.545-1.269,1.328.01.759.558,1.281,1.286,1.246.922-.045,1.256-.548,1.267-1.38.009-.68-.571-1.201-1.284-1.195Z" fill="#2b353a"/>
          <path d="M198.65,258.429c-.053.01-.105.019-.155.028-.184-.304-.296-.787-.296-1.259l-.008.006c.126.069.172.192.207.318.085.304.163.611.243.916l.008-.01Z" fill="#2b353a"/>
          <path d="M189.94,257.889c.007.014.019.027.019.041,0,.014-.013.027-.021.041-.007-.014-.02-.027-.019-.041,0-.014.013-.027.021-.041Z" fill="#2b353a"/>
          <path d="M198.199,257.199c-.018-.024-.037-.048-.055-.071.076-.011.028.054.048.078l.008-.006Z" fill="#2b353a"/>
          <path d="M194.865,258.202c.052-.042.078-.063.105-.085.086-.007.128.039.144.118-.016.03-.024.074-.049.088-.101.058-.163.017-.199-.121Z" fill="#2b353a"/>
          <path d="M72.148,22.673c0-11.455,4.583-16.038,16.038-16.038h262.32c11.455,0,19.474,3.436,27.49,11.455l38.376,38.376c6.3,6.872,10.883,16.61,10.883,25.773v40.092c0,11.455-3.436,19.474-10.883,26.921l-40.664,40.092,44.1,42.956c7.447,7.447,10.883,15.466,10.883,26.921v37.228c0,9.163-4.583,19.474-10.883,25.773l-39.52,39.52c-8.019,8.019-16.038,11.455-27.493,11.455H88.186c-11.455,0-16.038-4.583-16.038-16.038V22.673Z" fill="#282828"/>
          <rect x="57.122" y="122.391" width="381.121" height="142.127" fill="#163029" mix-blend-mode="screen" opacity=".5"/>
          <g>
            <g opacity=".7">
              <path d="M37.98,367.123C13.151,312.431.561,254.001.561,193.454S13.151,74.477,37.98,19.786l1.021.465C14.239,74.793,1.683,133.068,1.683,193.454s12.555,118.66,37.318,173.204l-1.021.465Z" fill="#163029"/>
            </g>
            <g opacity=".7">
              <path d="M457.384,367.123l-1.021-.465c24.762-54.543,37.317-112.818,37.317-173.204s-12.555-118.662-37.317-173.204l1.021-.465c24.828,54.69,37.418,113.12,37.418,173.669s-12.59,118.978-37.418,173.669Z" fill="#163029"/>
            </g>
            <polygon points="2.244 38.703 0 38.703 0 18.897 19.807 18.897 19.807 21.141 2.244 21.141 2.244 38.703" fill="#163029"/>
            <polygon points="495.363 38.703 493.119 38.703 493.119 21.141 475.556 21.141 475.556 18.897 495.363 18.897 495.363 38.703" fill="#163029"/>
            <polygon points="495.363 368.01 475.556 368.01 475.556 365.766 493.119 365.766 493.119 348.205 495.363 348.205 495.363 368.01" fill="#163029"/>
            <polygon points="19.807 368.01 0 368.01 0 348.205 2.244 348.205 2.244 365.766 19.807 365.766 19.807 368.01" fill="#163029"/>
            <path d="M247.681,208.809c-8.467,0-15.353-6.888-15.353-15.354s6.887-15.355,15.353-15.355,15.355,6.889,15.355,15.355-6.889,15.354-15.355,15.354ZM247.681,180.343c-7.228,0-13.109,5.882-13.109,13.111s5.88,13.11,13.109,13.11,13.111-5.882,13.111-13.11-5.883-13.111-13.111-13.111Z" fill="#fe3b1f"/>
            <g>
              <g opacity=".7">
                <polygon points="209.893 156.063 189.001 135.172 189.4 134.775 210.292 155.666 209.893 156.063" fill="#163029"/>
              </g>
              <g opacity=".7">
                <polygon points="189.4 252.132 189.001 251.735 209.893 230.846 210.292 231.242 189.4 252.132" fill="#163029"/>
              </g>
              <g opacity=".7">
                <polygon points="305.962 252.132 290.265 236.435 290.664 236.038 306.361 251.735 305.962 252.132" fill="#163029"/>
              </g>
              <g opacity=".7">
                <polygon points="285.471 156.063 285.072 155.666 305.962 134.775 306.361 135.172 285.471 156.063" fill="#163029"/>
              </g>
            </g>
            <g>
              <path d="M36.027,218.286c-.95-8.184-1.431-16.539-1.431-24.832s.481-16.649,1.431-24.833l2.229.259c-.939,8.099-1.416,16.367-1.416,24.574s.477,16.474,1.416,24.573l-2.229.259Z" fill="#163029"/>
              <rect x="19.807" y="192.332" width="15.911" height="2.244" fill="#163029"/>
            </g>
            <g>
              <path d="M459.337,218.286l-2.231-.259c.94-8.105,1.418-16.372,1.418-24.573s-.478-16.469-1.418-24.574l2.231-.259c.949,8.191,1.431,16.545,1.431,24.833s-.482,16.641-1.431,24.832Z" fill="#163029"/>
              <rect x="459.646" y="192.332" width="15.91" height="2.244" fill="#163029"/>
            </g>
          </g>
          <path d="M247.681,349.898c-41.788,0-81.073-16.273-110.622-45.821-29.547-29.549-45.82-68.836-45.82-110.623s16.273-81.074,45.82-110.623c29.549-29.549,68.834-45.822,110.622-45.822s81.076,16.273,110.623,45.822c29.547,29.548,45.821,68.835,45.821,110.623s-16.274,81.074-45.821,110.623c-29.547,29.548-68.834,45.821-110.623,45.821ZM247.681,37.571c-85.954,0-155.881,69.929-155.881,155.884s69.927,155.882,155.881,155.882,155.882-69.928,155.882-155.882S333.635,37.571,247.681,37.571Z" fill="#163029"/>
          <g>
            <path d="M97.13,193.454h-5.611c0,86.246,69.917,156.162,156.162,156.162v-5.61c-83.015,0-150.551-67.537-150.551-150.552Z" fill="#163029"/>
            <path d="M398.233,193.454h5.612c0-86.247-69.917-156.164-156.163-156.164,0,0,0,5.61,0,5.61,83.015,0,150.552,67.538,150.552,150.553Z" fill="#163029"/>
          </g>
          <g>
            <g>
              <g opacity=".7">
                <rect x="235.927" y="302.433" width="23.511" height=".561" fill="#163029"/>
              </g>
              <g opacity=".7">
                <rect x="234.596" y="294.54" width="26.172" height=".561" fill="#163029"/>
              </g>
              <g opacity=".7">
                <rect x="233.362" y="286.648" width="28.64" height=".561" fill="#163029"/>
              </g>
              <g opacity=".7">
                <rect x="232.08" y="278.755" width="31.204" height=".561" fill="#163029"/>
              </g>
              <g opacity=".7">
                <rect x="230.798" y="270.863" width="33.766" height=".561" fill="#163029"/>
              </g>
              <g opacity=".7">
                <rect x="229.516" y="262.971" width="36.331" height=".561" fill="#163029"/>
              </g>
              <g opacity=".7">
                <rect x="228.234" y="255.079" width="38.895" height=".561" fill="#163029"/>
              </g>
              <g opacity=".7">
                <rect x="226.954" y="247.186" width="41.457" height=".561" fill="#163029"/>
              </g>
              <g opacity=".7">
                <rect x="225.671" y="239.294" width="44.021" height=".561" fill="#163029"/>
              </g>
              <g opacity=".7">
                <rect x="224.389" y="231.401" width="46.586" height=".561" fill="#163029"/>
              </g>
              <g opacity=".7">
                <rect x="223.107" y="223.509" width="49.15" height=".561" fill="#163029"/>
              </g>
            </g>
            <g>
              <g opacity=".7">
                <rect x="235.927" y="83.913" width="23.511" height=".561" fill="#163029"/>
              </g>
              <g opacity=".7">
                <rect x="234.596" y="91.806" width="26.172" height=".561" fill="#163029"/>
              </g>
              <g opacity=".7">
                <rect x="233.362" y="99.698" width="28.64" height=".561" fill="#163029"/>
              </g>
              <g opacity=".7">
                <rect x="232.08" y="107.591" width="31.204" height=".561" fill="#163029"/>
              </g>
              <g opacity=".7">
                <rect x="230.798" y="115.483" width="33.766" height=".561" fill="#163029"/>
              </g>
              <g opacity=".7">
                <rect x="229.516" y="123.376" width="36.331" height=".561" fill="#163029"/>
              </g>
              <g opacity=".7">
                <rect x="228.234" y="131.267" width="38.895" height=".561" fill="#163029"/>
              </g>
              <g opacity=".7">
                <rect x="226.954" y="139.16" width="41.457" height=".561" fill="#163029"/>
              </g>
              <g opacity=".7">
                <rect x="225.671" y="147.052" width="44.021" height=".561" fill="#163029"/>
              </g>
              <g opacity=".7">
                <rect x="224.389" y="154.945" width="46.586" height=".561" fill="#163029"/>
              </g>
              <g opacity=".7">
                <rect x="223.107" y="162.838" width="49.15" height=".561" fill="#163029"/>
              </g>
            </g>
          </g>
          <g opacity=".7">
            <rect x="247.4" y="45.377" width=".561" height="9.212" fill="#163029"/>
          </g>
          <g opacity=".7">
            <polygon points="223.291 56.746 221.693 47.675 222.246 47.578 223.843 56.65 223.291 56.746" fill="#163029"/>
          </g>
          <g opacity=".7">
            <polygon points="199.925 63.06 196.773 54.403 197.299 54.211 200.451 62.867 199.925 63.06" fill="#163029"/>
          </g>
          <g opacity=".7">
            <rect x="175.666" y="64.598" width=".562" height="9.213" transform="translate(-11.027 97.261) rotate(-30.005)" fill="#163029"/>
          </g>
          <g opacity=".7">
            <polygon points="158.207 87.258 152.285 80.201 152.714 79.839 158.636 86.896 158.207 87.258" fill="#163029"/>
          </g>
          <g opacity=".7">
            <polygon points="141.126 104.408 134.069 98.486 134.428 98.057 141.486 103.979 141.126 104.408" fill="#163029"/>
          </g>
          <g opacity=".7">
            <rect x="123.151" y="117.112" width=".562" height="9.212" transform="translate(-43.695 167.755) rotate(-60)" fill="#163029"/>
          </g>
          <g opacity=".7">
            <polygon points="117.096 146.223 108.438 143.072 108.631 142.544 117.289 145.695 117.096 146.223" fill="#163029"/>
          </g>
          <g opacity=".7">
            <polygon points="110.879 169.617 101.806 168.017 101.903 167.464 110.975 169.064 110.879 169.617" fill="#163029"/>
          </g>
          <g opacity=".7">
            <rect x="99.605" y="193.174" width="9.212" height=".561" fill="#163029"/>
          </g>
          <g opacity=".7">
            <polygon points="101.903 219.443 101.806 218.891 110.879 217.291 110.975 217.843 101.903 219.443" fill="#163029"/>
          </g>
          <g opacity=".7">
            <polygon points="108.631 244.363 108.438 243.835 117.096 240.685 117.289 241.213 108.631 244.363" fill="#163029"/>
          </g>
          <g opacity=".7">
            <rect x="118.826" y="264.908" width="9.212" height=".562" transform="translate(-115.959 97.104) rotate(-29.966)" fill="#163029"/>
          </g>
          <g opacity=".7">
            <polygon points="134.428 288.851 134.069 288.421 141.126 282.499 141.486 282.928 134.428 288.851" fill="#163029"/>
          </g>
          <g opacity=".7">
            <polygon points="152.714 307.069 152.285 306.707 158.207 299.649 158.636 300.011 152.714 307.069" fill="#163029"/>
          </g>
          <g opacity=".7">
            <rect x="171.341" y="317.422" width="9.213" height=".562" transform="translate(-187.168 311.367) rotate(-60.022)" fill="#163029"/>
          </g>
          <g opacity=".7">
            <polygon points="197.299 332.697 196.773 332.504 199.925 323.847 200.451 324.04 197.299 332.697" fill="#163029"/>
          </g>
          <g opacity=".7">
            <polygon points="222.246 339.329 221.693 339.233 223.291 330.161 223.843 330.257 222.246 339.329" fill="#163029"/>
          </g>
          <g opacity=".7">
            <rect x="247.4" y="332.319" width=".561" height="9.212" fill="#163029"/>
          </g>
          <g opacity=".7">
            <polygon points="273.119 339.329 271.519 330.257 272.071 330.161 273.671 339.233 273.119 339.329" fill="#163029"/>
          </g>
          <g opacity=".7">
            <polygon points="298.065 332.697 294.914 324.04 295.439 323.847 298.591 332.504 298.065 332.697" fill="#163029"/>
          </g>
          <g opacity=".7">
            <rect x="319.137" y="313.097" width=".562" height="9.213" transform="translate(-116.067 202.309) rotate(-30.005)" fill="#163029"/>
          </g>
          <g opacity=".7">
            <polygon points="342.65 307.069 336.728 300.011 337.157 299.649 343.08 306.707 342.65 307.069" fill="#163029"/>
          </g>
          <g opacity=".7">
            <polygon points="360.936 288.851 353.878 282.928 354.238 282.499 361.295 288.421 360.936 288.851" fill="#163029"/>
          </g>
          <g opacity=".7">
            <rect x="371.651" y="260.583" width=".562" height="9.212" transform="translate(-43.694 454.697) rotate(-60)" fill="#163029"/>
          </g>
          <g opacity=".7">
            <polygon points="386.733 244.363 378.076 241.213 378.268 240.685 386.926 243.835 386.733 244.363" fill="#163029"/>
          </g>
          <g opacity=".7">
            <polygon points="393.462 219.443 384.388 217.843 384.484 217.291 393.558 218.891 393.462 219.443" fill="#163029"/>
          </g>
          <g opacity=".7">
            <rect x="386.547" y="193.174" width="9.212" height=".561" fill="#163029"/>
          </g>
          <g opacity=".7">
            <polygon points="384.484 169.617 384.388 169.064 393.462 167.464 393.558 168.017 384.484 169.617" fill="#163029"/>
          </g>
          <g opacity=".7">
            <rect x="377.894" y="144.102" width="9.213" height=".562" transform="translate(-26.318 139.87) rotate(-20.048)" fill="#163029"/>
          </g>
          <g opacity=".7">
            <rect x="367.326" y="121.438" width="9.212" height=".562" transform="translate(-11.077 202.048) rotate(-29.966)" fill="#163029"/>
          </g>
          <g opacity=".7">
            <polygon points="354.238 104.408 353.878 103.979 360.936 98.057 361.295 98.486 354.238 104.408" fill="#163029"/>
          </g>
          <g opacity=".7">
            <polygon points="337.157 87.258 336.728 86.896 342.65 79.839 343.08 80.201 337.157 87.258" fill="#163029"/>
          </g>
          <g opacity=".7">
            <rect x="314.811" y="68.924" width="9.213" height=".562" transform="translate(99.918 311.355) rotate(-60.034)" fill="#163029"/>
          </g>
          <g opacity=".7">
            <polygon points="295.439 63.06 294.914 62.867 298.065 54.211 298.591 54.403 295.439 63.06" fill="#163029"/>
          </g>
          <g opacity=".7">
            <polygon points="272.071 56.746 271.519 56.65 273.119 47.578 273.671 47.675 272.071 56.746" fill="#163029"/>
          </g>
          <g opacity=".7">
            <path d="M247.681,313.441c-66.16,0-119.986-53.826-119.986-119.987s53.825-119.988,119.986-119.988,119.988,53.826,119.988,119.988-53.827,119.987-119.988,119.987ZM247.681,74.027c-65.851,0-119.425,53.574-119.425,119.427s53.573,119.426,119.425,119.426,119.427-53.574,119.427-119.426-53.575-119.427-119.427-119.427Z" fill="#163029"/>
          </g>
          <g>
            <g>
              <path d="M249.028,1.346c0-.743-.603-1.346-1.346-1.346s-1.346.602-1.346,1.346.603,1.346,1.346,1.346,1.346-.602,1.346-1.346Z" fill="#163029"/>
              <path d="M265.766,2.194c.065-.74-.483-1.393-1.223-1.458-.74-.065-1.393.483-1.458,1.223-.065.74.483,1.393,1.223,1.458.74.065,1.393-.483,1.458-1.223Z" fill="#163029"/>
              <path d="M282.366,4.498c.129-.732-.36-1.43-1.092-1.559-.732-.129-1.43.36-1.559,1.092-.129.732.36,1.43,1.092,1.559s1.43-.36,1.559-1.092Z" fill="#163029"/>
              <path d="M298.703,8.24c.192-.718-.234-1.456-.952-1.648-.718-.192-1.456.234-1.648.952-.192.718.234,1.456.952,1.648.718.192,1.456-.234,1.648-.952Z" fill="#163029"/>
              <path d="M314.651,13.391c.254-.698-.106-1.471-.804-1.725-.698-.254-1.471.106-1.725.804-.254.698.106,1.471.804,1.725s1.471-.106,1.725-.804Z" fill="#163029"/>
              <path d="M330.09,19.914c.314-.674.023-1.474-.651-1.789-.674-.314-1.474-.023-1.788.651-.314.674-.023,1.474.651,1.789.674.314,1.474.023,1.788-.651Z" fill="#163029"/>
              <path d="M344.901,27.756c.372-.644.151-1.467-.492-1.838-.644-.372-1.467-.151-1.838.492-.372.644-.151,1.467.492,1.838.644.372,1.467.151,1.838-.492Z" fill="#163029"/>
              <path d="M358.973,36.86c.426-.609.278-1.448-.331-1.874-.609-.426-1.448-.278-1.874.331-.426.609-.278,1.448.331,1.874.609.426,1.448.278,1.874-.331Z" fill="#163029"/>
              <path d="M372.197,47.155c.478-.569.404-1.418-.166-1.896-.569-.478-1.418-.404-1.896.166-.478.569-.403,1.418.166,1.896.569.478,1.418.404,1.896-.166Z" fill="#163029"/>
              <path d="M384.474,58.564c.526-.526.526-1.378,0-1.903-.526-.526-1.378-.526-1.903,0-.525.526-.525,1.378,0,1.903.526.526,1.378.526,1.903,0Z" fill="#163029"/>
              <path d="M395.71,71c.569-.478.643-1.327.166-1.896-.478-.569-1.327-.643-1.896-.166-.569.478-.644,1.327-.166,1.896.478.569,1.327.644,1.896.166Z" fill="#163029"/>
              <path d="M405.819,84.367c.609-.426.757-1.265.33-1.874-.426-.609-1.265-.757-1.874-.33-.609.426-.757,1.265-.331,1.874.426.609,1.266.757,1.874.33Z" fill="#163029"/>
            </g>
            <g>
              <path d="M246.336,385.562c0,.743.603,1.346,1.346,1.346s1.346-.603,1.346-1.346-.603-1.346-1.346-1.346-1.346.603-1.346,1.346Z" fill="#163029"/>
              <path d="M229.598,384.713c-.065.74.483,1.393,1.223,1.458.74.065,1.393-.483,1.458-1.223.065-.74-.483-1.393-1.223-1.458-.74-.065-1.393.483-1.458,1.223Z" fill="#163029"/>
              <path d="M212.997,382.409c-.129.732.36,1.43,1.092,1.559.732.129,1.43-.36,1.559-1.092.129-.732-.36-1.43-1.092-1.559-.732-.129-1.43.36-1.559,1.092Z" fill="#163029"/>
              <path d="M196.661,378.667c-.193.718.234,1.456.952,1.648.718.192,1.456-.234,1.648-.952.192-.718-.234-1.456-.952-1.648-.718-.193-1.456.234-1.648.951Z" fill="#163029"/>
              <path d="M180.712,373.516c-.254.698.106,1.471.804,1.725.698.254,1.471-.106,1.725-.804.254-.698-.106-1.471-.804-1.725-.698-.254-1.471.106-1.725.804Z" fill="#163029"/>
              <path d="M165.274,366.994c-.314.674-.023,1.474.651,1.788.674.314,1.474.023,1.789-.651.314-.674.023-1.474-.651-1.789-.674-.314-1.474-.023-1.788.651Z" fill="#163029"/>
              <path d="M150.462,359.151c-.372.644-.151,1.467.493,1.838.644.372,1.467.151,1.838-.493.371-.644.151-1.467-.493-1.838-.644-.372-1.467-.151-1.838.493Z" fill="#163029"/>
              <path d="M136.391,350.047c-.426.609-.279,1.448.33,1.874.609.426,1.448.278,1.874-.33.426-.609.278-1.448-.33-1.874-.609-.426-1.448-.278-1.874.331Z" fill="#163029"/>
              <path d="M123.166,339.752c-.478.569-.404,1.418.166,1.896.569.478,1.418.404,1.896-.166s.404-1.418-.166-1.896-1.418-.404-1.896.166Z" fill="#163029"/>
              <path d="M110.889,328.343c-.526.526-.526,1.378,0,1.903.526.526,1.378.526,1.903,0,.526-.525.526-1.378,0-1.903-.526-.525-1.378-.525-1.903,0Z" fill="#163029"/>
              <path d="M99.654,315.907c-.569.478-.644,1.327-.166,1.896.478.569,1.326.644,1.896.166.569-.478.644-1.327.166-1.896-.478-.569-1.327-.643-1.896-.166Z" fill="#163029"/>
              <path d="M89.544,302.54c-.609.426-.757,1.265-.331,1.874.426.609,1.266.757,1.874.331.609-.426.757-1.266.331-1.874-.426-.609-1.266-.757-1.874-.331Z" fill="#163029"/>
            </g>
          </g>
          <path d="M143.369,200.339l-12.068-6.884,12.068-6.885v13.77ZM132.432,193.454l10.376,5.918v-11.837l-10.376,5.919Z" fill="#fe3b1f"/>
          <path d="M351.996,200.339v-13.77l12.068,6.885-12.068,6.884ZM352.557,187.535v11.837l10.376-5.918-10.376-5.919Z" fill="#fe3b1f"/>
          <g>
            <g>
              <path d="M87.909,114.812c0,.838-.679,1.517-1.517,1.517s-1.517-.679-1.517-1.517.679-1.517,1.517-1.517,1.517.679,1.517,1.517Z" fill="#163029"/>
              <path d="M123.751,114.812c0,.838-.679,1.517-1.517,1.517s-1.517-.679-1.517-1.517.679-1.517,1.517-1.517,1.517.679,1.517,1.517Z" fill="#163029"/>
              <path d="M159.593,114.812c0,.838-.679,1.517-1.517,1.517s-1.517-.679-1.517-1.517.679-1.517,1.517-1.517,1.517.679,1.517,1.517Z" fill="#163029"/>
              <path d="M195.436,114.812c0,.838-.679,1.517-1.517,1.517s-1.517-.679-1.517-1.517.679-1.517,1.517-1.517,1.517.679,1.517,1.517Z" fill="#163029"/>
              <path d="M231.278,114.812c0,.838-.679,1.517-1.517,1.517s-1.517-.679-1.517-1.517.679-1.517,1.517-1.517,1.517.679,1.517,1.517Z" fill="#163029"/>
              <path d="M267.12,114.812c0,.838-.679,1.517-1.517,1.517s-1.517-.679-1.517-1.517.679-1.517,1.517-1.517,1.517.679,1.517,1.517Z" fill="#163029"/>
              <path d="M302.962,114.812c0,.838-.679,1.517-1.517,1.517s-1.517-.679-1.517-1.517.679-1.517,1.517-1.517,1.517.679,1.517,1.517Z" fill="#163029"/>
              <path d="M338.804,114.812c0,.838-.679,1.517-1.517,1.517s-1.517-.679-1.517-1.517.679-1.517,1.517-1.517,1.517.679,1.517,1.517Z" fill="#163029"/>
              <path d="M374.647,114.812c0,.838-.679,1.517-1.517,1.517s-1.517-.679-1.517-1.517.679-1.517,1.517-1.517,1.517.679,1.517,1.517Z" fill="#163029"/>
              <path d="M410.489,114.812c0,.838-.679,1.517-1.517,1.517s-1.517-.679-1.517-1.517.679-1.517,1.517-1.517,1.517.679,1.517,1.517Z" fill="#163029"/>
            </g>
            <g>
              <path d="M52.067,141.026c0,.838-.679,1.517-1.517,1.517s-1.517-.679-1.517-1.517.679-1.517,1.517-1.517,1.517.679,1.517,1.517Z" fill="#163029"/>
              <path d="M87.909,141.026c0,.838-.679,1.517-1.517,1.517s-1.517-.679-1.517-1.517.679-1.517,1.517-1.517,1.517.679,1.517,1.517Z" fill="#163029"/>
              <path d="M123.751,141.026c0,.838-.679,1.517-1.517,1.517s-1.517-.679-1.517-1.517.679-1.517,1.517-1.517,1.517.679,1.517,1.517Z" fill="#163029"/>
              <path d="M159.593,141.026c0,.838-.679,1.517-1.517,1.517s-1.517-.679-1.517-1.517.679-1.517,1.517-1.517,1.517.679,1.517,1.517Z" fill="#163029"/>
              <path d="M195.436,141.026c0,.838-.679,1.517-1.517,1.517s-1.517-.679-1.517-1.517.679-1.517,1.517-1.517,1.517.679,1.517,1.517Z" fill="#163029"/>
              <path d="M231.278,141.026c0,.838-.679,1.517-1.517,1.517s-1.517-.679-1.517-1.517.679-1.517,1.517-1.517,1.517.679,1.517,1.517Z" fill="#163029"/>
              <path d="M267.12,141.026c0,.838-.679,1.517-1.517,1.517s-1.517-.679-1.517-1.517.679-1.517,1.517-1.517,1.517.679,1.517,1.517Z" fill="#163029"/>
              <path d="M231.278,88.598c0-.838-.679-1.517-1.517-1.517s-1.517.679-1.517,1.517.679,1.517,1.517,1.517,1.517-.679,1.517-1.517Z" fill="#163029"/>
              <path d="M267.12,88.598c0-.838-.679-1.517-1.517-1.517s-1.517.679-1.517,1.517.679,1.517,1.517,1.517,1.517-.679,1.517-1.517Z" fill="#163029"/>
              <path d="M302.962,141.026c0,.838-.679,1.517-1.517,1.517s-1.517-.679-1.517-1.517.679-1.517,1.517-1.517,1.517.679,1.517,1.517Z" fill="#163029"/>
              <path d="M338.804,141.026c0,.838-.679,1.517-1.517,1.517s-1.517-.679-1.517-1.517.679-1.517,1.517-1.517,1.517.679,1.517,1.517Z" fill="#163029"/>
              <path d="M374.647,141.026c0,.838-.679,1.517-1.517,1.517s-1.517-.679-1.517-1.517.679-1.517,1.517-1.517,1.517.679,1.517,1.517Z" fill="#163029"/>
              <path d="M410.489,141.026c0,.838-.679,1.517-1.517,1.517s-1.517-.679-1.517-1.517.679-1.517,1.517-1.517,1.517.679,1.517,1.517Z" fill="#163029"/>
              <path d="M446.331,141.026c0,.838-.679,1.517-1.517,1.517s-1.517-.679-1.517-1.517.679-1.517,1.517-1.517,1.517.679,1.517,1.517Z" fill="#163029"/>
            </g>
            <g>
              <path d="M52.067,167.24c0,.838-.679,1.517-1.517,1.517s-1.517-.679-1.517-1.517.679-1.517,1.517-1.517,1.517.679,1.517,1.517Z" fill="#163029"/>
              <path d="M87.909,167.24c0,.838-.679,1.517-1.517,1.517s-1.517-.679-1.517-1.517.679-1.517,1.517-1.517,1.517.679,1.517,1.517Z" fill="#163029"/>
              <circle cx="122.234" cy="167.24" r="1.517" fill="#163029"/>
              <path d="M159.593,167.24c0,.838-.679,1.517-1.517,1.517s-1.517-.679-1.517-1.517.679-1.517,1.517-1.517,1.517.679,1.517,1.517Z" fill="#163029"/>
              <path d="M195.436,167.24c0,.838-.679,1.517-1.517,1.517s-1.517-.679-1.517-1.517.679-1.517,1.517-1.517,1.517.679,1.517,1.517Z" fill="#163029"/>
              <path d="M231.278,167.24c0,.838-.679,1.517-1.517,1.517s-1.517-.679-1.517-1.517.679-1.517,1.517-1.517,1.517.679,1.517,1.517Z" fill="#163029"/>
              <circle cx="265.603" cy="167.24" r="1.517" fill="#163029"/>
              <path d="M302.962,167.24c0,.838-.679,1.517-1.517,1.517s-1.517-.679-1.517-1.517.679-1.517,1.517-1.517,1.517.679,1.517,1.517Z" fill="#163029"/>
              <path d="M338.804,167.24c0,.838-.679,1.517-1.517,1.517s-1.517-.679-1.517-1.517.679-1.517,1.517-1.517,1.517.679,1.517,1.517Z" fill="#163029"/>
              <path d="M374.647,167.24c0,.838-.679,1.517-1.517,1.517s-1.517-.679-1.517-1.517.679-1.517,1.517-1.517,1.517.679,1.517,1.517Z" fill="#163029"/>
              <circle cx="408.972" cy="167.24" r="1.517" fill="#163029"/>
              <path d="M446.331,167.24c0,.838-.679,1.517-1.517,1.517s-1.517-.679-1.517-1.517.679-1.517,1.517-1.517,1.517.679,1.517,1.517Z" fill="#163029"/>
            </g>
            <g>
              <path d="M52.067,193.454c0,.838-.679,1.517-1.517,1.517s-1.517-.679-1.517-1.517.679-1.517,1.517-1.517,1.517.679,1.517,1.517Z" fill="#163029"/>
              <path d="M87.909,193.454c0,.838-.679,1.517-1.517,1.517s-1.517-.679-1.517-1.517.679-1.517,1.517-1.517,1.517.679,1.517,1.517Z" fill="#163029"/>
              <path d="M13.19,193.454c0,.838.679,1.517,1.517,1.517s1.517-.679,1.517-1.517-.679-1.517-1.517-1.517-1.517.679-1.517,1.517Z" fill="#163029"/>
              <path d="M123.751,193.454c0,.838-.679,1.517-1.517,1.517s-1.517-.679-1.517-1.517.679-1.517,1.517-1.517,1.517.679,1.517,1.517Z" fill="#163029"/>
              <path d="M159.593,193.454c0,.838-.679,1.517-1.517,1.517s-1.517-.679-1.517-1.517.679-1.517,1.517-1.517,1.517.679,1.517,1.517Z" fill="#163029"/>
              <path d="M195.436,193.454c0,.838-.679,1.517-1.517,1.517s-1.517-.679-1.517-1.517.679-1.517,1.517-1.517,1.517.679,1.517,1.517Z" fill="#163029"/>
              <path d="M231.278,193.454c0,.838-.679,1.517-1.517,1.517s-1.517-.679-1.517-1.517.679-1.517,1.517-1.517,1.517.679,1.517,1.517Z" fill="#163029"/>
              <path d="M267.12,193.454c0,.838-.679,1.517-1.517,1.517s-1.517-.679-1.517-1.517.679-1.517,1.517-1.517,1.517.679,1.517,1.517Z" fill="#163029"/>
              <path d="M302.962,193.454c0,.838-.679,1.517-1.517,1.517s-1.517-.679-1.517-1.517.679-1.517,1.517-1.517,1.517.679,1.517,1.517Z" fill="#163029"/>
              <path d="M338.804,193.454c0,.838-.679,1.517-1.517,1.517s-1.517-.679-1.517-1.517.679-1.517,1.517-1.517,1.517.679,1.517,1.517Z" fill="#163029"/>
              <path d="M374.647,193.454c0,.838-.679,1.517-1.517,1.517s-1.517-.679-1.517-1.517.679-1.517,1.517-1.517,1.517.679,1.517,1.517Z" fill="#163029"/>
              <path d="M410.489,193.454c0,.838-.679,1.517-1.517,1.517s-1.517-.679-1.517-1.517.679-1.517,1.517-1.517,1.517.679,1.517,1.517Z" fill="#163029"/>
              <path d="M479.139,193.454c0,.838.679,1.517,1.517,1.517s1.517-.679,1.517-1.517-.679-1.517-1.517-1.517-1.517.679-1.517,1.517Z" fill="#163029"/>
              <path d="M446.331,193.454c0,.838-.679,1.517-1.517,1.517s-1.517-.679-1.517-1.517.679-1.517,1.517-1.517,1.517.679,1.517,1.517Z" fill="#163029"/>
            </g>
            <g>
              <path d="M52.067,219.667c0,.838-.679,1.517-1.517,1.517s-1.517-.679-1.517-1.517.679-1.517,1.517-1.517,1.517.679,1.517,1.517Z" fill="#163029"/>
              <path d="M87.909,219.667c0,.838-.679,1.517-1.517,1.517s-1.517-.679-1.517-1.517.679-1.517,1.517-1.517,1.517.679,1.517,1.517Z" fill="#163029"/>
              <path d="M123.751,219.667c0,.838-.679,1.517-1.517,1.517s-1.517-.679-1.517-1.517.679-1.517,1.517-1.517,1.517.679,1.517,1.517Z" fill="#163029"/>
              <path d="M159.593,219.667c0,.838-.679,1.517-1.517,1.517s-1.517-.679-1.517-1.517.679-1.517,1.517-1.517,1.517.679,1.517,1.517Z" fill="#163029"/>
              <path d="M195.436,219.667c0,.838-.679,1.517-1.517,1.517s-1.517-.679-1.517-1.517.679-1.517,1.517-1.517,1.517.679,1.517,1.517Z" fill="#163029"/>
              <path d="M231.278,219.667c0,.838-.679,1.517-1.517,1.517s-1.517-.679-1.517-1.517.679-1.517,1.517-1.517,1.517.679,1.517,1.517Z" fill="#163029"/>
              <path d="M267.12,219.667c0,.838-.679,1.517-1.517,1.517s-1.517-.679-1.517-1.517.679-1.517,1.517-1.517,1.517.679,1.517,1.517Z" fill="#163029"/>
              <path d="M302.962,219.667c0,.838-.679,1.517-1.517,1.517s-1.517-.679-1.517-1.517.679-1.517,1.517-1.517,1.517.679,1.517,1.517Z" fill="#163029"/>
              <path d="M338.804,219.667c0,.838-.679,1.517-1.517,1.517s-1.517-.679-1.517-1.517.679-1.517,1.517-1.517,1.517.679,1.517,1.517Z" fill="#163029"/>
              <path d="M374.647,219.667c0,.838-.679,1.517-1.517,1.517s-1.517-.679-1.517-1.517.679-1.517,1.517-1.517,1.517.679,1.517,1.517Z" fill="#163029"/>
              <path d="M410.489,219.667c0,.838-.679,1.517-1.517,1.517s-1.517-.679-1.517-1.517.679-1.517,1.517-1.517,1.517.679,1.517,1.517Z" fill="#163029"/>
              <path d="M446.331,219.667c0,.838-.679,1.517-1.517,1.517s-1.517-.679-1.517-1.517.679-1.517,1.517-1.517,1.517.679,1.517,1.517Z" fill="#163029"/>
            </g>
            <g>
              <path d="M52.067,245.881c0,.838-.679,1.517-1.517,1.517s-1.517-.679-1.517-1.517.679-1.517,1.517-1.517,1.517.679,1.517,1.517Z" fill="#163029"/>
              <path d="M87.909,245.881c0,.838-.679,1.517-1.517,1.517s-1.517-.679-1.517-1.517.679-1.517,1.517-1.517,1.517.679,1.517,1.517Z" fill="#163029"/>
              <circle cx="122.234" cy="245.881" r="1.517" fill="#163029"/>
              <path d="M159.593,245.881c0,.838-.679,1.517-1.517,1.517s-1.517-.679-1.517-1.517.679-1.517,1.517-1.517,1.517.679,1.517,1.517Z" fill="#163029"/>
              <path d="M195.436,245.881c0,.838-.679,1.517-1.517,1.517s-1.517-.679-1.517-1.517.679-1.517,1.517-1.517,1.517.679,1.517,1.517Z" fill="#163029"/>
              <path d="M231.278,245.881c0,.838-.679,1.517-1.517,1.517s-1.517-.679-1.517-1.517.679-1.517,1.517-1.517,1.517.679,1.517,1.517Z" fill="#163029"/>
              <circle cx="265.603" cy="245.881" r="1.517" fill="#163029"/>
              <path d="M231.278,298.309c0-.838-.679-1.517-1.517-1.517s-1.517.679-1.517,1.517.679,1.517,1.517,1.517,1.517-.679,1.517-1.517Z" fill="#163029"/>
              <path d="M267.12,298.309c0-.838-.679-1.517-1.517-1.517s-1.517.679-1.517,1.517.679,1.517,1.517,1.517,1.517-.679,1.517-1.517Z" fill="#163029"/>
              <path d="M302.962,245.881c0,.838-.679,1.517-1.517,1.517s-1.517-.679-1.517-1.517.679-1.517,1.517-1.517,1.517.679,1.517,1.517Z" fill="#163029"/>
              <path d="M338.804,245.881c0,.838-.679,1.517-1.517,1.517s-1.517-.679-1.517-1.517.679-1.517,1.517-1.517,1.517.679,1.517,1.517Z" fill="#163029"/>
              <path d="M374.647,245.881c0,.838-.679,1.517-1.517,1.517s-1.517-.679-1.517-1.517.679-1.517,1.517-1.517,1.517.679,1.517,1.517Z" fill="#163029"/>
              <circle cx="408.972" cy="245.881" r="1.517" fill="#163029"/>
              <path d="M446.331,245.881c0,.838-.679,1.517-1.517,1.517s-1.517-.679-1.517-1.517.679-1.517,1.517-1.517,1.517.679,1.517,1.517Z" fill="#163029"/>
            </g>
            <g>
              <path d="M87.909,272.095c0,.838-.679,1.517-1.517,1.517s-1.517-.679-1.517-1.517.679-1.517,1.517-1.517,1.517.679,1.517,1.517Z" fill="#163029"/>
              <path d="M123.751,272.095c0,.838-.679,1.517-1.517,1.517s-1.517-.679-1.517-1.517.679-1.517,1.517-1.517,1.517.679,1.517,1.517Z" fill="#163029"/>
              <path d="M159.593,272.095c0,.838-.679,1.517-1.517,1.517s-1.517-.679-1.517-1.517.679-1.517,1.517-1.517,1.517.679,1.517,1.517Z" fill="#163029"/>
              <path d="M195.436,272.095c0,.838-.679,1.517-1.517,1.517s-1.517-.679-1.517-1.517.679-1.517,1.517-1.517,1.517.679,1.517,1.517Z" fill="#163029"/>
              <path d="M231.278,272.095c0,.838-.679,1.517-1.517,1.517s-1.517-.679-1.517-1.517.679-1.517,1.517-1.517,1.517.679,1.517,1.517Z" fill="#163029"/>
              <path d="M267.12,272.095c0,.838-.679,1.517-1.517,1.517s-1.517-.679-1.517-1.517.679-1.517,1.517-1.517,1.517.679,1.517,1.517Z" fill="#163029"/>
              <path d="M302.962,272.095c0,.838-.679,1.517-1.517,1.517s-1.517-.679-1.517-1.517.679-1.517,1.517-1.517,1.517.679,1.517,1.517Z" fill="#163029"/>
              <path d="M338.804,272.095c0,.838-.679,1.517-1.517,1.517s-1.517-.679-1.517-1.517.679-1.517,1.517-1.517,1.517.679,1.517,1.517Z" fill="#163029"/>
              <path d="M374.647,272.095c0,.838-.679,1.517-1.517,1.517s-1.517-.679-1.517-1.517.679-1.517,1.517-1.517,1.517.679,1.517,1.517Z" fill="#163029"/>
              <path d="M410.489,272.095c0,.838-.679,1.517-1.517,1.517s-1.517-.679-1.517-1.517.679-1.517,1.517-1.517,1.517.679,1.517,1.517Z" fill="#163029"/>
            </g>
          </g>
        </g>
      </g>
    </g>
  </g>
</svg>