<?xml version="1.0" encoding="UTF-8"?>
<svg id="Layer_2" data-name="Layer 2" xmlns="http://www.w3.org/2000/svg" viewBox="0 0 298.017 231.257">
  <g id="Bg">
    <g>
      <path d="M46.047,15.853c0-6.847,2.739-9.586,9.586-9.586h156.79c6.847,0,11.64,2.054,16.431,6.847l22.937,22.937c3.765,4.107,6.505,9.928,6.505,15.405v23.963c0,6.847-2.054,11.64-6.505,16.091l-24.305,23.963,26.359,25.675c4.451,4.451,6.505,9.244,6.505,16.091v22.252c0,5.477-2.739,11.64-6.505,15.405l-23.621,23.621c-4.793,4.793-9.586,6.847-16.433,6.847H55.633c-6.847,0-9.586-2.739-9.586-9.586V15.853Z" fill="#282828"/>
      <path d="M3.276,115.629c0-35.907,7.466-70.557,22.189-102.986l.538-1.185-2.981-1.358-.539,1.188C7.564,44.147,0,79.252,0,115.629s7.564,71.481,22.482,104.341l.539,1.186,2.982-1.356-.538-1.186C10.742,186.185,3.276,151.535,3.276,115.629Z" fill="#282828"/>
      <path d="M275.536,11.287l-.539-1.187-2.982,1.358.538,1.185c14.723,32.428,22.188,67.077,22.188,102.986s-7.465,70.557-22.188,102.986l-.538,1.186,2.983,1.355.539-1.186c14.917-32.86,22.481-67.966,22.481-104.341s-7.564-71.482-22.481-104.342Z" fill="#282828"/>
      <polygon points="2.309 12.636 12.806 12.636 12.806 11.295 .968 11.295 .968 23.133 2.309 23.133 2.309 12.636" fill="#282828"/>
      <polygon points="295.708 23.133 297.05 23.133 297.05 11.295 285.211 11.295 285.211 12.636 295.708 12.636 295.708 23.133" fill="#282828"/>
      <polygon points="295.708 218.621 285.211 218.621 285.211 219.962 297.05 219.962 297.05 208.124 295.708 208.124 295.708 218.621" fill="#282828"/>
      <polygon points="2.309 208.124 .968 208.124 .968 219.962 12.806 219.962 12.806 218.621 2.309 218.621 2.309 208.124" fill="#282828"/>
      <path d="M22.501,100.786c-.542,4.671-.821,9.435-.846,14.172h-8.849v1.341h8.849c.025,4.736.303,9.5.846,14.171l1.332-.155c-.561-4.841-.846-9.782-.846-14.687s.285-9.848.846-14.688l-1.332-.155Z" fill="#282828"/>
      <path d="M275.517,130.471c.542-4.675.821-9.438.846-14.171h8.848v-1.341h-8.848c-.025-4.733-.304-9.497-.846-14.172l-1.333.155c.562,4.844.847,9.786.847,14.688s-.285,9.843-.847,14.687l1.333.155Z" fill="#282828"/>
      <path d="M31.182,83.385c-.501,0-.907.406-.907.907s.406.907.907.907.907-.406.907-.907-.406-.907-.907-.907Z" fill="#282828"/>
      <path d="M266.836,83.385c-.501,0-.907.406-.907.907s.406.907.907.907.907-.406.907-.907-.406-.907-.907-.907Z" fill="#282828"/>
      <path d="M31.182,99.054c-.501,0-.907.406-.907.907s.406.907.907.907.907-.406.907-.907-.406-.907-.907-.907Z" fill="#282828"/>
      <path d="M266.836,99.054c-.501,0-.907.406-.907.907s.406.907.907.907.907-.406.907-.907-.406-.907-.907-.907Z" fill="#282828"/>
      <path d="M31.182,114.722c-.501,0-.907.406-.907.907s.406.907.907.907.907-.406.907-.907-.406-.907-.907-.907Z" fill="#282828"/>
      <path d="M8.852,115.629c0,.501.406.907.907.907s.907-.406.907-.907-.406-.907-.907-.907-.907.406-.907.907Z" fill="#282828"/>
      <path d="M289.166,115.629c0-.501-.406-.907-.907-.907s-.907.406-.907.907.406.907.907.907.907-.406.907-.907Z" fill="#282828"/>
      <path d="M266.836,114.722c-.501,0-.907.406-.907.907s.406.907.907.907.907-.406.907-.907-.406-.907-.907-.907Z" fill="#282828"/>
      <path d="M31.182,130.39c-.501,0-.907.406-.907.907s.406.907.907.907.907-.406.907-.907-.406-.907-.907-.907Z" fill="#282828"/>
      <path d="M266.836,130.39c-.501,0-.907.406-.907.907s.406.907.907.907.907-.406.907-.907-.406-.907-.907-.907Z" fill="#282828"/>
      <path d="M31.182,146.058c-.501,0-.907.406-.907.907s.406.907.907.907.907-.406.907-.907-.406-.907-.907-.907Z" fill="#282828"/>
      <path d="M266.836,146.058c-.501,0-.907.406-.907.907s.406.907.907.907.907-.406.907-.907-.406-.907-.907-.907Z" fill="#282828"/>
      <g>
        <path d="M158.186,115.629c0-5.061-4.117-9.178-9.178-9.178s-9.177,4.117-9.177,9.178,4.116,9.177,9.177,9.177,9.178-4.117,9.178-9.177ZM141.173,115.629c0-4.321,3.515-7.837,7.835-7.837s7.837,3.516,7.837,7.837-3.516,7.836-7.837,7.836-7.835-3.516-7.835-7.836Z" fill="#d9e021"/>
        <path d="M117.728,146.671c-.122-.356-.456-.613-.854-.613-.501,0-.907.406-.907.907,0,.398.257.732.613.854l-2.645,2.645.239.237,2.844-2.844c.385-.062.687-.364.749-.749l8.894-8.893-.238-.237-8.694,8.693Z" fill="#d9e021"/>
        <path d="M181,83.4c-.385.062-.687.364-.749.748l-8.894,8.894.238.237,8.694-8.694c.122.356.457.613.854.613.501,0,.907-.406.907-.907,0-.398-.257-.732-.613-.854l2.645-2.645-.238-.237-2.844,2.844Z" fill="#d9e021"/>
        <path d="M149.008,22.121c-24.977,0-48.458,9.726-66.12,27.388-17.661,17.661-27.387,41.143-27.387,66.12s9.726,48.458,27.387,66.12c17.662,17.661,41.143,27.388,66.12,27.388s48.459-9.726,66.12-27.388c17.66-17.661,27.387-41.143,27.387-66.12s-9.727-48.459-27.387-66.12c-17.661-17.662-41.143-27.388-66.12-27.388ZM149.008,208.801v-3.186c-49.619,0-89.985-40.367-89.985-89.986h-3.186c0-51.375,41.796-93.173,93.171-93.173h0c0,.673,0,3.186,0,3.186,49.619,0,89.986,40.368,89.986,89.987h3.186c0,51.375-41.797,93.172-93.172,93.172Z" fill="#d9e021"/>
        <rect x="141.983" y="180.766" width="14.053" height=".335" fill="#d9e021"/>
        <rect x="141.188" y="176.049" width="15.643" height=".335" fill="#d9e021"/>
        <rect x="140.45" y="171.332" width="17.118" height=".335" fill="#d9e021"/>
        <rect x="139.684" y="166.614" width="18.651" height=".336" fill="#d9e021"/>
        <rect x="138.151" y="157.18" width="21.715" height=".335" fill="#d9e021"/>
        <rect x="137.384" y="152.462" width="23.248" height=".335" fill="#d9e021"/>
        <rect x="135.853" y="143.027" width="26.312" height=".335" fill="#d9e021"/>
        <rect x="135.087" y="138.31" width="27.845" height=".335" fill="#d9e021"/>
        <rect x="134.32" y="133.593" width="29.377" height=".335" fill="#d9e021"/>
        <rect x="141.983" y="50.156" width="14.053" height=".335" fill="#d9e021"/>
        <rect x="141.188" y="54.873" width="15.643" height=".335" fill="#d9e021"/>
        <rect x="140.45" y="59.59" width="17.118" height=".336" fill="#d9e021"/>
        <rect x="139.684" y="64.308" width="18.651" height=".335" fill="#d9e021"/>
        <rect x="138.151" y="73.743" width="21.715" height=".335" fill="#d9e021"/>
        <rect x="137.384" y="78.459" width="23.248" height=".335" fill="#d9e021"/>
        <rect x="135.853" y="87.894" width="26.312" height=".335" fill="#d9e021"/>
        <rect x="135.087" y="92.612" width="27.845" height=".335" fill="#d9e021"/>
        <rect x="134.32" y="97.329" width="29.377" height=".335" fill="#d9e021"/>
        <rect x="148.841" y="27.122" width=".335" height="5.506" fill="#d9e021"/>
        <rect x="133.95" y="28.425" width=".335" height="5.506" transform="translate(-3.375 23.738) rotate(-9.99)" fill="#d9e021"/>
        <polygon points="120.778 37.576 118.895 32.402 118.58 32.517 120.464 37.691 120.778 37.576" fill="#d9e021"/>
        <rect x="105.965" y="38.61" width=".336" height="5.507" transform="translate(-6.461 58.619) rotate(-30.006)" fill="#d9e021"/>
        <polygon points="95.786 51.938 92.246 47.72 91.989 47.936 95.529 52.154 95.786 51.938" fill="#d9e021"/>
        <polygon points="85.535 62.149 81.316 58.609 81.102 58.866 85.32 62.406 85.535 62.149" fill="#d9e021"/>
        <rect x="74.576" y="69.999" width=".336" height="5.506" transform="translate(-25.633 101.106) rotate(-60)" fill="#d9e021"/>
        <polygon points="65.782 85.515 70.957 87.398 71.072 87.083 65.897 85.199 65.782 85.515" fill="#d9e021"/>
        <polygon points="67.298 101.051 61.875 100.095 61.818 100.425 67.241 101.381 67.298 101.051" fill="#d9e021"/>
        <rect x="60.502" y="115.461" width="5.506" height=".335" fill="#d9e021"/>
        <polygon points="67.241 129.876 61.818 130.832 61.875 131.163 67.298 130.206 67.241 129.876" fill="#d9e021"/>
        <polygon points="65.782 145.742 65.897 146.058 71.072 144.175 70.957 143.859 65.782 145.742" fill="#d9e021"/>
        <rect x="71.991" y="158.337" width="5.506" height=".336" transform="translate(-69.182 58.525) rotate(-29.967)" fill="#d9e021"/>
        <polygon points="81.102 172.391 81.316 172.648 85.535 169.108 85.32 168.852 81.102 172.391" fill="#d9e021"/>
        <polygon points="91.989 183.321 92.246 183.537 95.786 179.319 95.529 179.103 91.989 183.321" fill="#d9e021"/>
        <rect x="103.379" y="189.725" width="5.507" height=".336" transform="translate(-111.388 186.985) rotate(-60.033)" fill="#d9e021"/>
        <polygon points="118.58 198.74 118.895 198.855 120.778 193.681 120.464 193.566 118.58 198.74" fill="#d9e021"/>
        <polygon points="133.475 202.762 133.805 202.819 134.76 197.397 134.43 197.34 133.475 202.762" fill="#d9e021"/>
        <rect x="148.841" y="198.629" width=".335" height="5.506" fill="#d9e021"/>
        <polygon points="163.256 197.397 164.213 202.819 164.543 202.762 163.586 197.34 163.256 197.397" fill="#d9e021"/>
        <polygon points="177.24 193.681 179.123 198.855 179.438 198.74 177.554 193.566 177.24 193.681" fill="#d9e021"/>
        <rect x="191.718" y="187.14" width=".336" height="5.507" transform="translate(-69.245 121.409) rotate(-30.006)" fill="#d9e021"/>
        <polygon points="202.232 179.319 205.772 183.537 206.029 183.321 202.489 179.103 202.232 179.319" fill="#d9e021"/>
        <polygon points="212.483 169.108 216.702 172.648 216.916 172.391 212.698 168.852 212.483 169.108" fill="#d9e021"/>
        <rect x="223.106" y="155.752" width=".336" height="5.506" transform="translate(-25.632 272.614) rotate(-60)" fill="#d9e021"/>
        <polygon points="226.946 144.175 232.121 146.058 232.236 145.742 227.061 143.859 226.946 144.175" fill="#d9e021"/>
        <polygon points="230.719 130.206 236.142 131.163 236.2 130.832 230.777 129.876 230.719 130.206" fill="#d9e021"/>
        <rect x="232.009" y="115.461" width="5.506" height=".335" fill="#d9e021"/>
        <polygon points="230.777 101.381 236.2 100.425 236.142 100.095 230.719 101.051 230.777 101.381" fill="#d9e021"/>
        <polygon points="232.236 85.515 232.121 85.199 226.946 87.083 227.061 87.398 232.236 85.515" fill="#d9e021"/>
        <rect x="220.521" y="72.584" width="5.506" height=".336" transform="translate(-6.471 121.347) rotate(-29.991)" fill="#d9e021"/>
        <polygon points="216.916 58.866 216.702 58.609 212.483 62.149 212.698 62.406 216.916 58.866" fill="#d9e021"/>
        <polygon points="206.029 47.936 205.772 47.72 202.232 51.938 202.489 52.154 206.029 47.936" fill="#d9e021"/>
        <rect x="189.132" y="41.196" width="5.507" height=".336" transform="translate(60.204 186.935) rotate(-60.033)" fill="#d9e021"/>
        <polygon points="179.438 32.517 179.123 32.402 177.24 37.576 177.554 37.691 179.438 32.517" fill="#d9e021"/>
        <polygon points="164.543 28.496 164.213 28.438 163.256 33.86 163.586 33.918 164.543 28.496" fill="#d9e021"/>
        <path d="M149.009,1.609c.444,0,.804-.36.804-.804s-.36-.804-.804-.804-.804.36-.804.804.36.804.804.804Z" fill="#d9e021"/>
        <path d="M158.946,2.042c.443.039.833-.289.871-.731.039-.442-.289-.833-.731-.871-.442-.039-.833.289-.871.731-.039.442.289.833.731.872Z" fill="#d9e021"/>
        <path d="M168.808,3.341c.437.077.855-.215.932-.653s-.215-.855-.652-.932-.855.215-.932.652.215.855.653.932Z" fill="#d9e021"/>
        <path d="M178.519,5.494c.429.115.87-.14.985-.569.115-.429-.14-.87-.569-.985-.429-.115-.87.14-.985.569s.14.87.569.985Z" fill="#d9e021"/>
        <path d="M188.006,8.485c.417.152.879-.063,1.031-.481.152-.417-.063-.879-.481-1.031-.417-.152-.879.063-1.031.481-.152.417.063.879.481,1.031Z" fill="#d9e021"/>
        <path d="M197.196,12.291c.403.188.881.013,1.069-.389.188-.403.014-.881-.389-1.069-.403-.188-.881-.014-1.069.389-.188.403-.014.881.389,1.069Z" fill="#d9e021"/>
        <path d="M206.019,16.884c.385.222.877.09,1.099-.295.222-.385.09-.877-.294-1.099s-.877-.09-1.099.294c-.222.385-.09.877.294,1.099Z" fill="#d9e021"/>
        <path d="M215.528,22.031c.255-.364.166-.865-.198-1.12-.364-.254-.865-.166-1.12.198-.255.364-.166.865.198,1.12.364.255.865.166,1.12-.198Z" fill="#d9e021"/>
        <path d="M223.433,28.185c.285-.34.241-.848-.099-1.133-.34-.286-.848-.241-1.133.099-.285.34-.241.848.099,1.133.34.286.848.241,1.133-.099Z" fill="#d9e021"/>
        <path d="M230.771,35.004c.314-.314.314-.824,0-1.138-.314-.314-.823-.314-1.138,0-.314.314-.314.824,0,1.138.314.314.823.314,1.138,0Z" fill="#d9e021"/>
        <path d="M237.486,42.437c.34-.286.385-.793.099-1.133-.285-.34-.793-.385-1.133-.099s-.385.793-.099,1.133c.285.34.793.385,1.133.099Z" fill="#d9e021"/>
        <path d="M242.606,49.109c-.364.255-.452.756-.198,1.12s.756.452,1.12.198.452-.756.198-1.12-.756-.452-1.12-.198Z" fill="#d9e021"/>
        <path d="M149.009,229.648c-.444,0-.804.36-.804.804s.36.804.804.804.804-.36.804-.804-.36-.804-.804-.804Z" fill="#d9e021"/>
        <path d="M139.071,229.215c-.442-.039-.833.289-.871.731-.039.442.289.833.731.872.443.038.833-.289.871-.731.039-.442-.289-.833-.731-.872Z" fill="#d9e021"/>
        <path d="M129.209,227.916c-.437-.077-.855.215-.932.653-.077.438.215.855.653.932.437.077.855-.215.932-.653.077-.437-.215-.855-.652-.932Z" fill="#d9e021"/>
        <path d="M119.498,225.764c-.429-.115-.87.14-.985.568-.115.429.14.87.569.985.429.115.87-.14.985-.569.115-.429-.14-.87-.569-.985Z" fill="#d9e021"/>
        <path d="M110.012,222.772c-.417-.152-.879.063-1.031.481-.152.417.063.879.481,1.031.417.152.879-.063,1.031-.481.152-.418-.063-.879-.481-1.031Z" fill="#d9e021"/>
        <path d="M100.822,218.966c-.403-.188-.881-.013-1.069.389s-.014.881.389,1.069c.403.188.881.014,1.069-.389.188-.402.014-.881-.389-1.069Z" fill="#d9e021"/>
        <path d="M91.999,214.373c-.385-.222-.877-.09-1.099.294-.222.385-.09.877.295,1.099.385.222.877.09,1.099-.295.222-.385.09-.877-.294-1.099Z" fill="#d9e021"/>
        <path d="M82.489,209.226c-.255.364-.167.866.197,1.12.364.255.866.166,1.12-.198s.166-.866-.198-1.12-.865-.166-1.12.198Z" fill="#d9e021"/>
        <path d="M74.585,203.072c-.285.34-.241.848.099,1.133.34.286.848.241,1.133-.099.285-.34.241-.847-.099-1.133-.34-.286-.848-.241-1.133.099Z" fill="#d9e021"/>
        <path d="M67.247,196.253c-.314.314-.314.823,0,1.138s.823.314,1.138,0,.314-.824,0-1.138c-.314-.314-.823-.314-1.138,0Z" fill="#d9e021"/>
        <path d="M60.531,188.82c-.34.286-.385.793-.099,1.133s.793.385,1.133.099.385-.793.099-1.133c-.285-.34-.793-.384-1.133-.099Z" fill="#d9e021"/>
        <path d="M54.489,180.83c-.364.255-.452.756-.198,1.12.255.364.756.452,1.12.198.364-.255.452-.756.198-1.12-.255-.364-.756-.452-1.12-.198Z" fill="#d9e021"/>
        <path d="M86.66,119.744v-8.23l-7.213,4.116,7.213,4.115ZM86.325,119.166l-6.202-3.537,6.202-3.538v7.075Z" fill="#d9e021"/>
        <path d="M211.358,111.513v8.23l7.213-4.115-7.213-4.116ZM211.693,112.091l6.202,3.538-6.202,3.537v-7.075Z" fill="#d9e021"/>
        <path d="M52.605,67.717c-.501,0-.907.406-.907.907s.406.907.907.907.907-.406.907-.907-.406-.907-.907-.907Z" fill="#d9e021"/>
        <path d="M74.028,69.531c.501,0,.907-.406.907-.907s-.406-.907-.907-.907-.907.406-.907.907.406.907.907.907Z" fill="#d9e021"/>
        <path d="M116.874,69.531c.501,0,.907-.406.907-.907s-.406-.907-.907-.907-.907.406-.907.907.406.907.907.907Z" fill="#d9e021"/>
        <path d="M138.297,69.531c.24,0,.458-.095.62-.248v.078h20.182v-.079c.162.153.38.249.621.249.501,0,.907-.406.907-.907s-.406-.907-.907-.907-.907.406-.907.907c0,.145.037.28.097.401h-19.805c.06-.122.097-.256.097-.401,0-.501-.406-.907-.907-.907s-.907.406-.907.907.406.907.907.907Z" fill="#d9e021"/>
        <path d="M181.143,69.531c.501,0,.907-.406.907-.907s-.406-.907-.907-.907-.907.406-.907.907.406.907.907.907Z" fill="#d9e021"/>
        <path d="M203.473,68.624c0-.501-.406-.907-.907-.907-.075,0-.147.011-.216.029-13.139-14.622-32.184-23.835-53.342-23.835s-40.203,9.213-53.341,23.835c-.07-.017-.141-.029-.216-.029-.501,0-.907.406-.907.907,0,.115.024.225.063.327-10.787,12.554-17.315,28.867-17.315,46.678s6.529,34.124,17.315,46.678c-.039.101-.063.211-.063.326,0,.501.406.907.907.907.075,0,.146-.012.216-.029,13.139,14.622,32.183,23.835,53.342,23.835s40.204-9.213,53.342-23.835c.07.017.141.029.216.029.501,0,.907-.406.907-.907,0-.115-.024-.225-.063-.327,10.787-12.554,17.315-28.867,17.315-46.678s-6.529-34.125-17.315-46.678c.039-.101.063-.211.063-.327ZM220.391,115.629c0,17.691-6.472,33.896-17.168,46.381-.165-.174-.397-.283-.656-.283-.501,0-.907.406-.907.907,0,.301.148.566.374.73-13.075,14.51-32.002,23.647-53.025,23.647s-39.95-9.137-53.024-23.647c.226-.165.374-.43.374-.731,0-.501-.406-.907-.907-.907-.259,0-.491.11-.656.283-10.696-12.485-17.168-28.69-17.168-46.381s6.471-33.897,17.168-46.382c.165.174.397.283.656.283.501,0,.907-.406.907-.907,0-.301-.148-.566-.374-.73,13.075-14.51,32.002-23.647,53.024-23.647s39.95,9.137,53.025,23.647c-.226.165-.374.43-.374.73,0,.501.406.907.907.907.259,0,.491-.11.656-.283,10.697,12.485,17.168,28.691,17.168,46.382Z" fill="#d9e021"/>
        <path d="M223.99,69.531c.501,0,.907-.406.907-.907s-.406-.907-.907-.907-.907.406-.907.907.406.907.907.907Z" fill="#d9e021"/>
        <path d="M245.413,69.531c.501,0,.907-.406.907-.907s-.406-.907-.907-.907-.907.406-.907.907.406.907.907.907Z" fill="#d9e021"/>
        <path d="M52.605,83.385c-.501,0-.907.406-.907.907s.406.907.907.907.907-.406.907-.907-.406-.907-.907-.907Z" fill="#d9e021"/>
        <path d="M74.028,85.199c.501,0,.907-.406.907-.907s-.406-.907-.907-.907-.907.406-.907.907.406.907.907.907Z" fill="#d9e021"/>
        <path d="M95.451,83.385c-.501,0-.907.406-.907.907s.406.907.907.907.907-.406.907-.907-.406-.907-.907-.907Z" fill="#d9e021"/>
        <path d="M117.017,83.4l-2.844-2.844-.239.237,2.645,2.645c-.356.123-.613.457-.613.854,0,.501.406.907.907.907.397,0,.731-.257.854-.613l8.694,8.694.238-.237-8.894-8.894c-.062-.386-.364-.688-.749-.749Z" fill="#d9e021"/>
        <path d="M137.39,84.292c0,.501.406.907.907.907s.907-.406.907-.907c0-.334-.183-.623-.452-.78h20.513c-.269.157-.452.446-.452.78,0,.501.406.907.907.907s.907-.406.907-.907c0-.334-.183-.623-.451-.78h1.223v-.336h-24.779v.336h1.223c-.269.157-.452.446-.452.78Z" fill="#d9e021"/>
        <circle cx="138.297" cy="52.956" r=".907" fill="#d9e021"/>
        <path d="M159.72,53.863c.501,0,.907-.406.907-.907s-.406-.907-.907-.907-.907.406-.907.907.406.907.907.907Z" fill="#d9e021"/>
        <path d="M202.567,83.385c-.501,0-.907.406-.907.907s.406.907.907.907.907-.406.907-.907-.406-.907-.907-.907Z" fill="#d9e021"/>
        <path d="M223.99,85.199c.501,0,.907-.406.907-.907s-.406-.907-.907-.907-.907.406-.907.907.406.907.907.907Z" fill="#d9e021"/>
        <path d="M245.413,83.385c-.501,0-.907.406-.907.907s.406.907.907.907.907-.406.907-.907-.406-.907-.907-.907Z" fill="#d9e021"/>
        <path d="M52.605,99.054c-.501,0-.907.406-.907.907s.406.907.907.907.907-.406.907-.907-.406-.907-.907-.907Z" fill="#d9e021"/>
        <path d="M74.028,100.867c.501,0,.907-.406.907-.907s-.406-.907-.907-.907-.907.406-.907.907.406.907.907.907Z" fill="#d9e021"/>
        <path d="M95.451,99.054c-.501,0-.907.406-.907.907s.406.907.907.907.907-.406.907-.907-.406-.907-.907-.907Z" fill="#d9e021"/>
        <path d="M116.874,100.867c.501,0,.907-.406.907-.907s-.406-.907-.907-.907-.907.406-.907.907.406.907.907.907Z" fill="#d9e021"/>
        <path d="M138.297,100.867c.501,0,.907-.406.907-.907s-.406-.907-.907-.907-.907.406-.907.907.406.907.907.907Z" fill="#d9e021"/>
        <path d="M159.72,100.867c.501,0,.907-.406.907-.907s-.406-.907-.907-.907-.907.406-.907.907.406.907.907.907Z" fill="#d9e021"/>
        <path d="M181.143,100.867c.501,0,.907-.406.907-.907s-.406-.907-.907-.907-.907.406-.907.907.406.907.907.907Z" fill="#d9e021"/>
        <path d="M202.567,99.054c-.501,0-.907.406-.907.907s.406.907.907.907.907-.406.907-.907-.406-.907-.907-.907Z" fill="#d9e021"/>
        <path d="M223.99,100.867c.501,0,.907-.406.907-.907s-.406-.907-.907-.907-.907.406-.907.907.406.907.907.907Z" fill="#d9e021"/>
        <path d="M245.413,99.054c-.501,0-.907.406-.907.907s.406.907.907.907.907-.406.907-.907-.406-.907-.907-.907Z" fill="#d9e021"/>
        <path d="M52.605,114.722c-.501,0-.907.406-.907.907s.406.907.907.907.907-.406.907-.907-.406-.907-.907-.907Z" fill="#d9e021"/>
        <path d="M74.028,116.535c.501,0,.907-.406.907-.907s-.406-.907-.907-.907-.907.406-.907.907.406.907.907.907Z" fill="#d9e021"/>
        <path d="M95.451,114.722c-.501,0-.907.406-.907.907s.406.907.907.907.907-.406.907-.907-.406-.907-.907-.907Z" fill="#d9e021"/>
        <path d="M116.874,116.535c.501,0,.907-.406.907-.907s-.406-.907-.907-.907-.907.406-.907.907.406.907.907.907Z" fill="#d9e021"/>
        <path d="M138.297,116.535c.501,0,.907-.406.907-.907s-.406-.907-.907-.907-.907.406-.907.907.406.907.907.907Z" fill="#d9e021"/>
        <path d="M159.72,116.535c.501,0,.907-.406.907-.907s-.406-.907-.907-.907-.907.406-.907.907.406.907.907.907Z" fill="#d9e021"/>
        <path d="M181.143,116.535c.501,0,.907-.406.907-.907s-.406-.907-.907-.907-.907.406-.907.907.406.907.907.907Z" fill="#d9e021"/>
        <path d="M202.567,114.722c-.501,0-.907.406-.907.907s.406.907.907.907.907-.406.907-.907-.406-.907-.907-.907Z" fill="#d9e021"/>
        <path d="M223.99,116.535c.501,0,.907-.406.907-.907s-.406-.907-.907-.907-.907.406-.907.907.406.907.907.907Z" fill="#d9e021"/>
        <path d="M245.413,114.722c-.501,0-.907.406-.907.907s.406.907.907.907.907-.406.907-.907-.406-.907-.907-.907Z" fill="#d9e021"/>
        <path d="M52.605,130.39c-.501,0-.907.406-.907.907s.406.907.907.907.907-.406.907-.907-.406-.907-.907-.907Z" fill="#d9e021"/>
        <path d="M74.028,132.204c.501,0,.907-.406.907-.907s-.406-.907-.907-.907-.907.406-.907.907.406.907.907.907Z" fill="#d9e021"/>
        <path d="M95.451,130.39c-.501,0-.907.406-.907.907s.406.907.907.907.907-.406.907-.907-.406-.907-.907-.907Z" fill="#d9e021"/>
        <path d="M116.874,132.204c.501,0,.907-.406.907-.907s-.406-.907-.907-.907-.907.406-.907.907.406.907.907.907Z" fill="#d9e021"/>
        <path d="M138.297,132.204c.501,0,.907-.406.907-.907s-.406-.907-.907-.907-.907.406-.907.907.406.907.907.907Z" fill="#d9e021"/>
        <path d="M159.72,132.204c.501,0,.907-.406.907-.907s-.406-.907-.907-.907-.907.406-.907.907.406.907.907.907Z" fill="#d9e021"/>
        <path d="M181.143,132.204c.501,0,.907-.406.907-.907s-.406-.907-.907-.907-.907.406-.907.907.406.907.907.907Z" fill="#d9e021"/>
        <path d="M202.567,130.39c-.501,0-.907.406-.907.907s.406.907.907.907.907-.406.907-.907-.406-.907-.907-.907Z" fill="#d9e021"/>
        <path d="M223.99,132.204c.501,0,.907-.406.907-.907s-.406-.907-.907-.907-.907.406-.907.907.406.907.907.907Z" fill="#d9e021"/>
        <path d="M245.413,130.39c-.501,0-.907.406-.907.907s.406.907.907.907.907-.406.907-.907-.406-.907-.907-.907Z" fill="#d9e021"/>
        <path d="M52.605,146.058c-.501,0-.907.406-.907.907s.406.907.907.907.907-.406.907-.907-.406-.907-.907-.907Z" fill="#d9e021"/>
        <path d="M74.028,147.872c.501,0,.907-.406.907-.907s-.406-.907-.907-.907-.907.406-.907.907.406.907.907.907Z" fill="#d9e021"/>
        <path d="M95.451,146.058c-.501,0-.907.406-.907.907s.406.907.907.907.907-.406.907-.907-.406-.907-.907-.907Z" fill="#d9e021"/>
        <path d="M160.627,146.965c0-.501-.406-.907-.907-.907s-.907.406-.907.907c0,.334.183.623.451.78h-20.512c.269-.157.451-.446.451-.78,0-.501-.406-.907-.907-.907s-.907.406-.907.907c0,.334.183.623.451.78h-1.222v.336h24.779v-.336h-1.223c.269-.157.451-.446.451-.78Z" fill="#d9e021"/>
        <path d="M138.297,177.395c-.501,0-.907.406-.907.907s.406.907.907.907.907-.406.907-.907-.406-.907-.907-.907Z" fill="#d9e021"/>
        <path d="M159.72,177.395c-.501,0-.907.406-.907.907s.406.907.907.907.907-.406.907-.907-.406-.907-.907-.907Z" fill="#d9e021"/>
        <path d="M182.05,146.965c0-.501-.406-.907-.907-.907-.397,0-.731.257-.854.613l-5.59-5.59-.238.237,5.79,5.79c.062.385.364.686.748.748l2.844,2.844.238-.237-2.645-2.645c.356-.122.613-.456.613-.854Z" fill="#d9e021"/>
        <path d="M202.567,146.058c-.501,0-.907.406-.907.907s.406.907.907.907.907-.406.907-.907-.406-.907-.907-.907Z" fill="#d9e021"/>
        <path d="M223.99,147.872c.501,0,.907-.406.907-.907s-.406-.907-.907-.907-.907.406-.907.907.406.907.907.907Z" fill="#d9e021"/>
        <path d="M245.413,146.058c-.501,0-.907.406-.907.907s.406.907.907.907.907-.406.907-.907-.406-.907-.907-.907Z" fill="#d9e021"/>
        <path d="M52.605,161.726c-.501,0-.907.406-.907.907s.406.907.907.907.907-.406.907-.907-.406-.907-.907-.907Z" fill="#d9e021"/>
        <circle cx="74.028" cy="162.633" r=".907" fill="#d9e021"/>
        <path d="M116.874,161.726c-.501,0-.907.406-.907.907s.406.907.907.907.907-.406.907-.907-.406-.907-.907-.907Z" fill="#d9e021"/>
        <path d="M159.72,161.726c-.241,0-.459.096-.621.249v-.079h-20.182v.078c-.162-.153-.379-.248-.62-.248-.501,0-.907.406-.907.907s.406.907.907.907.907-.406.907-.907c0-.145-.037-.28-.097-.401h19.805c-.06.122-.097.257-.097.401,0,.501.406.907.907.907s.907-.406.907-.907-.406-.907-.907-.907Z" fill="#d9e021"/>
        <path d="M181.143,161.726c-.501,0-.907.406-.907.907s.406.907.907.907.907-.406.907-.907-.406-.907-.907-.907Z" fill="#d9e021"/>
        <circle cx="223.99" cy="162.633" r=".907" fill="#d9e021"/>
        <path d="M245.413,161.726c-.501,0-.907.406-.907.907s.406.907.907.907.907-.406.907-.907-.406-.907-.907-.907Z" fill="#d9e021"/>
      </g>
    </g>
  </g>
</svg>