<?xml version="1.0" encoding="UTF-8"?>
<svg xmlns="http://www.w3.org/2000/svg" viewBox="0 0 296.082 231.257">
  <g isolation="isolate">
    <g id="Layer_2" data-name="Layer 2">
      <g id="Bg">
        <g>
          <path d="M42.627,16.151c0-6.847,2.739-9.586,9.586-9.586h156.79c6.847,0,11.64,2.054,16.431,6.847l22.937,22.937c3.765,4.107,6.505,9.928,6.505,15.405v23.963c0,6.847-2.054,11.64-6.505,16.091l-24.305,23.963,26.359,25.675c4.451,4.451,6.505,9.244,6.505,16.091v22.252c0,5.477-2.739,11.64-6.505,15.405l-23.621,23.621c-4.793,4.793-9.586,6.847-16.433,6.847H52.213c-6.847,0-9.586-2.739-9.586-9.586V16.151Z" fill="#282828"/>
          <rect x="34.142" y="73.154" width="227.799" height="84.95" fill="#163029" mix-blend-mode="screen" opacity=".62"/>
          <g>
            <g opacity=".7">
              <path d="M22.701,219.432C7.86,186.742.335,151.818.335,115.629S7.86,44.515,22.701,11.826l.61.278C8.511,44.705,1.006,79.536,1.006,115.629s7.504,70.924,22.305,103.525l-.61.278Z" fill="#163029"/>
            </g>
            <g opacity=".7">
              <path d="M273.382,219.432l-.61-.278c14.801-32.601,22.305-67.432,22.305-103.525s-7.504-70.925-22.305-103.525l.61-.278c14.84,32.689,22.365,67.613,22.365,103.803s-7.525,71.114-22.365,103.803Z" fill="#163029"/>
            </g>
            <polygon points="1.341 23.133 0 23.133 0 11.295 11.839 11.295 11.839 12.636 1.341 12.636 1.341 23.133" fill="#163029"/>
            <polygon points="296.082 23.133 294.741 23.133 294.741 12.636 284.243 12.636 284.243 11.295 296.082 11.295 296.082 23.133" fill="#163029"/>
            <polygon points="296.082 219.963 284.243 219.963 284.243 218.621 294.741 218.621 294.741 208.124 296.082 208.124 296.082 219.963" fill="#163029"/>
            <polygon points="11.839 219.963 0 219.963 0 208.124 1.341 208.124 1.341 218.621 11.839 218.621 11.839 219.963" fill="#163029"/>
            <path d="M148.041,124.806c-5.061,0-9.177-4.117-9.177-9.177s4.116-9.178,9.177-9.178,9.178,4.117,9.178,9.178-4.117,9.177-9.178,9.177ZM148.041,107.792c-4.32,0-7.835,3.515-7.835,7.837s3.515,7.836,7.835,7.836,7.837-3.515,7.837-7.836-3.516-7.837-7.837-7.837Z" fill="#fe3b1f"/>
            <g>
              <g opacity=".7">
                <rect x="118.508" y="78.359" width="1.102" height="17.659" transform="translate(-26.78 109.729) rotate(-45.002)" fill="#ff400c"/>
              </g>
              <g opacity=".7">
                <polygon points="113.206 150.701 112.426 151.006 124.913 138.52 125.693 138.215 113.206 150.701" fill="#ff400c"/>
              </g>
              <g opacity=".7">
                <rect x="177.482" y="139.528" width="1.102" height="13.269" transform="translate(-51.208 168.698) rotate(-45)" fill="#ff400c"/>
              </g>
              <g opacity=".7">
                <polygon points="170.628 93.28 169.848 93.584 182.334 81.098 183.114 80.793 170.628 93.28" fill="#ff400c"/>
              </g>
            </g>
            <g>
              <path d="M21.534,130.471c-.568-4.892-.855-9.886-.855-14.842s.288-9.951.855-14.843l1.332.155c-.561,4.841-.846,9.783-.846,14.688s.285,9.847.846,14.687l-1.332.155Z" fill="#163029"/>
              <rect x="11.839" y="114.958" width="9.51" height="1.341" fill="#163029"/>
            </g>
            <g>
              <path d="M274.549,130.471l-1.334-.155c.562-4.844.848-9.786.848-14.687s-.286-9.844-.848-14.688l1.334-.155c.567,4.896.855,9.889.855,14.843s-.288,9.946-.855,14.842Z" fill="#163029"/>
              <rect x="274.734" y="114.958" width="9.51" height="1.341" fill="#163029"/>
            </g>
          </g>
          <path d="M148.041,209.136c-24.977,0-48.458-9.726-66.12-27.387-17.661-17.662-27.387-41.143-27.387-66.12s9.726-48.459,27.387-66.12c17.662-17.662,41.143-27.388,66.12-27.388s48.459,9.726,66.12,27.388c17.66,17.661,27.387,41.143,27.387,66.12s-9.727,48.459-27.387,66.12c-17.66,17.661-41.143,27.387-66.12,27.387ZM148.041,22.456c-51.375,0-93.171,41.797-93.171,93.173s41.796,93.172,93.171,93.172,93.172-41.797,93.172-93.172S199.416,22.456,148.041,22.456Z" fill="#163029"/>
          <g>
            <path d="M58.055,115.629h-3.354c0,51.55,41.79,93.339,93.339,93.339v-3.353c-49.619,0-89.985-40.367-89.985-89.986Z" fill="#163029"/>
            <path d="M238.027,115.629h3.354c0-51.55-41.79-93.34-93.34-93.34,0,0,0,3.353,0,3.353,49.619,0,89.986,40.368,89.986,89.987Z" fill="#163029"/>
          </g>
          <g>
            <g>
              <g opacity=".7">
                <rect x="141.015" y="180.766" width="14.053" height=".335" fill="#d9e021"/>
              </g>
              <g opacity=".7">
                <rect x="140.22" y="176.049" width="15.643" height=".335" fill="#d9e021"/>
              </g>
              <g opacity=".7">
                <rect x="139.482" y="171.331" width="17.118" height=".335" fill="#d9e021"/>
              </g>
              <g opacity=".7">
                <rect x="138.716" y="166.614" width="18.651" height=".335" fill="#d9e021"/>
              </g>
              <g opacity=".7">
                <rect x="137.95" y="161.897" width="20.182" height=".335" fill="#d9e021"/>
              </g>
              <g opacity=".7">
                <rect x="137.183" y="157.18" width="21.715" height=".335" fill="#d9e021"/>
              </g>
              <g opacity=".7">
                <rect x="136.417" y="152.462" width="23.248" height=".335" fill="#d9e021"/>
              </g>
              <g opacity=".7">
                <rect x="135.652" y="147.745" width="24.779" height=".335" fill="#d9e021"/>
              </g>
              <g opacity=".7">
                <rect x="134.885" y="143.028" width="26.312" height=".335" fill="#d9e021"/>
              </g>
              <g opacity=".7">
                <rect x="134.119" y="138.31" width="27.845" height=".335" fill="#d9e021"/>
              </g>
              <g opacity=".7">
                <rect x="133.353" y="133.593" width="29.377" height=".335" fill="#d9e021"/>
              </g>
            </g>
            <g>
              <g opacity=".7">
                <rect x="141.015" y="50.156" width="14.053" height=".335" fill="#d9e021"/>
              </g>
              <g opacity=".7">
                <rect x="140.22" y="54.873" width="15.643" height=".335" fill="#d9e021"/>
              </g>
              <g opacity=".7">
                <rect x="139.482" y="59.59" width="17.118" height=".335" fill="#d9e021"/>
              </g>
              <g opacity=".7">
                <rect x="138.716" y="64.308" width="18.651" height=".335" fill="#d9e021"/>
              </g>
              <g opacity=".7">
                <rect x="137.95" y="69.025" width="20.182" height=".335" fill="#d9e021"/>
              </g>
              <g opacity=".7">
                <rect x="137.183" y="73.743" width="21.715" height=".335" fill="#d9e021"/>
              </g>
              <g opacity=".7">
                <rect x="136.417" y="78.459" width="23.248" height=".335" fill="#d9e021"/>
              </g>
              <g opacity=".7">
                <rect x="135.652" y="83.177" width="24.779" height=".335" fill="#d9e021"/>
              </g>
              <g opacity=".7">
                <rect x="134.885" y="87.894" width="26.312" height=".335" fill="#d9e021"/>
              </g>
              <g opacity=".7">
                <rect x="134.119" y="92.612" width="27.845" height=".335" fill="#d9e021"/>
              </g>
              <g opacity=".7">
                <rect x="133.353" y="97.329" width="29.377" height=".335" fill="#d9e021"/>
              </g>
            </g>
          </g>
          <g opacity=".7">
            <rect x="147.873" y="27.122" width=".335" height="5.506" fill="#163029"/>
          </g>
          <g opacity=".7">
            <polygon points="133.463 33.918 132.508 28.496 132.838 28.438 133.793 33.86 133.463 33.918" fill="#163029"/>
          </g>
          <g opacity=".7">
            <polygon points="119.496 37.691 117.613 32.517 117.927 32.402 119.811 37.576 119.496 37.691" fill="#163029"/>
          </g>
          <g opacity=".7">
            <rect x="104.997" y="38.611" width=".336" height="5.507" transform="translate(-6.591 58.133) rotate(-30.005)" fill="#163029"/>
          </g>
          <g opacity=".7">
            <polygon points="94.561 52.155 91.022 47.936 91.278 47.72 94.818 51.939 94.561 52.155" fill="#163029"/>
          </g>
          <g opacity=".7">
            <polygon points="84.352 62.406 80.134 58.866 80.349 58.609 84.567 62.149 84.352 62.406" fill="#163029"/>
          </g>
          <g opacity=".7">
            <rect x="73.608" y="69.999" width=".336" height="5.506" transform="translate(-26.117 100.268) rotate(-60)" fill="#163029"/>
          </g>
          <g opacity=".7">
            <polygon points="69.989 87.399 64.814 85.515 64.93 85.2 70.104 87.083 69.989 87.399" fill="#163029"/>
          </g>
          <g opacity=".7">
            <polygon points="66.273 101.381 60.85 100.425 60.908 100.095 66.331 101.051 66.273 101.381" fill="#163029"/>
          </g>
          <g opacity=".7">
            <rect x="59.534" y="115.461" width="5.506" height=".335" fill="#163029"/>
          </g>
          <g opacity=".7">
            <polygon points="60.908 131.163 60.85 130.833 66.273 129.876 66.331 130.206 60.908 131.163" fill="#163029"/>
          </g>
          <g opacity=".7">
            <polygon points="64.93 146.058 64.814 145.742 69.989 143.859 70.104 144.175 64.93 146.058" fill="#163029"/>
          </g>
          <g opacity=".7">
            <rect x="71.023" y="158.337" width="5.506" height=".336" transform="translate(-69.31 58.04) rotate(-29.966)" fill="#163029"/>
          </g>
          <g opacity=".7">
            <polygon points="80.349 172.648 80.134 172.391 84.352 168.852 84.567 169.108 80.349 172.648" fill="#163029"/>
          </g>
          <g opacity=".7">
            <polygon points="91.278 183.537 91.022 183.321 94.561 179.103 94.818 179.319 91.278 183.537" fill="#163029"/>
          </g>
          <g opacity=".7">
            <rect x="102.411" y="189.726" width="5.507" height=".336" transform="translate(-111.872 186.106) rotate(-60.022)" fill="#163029"/>
          </g>
          <g opacity=".7">
            <polygon points="117.927 198.855 117.613 198.74 119.496 193.566 119.811 193.681 117.927 198.855" fill="#163029"/>
          </g>
          <g opacity=".7">
            <polygon points="132.838 202.819 132.508 202.762 133.463 197.34 133.793 197.397 132.838 202.819" fill="#163029"/>
          </g>
          <g opacity=".7">
            <rect x="147.873" y="198.629" width=".335" height="5.506" fill="#163029"/>
          </g>
          <g opacity=".7">
            <polygon points="163.245 202.819 162.289 197.397 162.619 197.34 163.575 202.762 163.245 202.819" fill="#163029"/>
          </g>
          <g opacity=".7">
            <polygon points="178.156 198.855 176.272 193.681 176.586 193.566 178.47 198.74 178.156 198.855" fill="#163029"/>
          </g>
          <g opacity=".7">
            <rect x="190.75" y="187.14" width=".336" height="5.506" transform="translate(-69.374 120.922) rotate(-30.005)" fill="#163029"/>
          </g>
          <g opacity=".7">
            <polygon points="204.804 183.537 201.265 179.319 201.521 179.103 205.061 183.321 204.804 183.537" fill="#163029"/>
          </g>
          <g opacity=".7">
            <polygon points="215.734 172.648 211.516 169.108 211.731 168.852 215.949 172.391 215.734 172.648" fill="#163029"/>
          </g>
          <g opacity=".7">
            <rect x="222.139" y="155.752" width=".336" height="5.506" transform="translate(-26.116 271.776) rotate(-60)" fill="#163029"/>
          </g>
          <g opacity=".7">
            <polygon points="231.153 146.058 225.979 144.175 226.094 143.859 231.268 145.742 231.153 146.058" fill="#163029"/>
          </g>
          <g opacity=".7">
            <polygon points="235.175 131.163 229.751 130.206 229.809 129.876 235.233 130.833 235.175 131.163" fill="#163029"/>
          </g>
          <g opacity=".7">
            <rect x="231.042" y="115.461" width="5.506" height=".335" fill="#163029"/>
          </g>
          <g opacity=".7">
            <polygon points="229.809 101.381 229.751 101.051 235.175 100.095 235.233 100.425 229.809 101.381" fill="#163029"/>
          </g>
          <g opacity=".7">
            <rect x="225.87" y="86.131" width="5.507" height=".336" transform="translate(-15.731 83.601) rotate(-20.048)" fill="#163029"/>
          </g>
          <g opacity=".7">
            <rect x="219.553" y="72.584" width="5.506" height=".336" transform="translate(-6.621 120.766) rotate(-29.966)" fill="#163029"/>
          </g>
          <g opacity=".7">
            <polygon points="211.731 62.406 211.516 62.149 215.734 58.609 215.949 58.866 211.731 62.406" fill="#163029"/>
          </g>
          <g opacity=".7">
            <polygon points="201.521 52.155 201.265 51.939 204.804 47.72 205.061 47.936 201.521 52.155" fill="#163029"/>
          </g>
          <g opacity=".7">
            <rect x="188.165" y="41.196" width="5.506" height=".336" transform="translate(59.722 186.099) rotate(-60.034)" fill="#163029"/>
          </g>
          <g opacity=".7">
            <polygon points="176.586 37.691 176.272 37.576 178.156 32.402 178.47 32.517 176.586 37.691" fill="#163029"/>
          </g>
          <g opacity=".7">
            <polygon points="162.619 33.918 162.289 33.86 163.245 28.438 163.575 28.496 162.619 33.918" fill="#163029"/>
          </g>
          <g opacity=".7">
            <path d="M148.041,187.346c-39.545,0-71.716-32.172-71.716-71.717s32.172-71.718,71.716-71.718,71.718,32.172,71.718,71.718-32.173,71.717-71.718,71.717ZM148.041,44.247c-39.36,0-71.381,32.022-71.381,71.382s32.021,71.382,71.381,71.382,71.382-32.022,71.382-71.382-32.022-71.382-71.382-71.382Z" fill="#163029"/>
          </g>
          <g>
            <g>
              <path d="M148.846.804c0-.444-.36-.804-.804-.804s-.804.36-.804.804.36.804.804.804.804-.36.804-.804Z" fill="#163029"/>
              <path d="M158.85,1.311c.039-.443-.289-.833-.731-.871-.443-.039-.833.289-.871.731-.039.443.289.833.731.871.443.039.833-.289.871-.731Z" fill="#163029"/>
              <path d="M168.772,2.688c.077-.437-.215-.855-.652-.932-.437-.077-.855.215-.932.652-.077.437.215.855.652.932s.855-.215.932-.652Z" fill="#163029"/>
              <path d="M178.537,4.925c.115-.429-.14-.87-.569-.985-.429-.115-.87.14-.985.569s.14.87.569.985.87-.14.985-.569Z" fill="#163029"/>
              <path d="M188.069,8.004c.152-.417-.063-.879-.481-1.031-.417-.152-.879.063-1.031.481-.152.417.063.879.481,1.031s.879-.063,1.031-.481Z" fill="#163029"/>
              <path d="M197.297,11.902c.188-.403.014-.881-.389-1.069s-.881-.014-1.069.389c-.188.403-.014.881.389,1.069.403.188.881.014,1.069-.389Z" fill="#163029"/>
              <path d="M206.15,16.59c.222-.385.09-.877-.294-1.099-.385-.222-.877-.09-1.099.294-.222.385-.09.877.294,1.099.385.222.877.09,1.099-.294Z" fill="#163029"/>
              <path d="M214.561,22.031c.255-.364.166-.865-.198-1.12-.364-.255-.865-.166-1.12.198-.255.364-.166.865.198,1.12.364.255.865.166,1.12-.198Z" fill="#163029"/>
              <path d="M222.465,28.185c.286-.34.241-.848-.099-1.133-.34-.286-.848-.241-1.133.099-.285.34-.241.848.099,1.133.34.286.848.241,1.133-.099Z" fill="#163029"/>
              <path d="M229.803,35.004c.314-.314.314-.823,0-1.138-.314-.314-.823-.314-1.138,0-.314.314-.314.823,0,1.138.314.314.823.314,1.138,0Z" fill="#163029"/>
              <path d="M236.519,42.437c.34-.286.385-.793.099-1.133-.286-.34-.793-.385-1.133-.099-.34.286-.385.793-.099,1.133s.793.385,1.133.099Z" fill="#163029"/>
              <path d="M242.561,50.427c.364-.255.452-.756.197-1.12-.255-.364-.756-.452-1.12-.197-.364.255-.452.756-.198,1.12.255.364.756.452,1.12.197Z" fill="#163029"/>
            </g>
            <g>
              <path d="M147.237,230.453c0,.444.36.804.804.804s.804-.36.804-.804-.36-.804-.804-.804-.804.36-.804.804Z" fill="#163029"/>
              <path d="M137.232,229.946c-.039.443.289.833.731.871.443.039.833-.289.871-.731.039-.443-.289-.833-.731-.871-.443-.039-.833.289-.871.731Z" fill="#163029"/>
              <path d="M127.31,228.569c-.077.438.215.855.652.932s.855-.215.932-.652c.077-.438-.215-.855-.652-.932-.437-.077-.855.215-.932.652Z" fill="#163029"/>
              <path d="M117.546,226.332c-.115.429.14.87.569.985.429.115.87-.14.985-.569.115-.429-.14-.87-.569-.985-.429-.115-.87.14-.985.569Z" fill="#163029"/>
              <path d="M108.013,223.253c-.152.417.063.879.481,1.031.417.152.879-.063,1.031-.481.152-.417-.063-.879-.481-1.031-.417-.152-.879.063-1.031.481Z" fill="#163029"/>
              <path d="M98.785,219.355c-.188.403-.014.881.389,1.069.403.188.881.014,1.069-.389.188-.403.014-.881-.389-1.069-.403-.188-.881-.014-1.069.389Z" fill="#163029"/>
              <path d="M89.932,214.667c-.222.385-.09.877.294,1.099.385.222.877.09,1.099-.294.222-.385.09-.877-.294-1.099-.385-.222-.877-.09-1.099.294Z" fill="#163029"/>
              <path d="M81.522,209.226c-.255.364-.166.866.197,1.12.364.255.866.166,1.12-.197.255-.364.166-.866-.197-1.12-.364-.255-.866-.166-1.12.198Z" fill="#163029"/>
              <path d="M73.617,203.072c-.285.34-.241.848.099,1.133.34.285.848.241,1.133-.099s.241-.848-.099-1.133-.848-.241-1.133.099Z" fill="#163029"/>
              <path d="M66.279,196.253c-.314.314-.314.824,0,1.138.314.314.823.314,1.138,0,.314-.314.314-.823,0-1.138-.314-.314-.823-.314-1.138,0Z" fill="#163029"/>
              <path d="M59.564,188.82c-.34.286-.385.793-.099,1.133.285.34.793.385,1.133.099s.385-.793.099-1.133c-.285-.34-.793-.385-1.133-.099Z" fill="#163029"/>
              <path d="M53.521,180.83c-.364.255-.452.756-.198,1.12.255.364.756.452,1.12.198.364-.255.452-.756.198-1.12-.255-.364-.756-.452-1.12-.198Z" fill="#163029"/>
            </g>
          </g>
          <path d="M85.692,119.744l-7.213-4.115,7.213-4.116v8.23ZM79.155,115.629l6.202,3.537v-7.075l-6.202,3.538Z" fill="#fe3b1f"/>
          <path d="M210.39,119.744v-8.23l7.213,4.116-7.213,4.115ZM210.726,112.091v7.075l6.202-3.537-6.202-3.538Z" fill="#fe3b1f"/>
          <g>
            <g>
              <path d="M52.544,68.624c0,.501-.406.907-.907.907s-.907-.406-.907-.907.406-.907.907-.907.907.406.907.907Z" fill="#163029"/>
              <path d="M73.967,68.624c0,.501-.406.907-.907.907s-.907-.406-.907-.907.406-.907.907-.907.907.406.907.907Z" fill="#163029"/>
              <path d="M95.39,68.624c0,.501-.406.907-.907.907s-.907-.406-.907-.907.406-.907.907-.907.907.406.907.907Z" fill="#163029"/>
              <path d="M116.813,68.624c0,.501-.406.907-.907.907s-.907-.406-.907-.907.406-.907.907-.907.907.406.907.907Z" fill="#163029"/>
              <path d="M138.236,68.624c0,.501-.406.907-.907.907s-.907-.406-.907-.907.406-.907.907-.907.907.406.907.907Z" fill="#163029"/>
              <path d="M159.659,68.624c0,.501-.406.907-.907.907s-.907-.406-.907-.907.406-.907.907-.907.907.406.907.907Z" fill="#163029"/>
              <path d="M181.083,68.624c0,.501-.406.907-.907.907s-.907-.406-.907-.907.406-.907.907-.907.907.406.907.907Z" fill="#163029"/>
              <path d="M202.506,68.624c0,.501-.406.907-.907.907s-.907-.406-.907-.907.406-.907.907-.907.907.406.907.907Z" fill="#163029"/>
              <path d="M223.929,68.624c0,.501-.406.907-.907.907s-.907-.406-.907-.907.406-.907.907-.907.907.406.907.907Z" fill="#163029"/>
              <path d="M245.352,68.624c0,.501-.406.907-.907.907s-.907-.406-.907-.907.406-.907.907-.907.907.406.907.907Z" fill="#163029"/>
            </g>
            <g>
              <path d="M31.121,84.292c0,.501-.406.907-.907.907s-.907-.406-.907-.907.406-.907.907-.907.907.406.907.907Z" fill="#163029"/>
              <path d="M52.544,84.292c0,.501-.406.907-.907.907s-.907-.406-.907-.907.406-.907.907-.907.907.406.907.907Z" fill="#163029"/>
              <path d="M73.967,84.292c0,.501-.406.907-.907.907s-.907-.406-.907-.907.406-.907.907-.907.907.406.907.907Z" fill="#163029"/>
              <path d="M95.39,84.292c0,.501-.406.907-.907.907s-.907-.406-.907-.907.406-.907.907-.907.907.406.907.907Z" fill="#163029"/>
              <path d="M116.813,84.292c0,.501-.406.907-.907.907s-.907-.406-.907-.907.406-.907.907-.907.907.406.907.907Z" fill="#163029"/>
              <path d="M138.236,84.292c0,.501-.406.907-.907.907s-.907-.406-.907-.907.406-.907.907-.907.907.406.907.907Z" fill="#163029"/>
              <path d="M159.659,84.292c0,.501-.406.907-.907.907s-.907-.406-.907-.907.406-.907.907-.907.907.406.907.907Z" fill="#163029"/>
              <path d="M138.236,52.956c0-.501-.406-.907-.907-.907s-.907.406-.907.907.406.907.907.907.907-.406.907-.907Z" fill="#163029"/>
              <path d="M159.659,52.956c0-.501-.406-.907-.907-.907s-.907.406-.907.907.406.907.907.907.907-.406.907-.907Z" fill="#163029"/>
              <path d="M181.083,84.292c0,.501-.406.907-.907.907s-.907-.406-.907-.907.406-.907.907-.907.907.406.907.907Z" fill="#163029"/>
              <path d="M202.506,84.292c0,.501-.406.907-.907.907s-.907-.406-.907-.907.406-.907.907-.907.907.406.907.907Z" fill="#163029"/>
              <path d="M223.929,84.292c0,.501-.406.907-.907.907s-.907-.406-.907-.907.406-.907.907-.907.907.406.907.907Z" fill="#163029"/>
              <path d="M245.352,84.292c0,.501-.406.907-.907.907s-.907-.406-.907-.907.406-.907.907-.907.907.406.907.907Z" fill="#163029"/>
              <path d="M266.775,84.292c0,.501-.406.907-.907.907s-.907-.406-.907-.907.406-.907.907-.907.907.406.907.907Z" fill="#163029"/>
            </g>
            <g>
              <path d="M31.121,99.96c0,.501-.406.907-.907.907s-.907-.406-.907-.907.406-.907.907-.907.907.406.907.907Z" fill="#163029"/>
              <path d="M52.544,99.96c0,.501-.406.907-.907.907s-.907-.406-.907-.907.406-.907.907-.907.907.406.907.907Z" fill="#163029"/>
              <circle cx="73.06" cy="99.96" r=".907" fill="#163029"/>
              <path d="M95.39,99.96c0,.501-.406.907-.907.907s-.907-.406-.907-.907.406-.907.907-.907.907.406.907.907Z" fill="#163029"/>
              <path d="M116.813,99.96c0,.501-.406.907-.907.907s-.907-.406-.907-.907.406-.907.907-.907.907.406.907.907Z" fill="#163029"/>
              <path d="M138.236,99.96c0,.501-.406.907-.907.907s-.907-.406-.907-.907.406-.907.907-.907.907.406.907.907Z" fill="#163029"/>
              <circle cx="158.753" cy="99.96" r=".907" fill="#163029"/>
              <path d="M181.083,99.96c0,.501-.406.907-.907.907s-.907-.406-.907-.907.406-.907.907-.907.907.406.907.907Z" fill="#163029"/>
              <path d="M202.506,99.96c0,.501-.406.907-.907.907s-.907-.406-.907-.907.406-.907.907-.907.907.406.907.907Z" fill="#163029"/>
              <path d="M223.929,99.96c0,.501-.406.907-.907.907s-.907-.406-.907-.907.406-.907.907-.907.907.406.907.907Z" fill="#163029"/>
              <circle cx="244.445" cy="99.96" r=".907" fill="#163029"/>
              <path d="M266.775,99.96c0,.501-.406.907-.907.907s-.907-.406-.907-.907.406-.907.907-.907.907.406.907.907Z" fill="#163029"/>
            </g>
            <g>
              <path d="M31.121,115.629c0,.501-.406.907-.907.907s-.907-.406-.907-.907.406-.907.907-.907.907.406.907.907Z" fill="#163029"/>
              <path d="M52.544,115.629c0,.501-.406.907-.907.907s-.907-.406-.907-.907.406-.907.907-.907.907.406.907.907Z" fill="#163029"/>
              <path d="M7.884,115.629c0,.501.406.907.907.907s.907-.406.907-.907-.406-.907-.907-.907-.907.406-.907.907Z" fill="#163029"/>
              <path d="M73.967,115.629c0,.501-.406.907-.907.907s-.907-.406-.907-.907.406-.907.907-.907.907.406.907.907Z" fill="#163029"/>
              <path d="M95.39,115.629c0,.501-.406.907-.907.907s-.907-.406-.907-.907.406-.907.907-.907.907.406.907.907Z" fill="#163029"/>
              <path d="M116.813,115.629c0,.501-.406.907-.907.907s-.907-.406-.907-.907.406-.907.907-.907.907.406.907.907Z" fill="#163029"/>
              <path d="M138.236,115.629c0,.501-.406.907-.907.907s-.907-.406-.907-.907.406-.907.907-.907.907.406.907.907Z" fill="#163029"/>
              <path d="M159.659,115.629c0,.501-.406.907-.907.907s-.907-.406-.907-.907.406-.907.907-.907.907.406.907.907Z" fill="#163029"/>
              <path d="M181.083,115.629c0,.501-.406.907-.907.907s-.907-.406-.907-.907.406-.907.907-.907.907.406.907.907Z" fill="#163029"/>
              <path d="M202.506,115.629c0,.501-.406.907-.907.907s-.907-.406-.907-.907.406-.907.907-.907.907.406.907.907Z" fill="#163029"/>
              <path d="M223.929,115.629c0,.501-.406.907-.907.907s-.907-.406-.907-.907.406-.907.907-.907.907.406.907.907Z" fill="#163029"/>
              <path d="M245.352,115.629c0,.501-.406.907-.907.907s-.907-.406-.907-.907.406-.907.907-.907.907.406.907.907Z" fill="#163029"/>
              <path d="M286.385,115.629c0,.501.406.907.907.907s.907-.406.907-.907-.406-.907-.907-.907-.907.406-.907.907Z" fill="#163029"/>
              <path d="M266.775,115.629c0,.501-.406.907-.907.907s-.907-.406-.907-.907.406-.907.907-.907.907.406.907.907Z" fill="#163029"/>
            </g>
            <g>
              <path d="M31.121,131.297c0,.501-.406.907-.907.907s-.907-.406-.907-.907.406-.907.907-.907.907.406.907.907Z" fill="#163029"/>
              <path d="M52.544,131.297c0,.501-.406.907-.907.907s-.907-.406-.907-.907.406-.907.907-.907.907.406.907.907Z" fill="#163029"/>
              <path d="M73.967,131.297c0,.501-.406.907-.907.907s-.907-.406-.907-.907.406-.907.907-.907.907.406.907.907Z" fill="#163029"/>
              <path d="M95.39,131.297c0,.501-.406.907-.907.907s-.907-.406-.907-.907.406-.907.907-.907.907.406.907.907Z" fill="#163029"/>
              <path d="M116.813,131.297c0,.501-.406.907-.907.907s-.907-.406-.907-.907.406-.907.907-.907.907.406.907.907Z" fill="#163029"/>
              <path d="M138.236,131.297c0,.501-.406.907-.907.907s-.907-.406-.907-.907.406-.907.907-.907.907.406.907.907Z" fill="#163029"/>
              <path d="M159.659,131.297c0,.501-.406.907-.907.907s-.907-.406-.907-.907.406-.907.907-.907.907.406.907.907Z" fill="#163029"/>
              <path d="M181.083,131.297c0,.501-.406.907-.907.907s-.907-.406-.907-.907.406-.907.907-.907.907.406.907.907Z" fill="#163029"/>
              <path d="M202.506,131.297c0,.501-.406.907-.907.907s-.907-.406-.907-.907.406-.907.907-.907.907.406.907.907Z" fill="#163029"/>
              <path d="M223.929,131.297c0,.501-.406.907-.907.907s-.907-.406-.907-.907.406-.907.907-.907.907.406.907.907Z" fill="#163029"/>
              <path d="M245.352,131.297c0,.501-.406.907-.907.907s-.907-.406-.907-.907.406-.907.907-.907.907.406.907.907Z" fill="#163029"/>
              <path d="M266.775,131.297c0,.501-.406.907-.907.907s-.907-.406-.907-.907.406-.907.907-.907.907.406.907.907Z" fill="#163029"/>
            </g>
            <g>
              <path d="M31.121,146.965c0,.501-.406.907-.907.907s-.907-.406-.907-.907.406-.907.907-.907.907.406.907.907Z" fill="#163029"/>
              <path d="M52.544,146.965c0,.501-.406.907-.907.907s-.907-.406-.907-.907.406-.907.907-.907.907.406.907.907Z" fill="#163029"/>
              <circle cx="73.06" cy="146.965" r=".907" fill="#163029"/>
              <path d="M95.39,146.965c0,.501-.406.907-.907.907s-.907-.406-.907-.907.406-.907.907-.907.907.406.907.907Z" fill="#163029"/>
              <path d="M116.813,146.965c0,.501-.406.907-.907.907s-.907-.406-.907-.907.406-.907.907-.907.907.406.907.907Z" fill="#163029"/>
              <path d="M138.236,146.965c0,.501-.406.907-.907.907s-.907-.406-.907-.907.406-.907.907-.907.907.406.907.907Z" fill="#163029"/>
              <circle cx="158.753" cy="146.965" r=".907" fill="#163029"/>
              <path d="M138.236,178.302c0-.501-.406-.907-.907-.907s-.907.406-.907.907.406.907.907.907.907-.406.907-.907Z" fill="#163029"/>
              <path d="M159.659,178.302c0-.501-.406-.907-.907-.907s-.907.406-.907.907.406.907.907.907.907-.406.907-.907Z" fill="#163029"/>
              <path d="M181.083,146.965c0,.501-.406.907-.907.907s-.907-.406-.907-.907.406-.907.907-.907.907.406.907.907Z" fill="#163029"/>
              <path d="M202.506,146.965c0,.501-.406.907-.907.907s-.907-.406-.907-.907.406-.907.907-.907.907.406.907.907Z" fill="#163029"/>
              <path d="M223.929,146.965c0,.501-.406.907-.907.907s-.907-.406-.907-.907.406-.907.907-.907.907.406.907.907Z" fill="#163029"/>
              <circle cx="244.445" cy="146.965" r=".907" fill="#163029"/>
              <path d="M266.775,146.965c0,.501-.406.907-.907.907s-.907-.406-.907-.907.406-.907.907-.907.907.406.907.907Z" fill="#163029"/>
            </g>
            <g>
              <path d="M52.544,162.633c0,.501-.406.907-.907.907s-.907-.406-.907-.907.406-.907.907-.907.907.406.907.907Z" fill="#163029"/>
              <path d="M73.967,162.633c0,.501-.406.907-.907.907s-.907-.406-.907-.907.406-.907.907-.907.907.406.907.907Z" fill="#163029"/>
              <path d="M95.39,162.633c0,.501-.406.907-.907.907s-.907-.406-.907-.907.406-.907.907-.907.907.406.907.907Z" fill="#163029"/>
              <path d="M116.813,162.633c0,.501-.406.907-.907.907s-.907-.406-.907-.907.406-.907.907-.907.907.406.907.907Z" fill="#163029"/>
              <path d="M138.236,162.633c0,.501-.406.907-.907.907s-.907-.406-.907-.907.406-.907.907-.907.907.406.907.907Z" fill="#163029"/>
              <path d="M159.659,162.633c0,.501-.406.907-.907.907s-.907-.406-.907-.907.406-.907.907-.907.907.406.907.907Z" fill="#163029"/>
              <path d="M181.083,162.633c0,.501-.406.907-.907.907s-.907-.406-.907-.907.406-.907.907-.907.907.406.907.907Z" fill="#163029"/>
              <path d="M202.506,162.633c0,.501-.406.907-.907.907s-.907-.406-.907-.907.406-.907.907-.907.907.406.907.907Z" fill="#163029"/>
              <path d="M223.929,162.633c0,.501-.406.907-.907.907s-.907-.406-.907-.907.406-.907.907-.907.907.406.907.907Z" fill="#163029"/>
              <path d="M245.352,162.633c0,.501-.406.907-.907.907s-.907-.406-.907-.907.406-.907.907-.907.907.406.907.907Z" fill="#163029"/>
            </g>
          </g>
          <g>
            <path d="M210.667,203.006l.527,1.288.528-1.288h.092l-.576,1.388h-.086l-.576-1.388h.093Z" fill="#163029"/>
            <path d="M213.066,203.006v.081h-.811v.554h.722v.083h-.722v.588h.837v.081h-.921v-1.388h.895Z" fill="#163029"/>
            <path d="M213.655,203.006l.928,1.261v-1.261h.081v1.388h-.097l-.925-1.261v1.261h-.084v-1.388h.097Z" fill="#163029"/>
            <path d="M215.328,203.006v1.388h-.084v-1.388h.084Z" fill="#163029"/>
            <path d="M216.765,203.998h-.812l-.178.395h-.092l.63-1.388h.089l.635,1.388h-.092l-.181-.395ZM216.727,203.915l-.371-.813-.367.813h.738Z" fill="#163029"/>
            <path d="M217.51,203.006l.558,1.092.554-1.092h.114v1.388h-.079l-.003-1.273-.57,1.122h-.037l-.575-1.122v1.273h-.079v-1.388h.115Z" fill="#163029"/>
            <path d="M221.367,204.503c-.107.101-.221.151-.331.151-.144,0-.288-.087-.434-.258h-.034c-.397,0-.718-.312-.718-.697s.321-.695.718-.695.719.31.719.695c0,.343-.254.627-.59.685.124.127.236.193.343.193.092,0,.187-.048.284-.135l.042.062ZM220.568,204.314c.348,0,.634-.276.634-.616s-.286-.614-.634-.614-.633.274-.633.614.286.616.633.616Z" fill="#163029"/>
            <path d="M222.279,204.314c.301,0,.478-.179.478-.489v-.82h.084v.82c0,.362-.207.57-.562.57s-.562-.208-.562-.57v-.82h.084v.82c0,.31.177.489.478.489Z" fill="#163029"/>
            <path d="M223.471,203.006v1.388h-.084v-1.388h.084Z" fill="#163029"/>
            <path d="M224.414,203.089c-.22,0-.364.092-.364.237,0,.423.816.204.812.716,0,.215-.193.354-.482.354-.185,0-.373-.081-.494-.2l.043-.073c.113.117.289.189.453.189.237,0,.39-.103.39-.267.004-.434-.812-.212-.812-.713,0-.2.183-.329.457-.329.14,0,.293.046.397.113l-.038.075c-.104-.067-.244-.102-.363-.102Z" fill="#163029"/>
            <path d="M226.116,203.006l.927,1.261v-1.261h.081v1.388h-.097l-.925-1.261v1.261h-.084v-1.388h.097Z" fill="#163029"/>
            <path d="M228.997,203.699c0,.385-.322.697-.719.697s-.718-.312-.718-.697.321-.695.718-.695.719.31.719.695ZM227.645,203.699c0,.339.285.616.633.616s.634-.276.634-.616-.286-.614-.634-.614-.633.274-.633.614Z" fill="#163029"/>
            <path d="M229.796,203.089c-.22,0-.364.092-.364.237,0,.423.816.204.812.716,0,.215-.193.354-.482.354-.185,0-.373-.081-.494-.2l.043-.073c.113.117.29.189.453.189.237,0,.39-.103.39-.267.004-.434-.812-.212-.812-.713,0-.2.183-.329.457-.329.14,0,.293.046.397.113l-.038.075c-.104-.067-.244-.102-.363-.102Z" fill="#163029"/>
            <path d="M231.528,203.006v.081h-.468v1.307h-.084v-1.307h-.469v-.081h1.021Z" fill="#163029"/>
            <path d="M232.829,204.393l-.327-.47c-.038.006-.076.008-.118.008h-.406v.462h-.084v-1.388h.49c.343,0,.538.167.538.457,0,.237-.12.392-.342.447l.348.485h-.1ZM232.386,203.849c.29,0,.455-.137.455-.385,0-.244-.165-.377-.455-.377h-.409v.762h.409Z" fill="#163029"/>
            <path d="M233.958,204.314c.301,0,.478-.179.478-.489v-.82h.084v.82c0,.362-.207.57-.562.57s-.562-.208-.562-.57v-.82h.084v.82c0,.31.177.489.478.489Z" fill="#163029"/>
            <path d="M236.33,203.7c0,.385-.317.693-.714.693h-.55v-1.388h.551c.396,0,.713.306.713.695ZM236.245,203.7c0-.341-.28-.614-.629-.614h-.466v1.226h.468c.347,0,.628-.272.628-.612Z" fill="#163029"/>
            <path d="M238.339,203.006v.081h-.811v.554h.722v.083h-.722v.588h.837v.081h-.921v-1.388h.895Z" fill="#163029"/>
            <path d="M238.785,203.006l.431.598.432-.598h.098l-.479.667.516.721h-.098l-.469-.647-.469.647h-.097l.516-.716-.478-.671h.097Z" fill="#163029"/>
            <path d="M241.096,203.006v.081h-.811v.554h.722v.083h-.722v.588h.837v.081h-.921v-1.388h.895Z" fill="#163029"/>
            <path d="M242.524,204.393l-.327-.47c-.038.006-.076.008-.118.008h-.406v.462h-.084v-1.388h.49c.343,0,.538.167.538.457,0,.237-.121.392-.342.447l.349.485h-.1ZM242.081,203.849c.289,0,.454-.137.454-.385,0-.244-.165-.377-.454-.377h-.409v.762h.409Z" fill="#163029"/>
            <path d="M243.697,203.083c-.351,0-.635.274-.635.614,0,.341.284.618.635.618.165,0,.32-.064.437-.169l.051.058c-.128.119-.305.193-.49.193-.396,0-.717-.312-.717-.697s.321-.695.717-.695c.186,0,.359.071.489.187l-.05.063c-.115-.107-.272-.171-.437-.171Z" fill="#163029"/>
            <path d="M244.709,203.006v1.388h-.084v-1.388h.084Z" fill="#163029"/>
            <path d="M246.091,203.006v.081h-.468v1.307h-.084v-1.307h-.469v-.081h1.02Z" fill="#163029"/>
            <path d="M247.193,203.998h-.812l-.178.395h-.092l.63-1.388h.089l.635,1.388h-.092l-.181-.395ZM247.155,203.915l-.371-.813-.367.813h.738Z" fill="#163029"/>
            <path d="M248.505,203.006v.081h-.468v1.307h-.084v-1.307h-.469v-.081h1.021Z" fill="#163029"/>
            <path d="M248.954,203.006v1.388h-.084v-1.388h.084Z" fill="#163029"/>
            <path d="M250.821,203.699c0,.385-.321.697-.719.697s-.718-.312-.718-.697.321-.695.718-.695.719.31.719.695ZM249.469,203.699c0,.339.286.616.633.616s.634-.276.634-.616-.285-.614-.634-.614-.633.274-.633.614Z" fill="#163029"/>
            <path d="M251.352,203.006l.927,1.261v-1.261h.081v1.388h-.097l-.925-1.261v1.261h-.084v-1.388h.097Z" fill="#163029"/>
            <path d="M211.324,208.296c.301,0,.478-.179.478-.489v-.82h.084v.82c0,.362-.207.57-.562.57s-.562-.208-.562-.57v-.82h.084v.82c0,.31.177.489.478.489Z" fill="#163029"/>
            <path d="M212.517,206.987v1.307h.617v.081h-.701v-1.388h.084Z" fill="#163029"/>
            <path d="M213.614,206.987v1.307h.617v.081h-.701v-1.388h.084Z" fill="#163029"/>
            <path d="M215.505,207.98h-.812l-.178.395h-.092l.63-1.388h.089l.635,1.388h-.092l-.181-.395ZM215.467,207.897l-.371-.814-.367.814h.738Z" fill="#163029"/>
            <path d="M216.25,206.987l.558,1.092.554-1.092h.114v1.388h-.079l-.003-1.273-.57,1.122h-.037l-.575-1.122v1.273h-.079v-1.388h.115Z" fill="#163029"/>
            <path d="M218.629,207.065c-.351,0-.635.274-.635.614,0,.341.284.618.635.618.165,0,.32-.063.438-.169l.051.058c-.128.119-.305.193-.49.193-.396,0-.717-.312-.717-.697s.321-.695.717-.695c.186,0,.359.071.489.187l-.05.064c-.115-.107-.272-.171-.438-.171Z" fill="#163029"/>
            <path d="M220.809,207.68c0,.385-.322.697-.719.697s-.718-.312-.718-.697.321-.695.718-.695.719.31.719.695ZM219.457,207.68c0,.339.286.616.633.616s.634-.276.634-.616-.286-.614-.634-.614-.633.274-.633.614Z" fill="#163029"/>
            <path d="M222.006,206.987v1.307h.617v.081h-.701v-1.388h.084Z" fill="#163029"/>
            <path d="M223.897,207.98h-.812l-.178.395h-.092l.63-1.388h.089l.635,1.388h-.092l-.181-.395ZM223.859,207.897l-.371-.814-.367.814h.738Z" fill="#163029"/>
            <path d="M225.527,207.331c0,.17-.098.287-.269.32.212.025.338.157.338.351,0,.236-.183.373-.499.373h-.571v-1.388h.567c.272,0,.434.127.434.344ZM225.443,207.341c0-.173-.129-.272-.351-.272h-.482v.548h.482c.223,0,.351-.099.351-.276ZM225.512,207.992c0-.187-.153-.294-.421-.294h-.482v.596h.482c.267,0,.421-.109.421-.302Z" fill="#163029"/>
            <path d="M227.359,207.68c0,.385-.322.697-.719.697s-.718-.312-.718-.697.321-.695.718-.695.719.31.719.695ZM226.007,207.68c0,.339.286.616.633.616s.634-.276.634-.616-.286-.614-.634-.614-.633.274-.633.614Z" fill="#163029"/>
            <path d="M228.728,208.375l-.328-.47c-.038.006-.076.008-.118.008h-.406v.462h-.084v-1.388h.49c.343,0,.538.167.538.457,0,.236-.12.391-.342.447l.349.485h-.1ZM228.285,207.831c.289,0,.455-.137.455-.385,0-.244-.165-.377-.455-.377h-.409v.762h.409Z" fill="#163029"/>
            <path d="M229.415,206.987v1.388h-.084v-1.388h.084Z" fill="#163029"/>
            <path d="M230.357,207.07c-.22,0-.364.092-.364.237,0,.423.816.204.812.717,0,.215-.193.354-.482.354-.185,0-.373-.081-.494-.2l.043-.073c.113.117.289.189.453.189.237,0,.39-.104.39-.266.004-.435-.812-.213-.812-.713,0-.2.184-.329.457-.329.14,0,.293.046.397.113l-.038.075c-.103-.067-.244-.102-.363-.102Z" fill="#163029"/>
            <path d="M232.06,206.987l.927,1.261v-1.261h.081v1.388h-.097l-.925-1.261v1.261h-.084v-1.388h.097Z" fill="#163029"/>
            <path d="M233.732,206.987v1.388h-.084v-1.388h.084Z" fill="#163029"/>
            <path d="M234.676,207.07c-.22,0-.364.092-.364.237,0,.423.816.204.812.717,0,.215-.192.354-.482.354-.185,0-.373-.081-.494-.2l.043-.073c.113.117.29.189.452.189.239,0,.392-.104.392-.266.004-.435-.812-.213-.812-.713,0-.2.183-.329.457-.329.14,0,.293.046.397.113l-.038.075c-.104-.067-.244-.102-.363-.102Z" fill="#163029"/>
            <path d="M235.686,206.987v1.388h-.084v-1.388h.084Z" fill="#163029"/>
            <path d="M237.47,208.296c.301,0,.478-.179.478-.489v-.82h.084v.82c0,.362-.207.57-.562.57s-.562-.208-.562-.57v-.82h.084v.82c0,.31.177.489.478.489Z" fill="#163029"/>
            <path d="M239.384,206.987v.081h-.468v1.307h-.084v-1.307h-.469v-.081h1.02Z" fill="#163029"/>
            <path d="M211.656,211.963h-.812l-.178.395h-.092l.63-1.388h.089l.635,1.388h-.092l-.181-.395ZM211.618,211.879l-.371-.813-.367.813h.738Z" fill="#163029"/>
            <path d="M212.37,210.97v1.307h.617v.081h-.701v-1.388h.084Z" fill="#163029"/>
            <path d="M213.466,210.97v1.388h-.084v-1.388h.084Z" fill="#163029"/>
            <path d="M215.414,212.467c-.107.101-.221.151-.331.151-.144,0-.288-.087-.434-.258h-.034c-.397,0-.718-.312-.718-.697s.321-.695.718-.695.719.31.719.695c0,.343-.254.628-.59.685.124.127.236.193.343.193.092,0,.187-.048.284-.135l.042.062ZM214.615,212.279c.348,0,.634-.276.634-.616s-.286-.614-.634-.614-.633.274-.633.614.286.616.633.616Z" fill="#163029"/>
            <path d="M216.326,212.279c.301,0,.478-.179.478-.489v-.82h.084v.82c0,.362-.207.57-.562.57s-.562-.208-.562-.57v-.82h.084v.82c0,.31.177.489.478.489Z" fill="#163029"/>
            <path d="M217.518,210.97v1.388h-.084v-1.388h.084Z" fill="#163029"/>
            <path d="M219.118,211.426c0,.298-.193.469-.533.469h-.405v.463h-.084v-1.388h.489c.341,0,.533.167.533.457ZM219.039,211.428c0-.244-.168-.377-.457-.377h-.402v.762h.402c.289,0,.457-.137.457-.385Z" fill="#163029"/>
            <path d="M221.091,210.97v.081h-.811v.554h.722v.083h-.722v.588h.837v.081h-.921v-1.388h.895Z" fill="#163029"/>
            <path d="M221.537,210.97l.431.598.432-.598h.098l-.479.667.516.721h-.098l-.469-.647-.469.647h-.097l.516-.717-.478-.671h.097Z" fill="#163029"/>
            <path d="M224.527,210.97v.081h-.811v.554h.722v.083h-.722v.588h.837v.081h-.921v-1.388h.895Z" fill="#163029"/>
            <path d="M225.879,211.963h-.812l-.178.395h-.092l.63-1.388h.089l.635,1.388h-.092l-.181-.395ZM225.841,211.879l-.371-.813-.367.813h.738Z" fill="#163029"/>
            <path d="M227.759,211.047c-.351,0-.635.274-.635.614,0,.341.284.618.635.618.165,0,.32-.064.438-.169l.051.058c-.128.119-.305.193-.49.193-.396,0-.716-.312-.716-.697s.321-.695.716-.695c.186,0,.359.071.489.187l-.05.063c-.115-.107-.272-.171-.438-.171Z" fill="#163029"/>
            <path d="M229.94,211.663c0,.385-.322.697-.719.697s-.718-.312-.718-.697.321-.695.718-.695.719.31.719.695ZM228.588,211.663c0,.339.286.616.633.616s.634-.276.634-.616-.286-.614-.634-.614-.633.274-.633.614Z" fill="#163029"/>
            <path d="M230.489,210.97l.558,1.092.554-1.092h.114v1.388h-.079l-.003-1.273-.57,1.122h-.037l-.574-1.122v1.273h-.08v-1.388h.115Z" fill="#163029"/>
            <path d="M232.412,210.97l.558,1.092.554-1.092h.114v1.388h-.079l-.003-1.273-.57,1.122h-.037l-.574-1.122v1.273h-.08v-1.388h.115Z" fill="#163029"/>
            <path d="M235.51,211.663c0,.385-.322.697-.719.697s-.718-.312-.718-.697.321-.695.718-.695.719.31.719.695ZM234.158,211.663c0,.339.286.616.633.616s.634-.276.634-.616-.286-.614-.634-.614-.633.274-.633.614Z" fill="#163029"/>
            <path d="M237.208,211.665c0,.385-.317.693-.714.693h-.55v-1.388h.551c.396,0,.713.306.713.695ZM237.123,211.665c0-.341-.28-.614-.629-.614h-.466v1.226h.468c.347,0,.628-.272.628-.612Z" fill="#163029"/>
            <path d="M238.922,211.663c0,.385-.322.697-.719.697s-.718-.312-.718-.697.321-.695.718-.695.719.31.719.695ZM237.57,211.663c0,.339.286.616.633.616s.634-.276.634-.616-.286-.614-.634-.614-.633.274-.633.614Z" fill="#163029"/>
            <path d="M240.605,211.047c-.351,0-.635.274-.635.614,0,.341.284.618.635.618.165,0,.32-.064.438-.169l.051.058c-.128.119-.305.193-.49.193-.396,0-.717-.312-.717-.697s.321-.695.717-.695c.186,0,.359.071.489.187l-.05.063c-.115-.107-.273-.171-.438-.171Z" fill="#163029"/>
            <path d="M242.786,211.663c0,.385-.322.697-.719.697s-.718-.312-.718-.697.321-.695.718-.695.719.31.719.695ZM241.434,211.663c0,.339.286.616.633.616s.634-.276.634-.616-.286-.614-.634-.614-.633.274-.633.614Z" fill="#163029"/>
            <path d="M243.317,210.97l.927,1.261v-1.261h.081v1.388h-.097l-.925-1.261v1.261h-.084v-1.388h.097Z" fill="#163029"/>
            <path d="M245.271,211.053c-.22,0-.364.092-.364.237,0,.423.816.204.812.716,0,.215-.193.354-.482.354-.185,0-.373-.081-.494-.2l.043-.073c.113.117.289.189.452.189.238,0,.392-.103.392-.266.004-.435-.812-.213-.812-.713,0-.201.183-.329.457-.329.14,0,.294.046.397.113l-.038.075c-.103-.067-.244-.102-.363-.102Z" fill="#163029"/>
            <path d="M247.092,210.97v.081h-.811v.554h.722v.083h-.722v.588h.837v.081h-.921v-1.388h.895Z" fill="#163029"/>
            <path d="M248.956,212.467c-.107.101-.221.151-.331.151-.144,0-.288-.087-.434-.258h-.034c-.397,0-.718-.312-.718-.697s.321-.695.718-.695.719.31.719.695c0,.343-.254.628-.59.685.124.127.236.193.343.193.092,0,.187-.048.284-.135l.042.062ZM248.157,212.279c.348,0,.634-.276.634-.616s-.286-.614-.634-.614-.633.274-.633.614.286.616.633.616Z" fill="#163029"/>
            <path d="M249.868,212.279c.301,0,.478-.179.478-.489v-.82h.084v.82c0,.362-.207.57-.562.57s-.562-.208-.562-.57v-.82h.084v.82c0,.31.177.489.478.489Z" fill="#163029"/>
            <path d="M251.795,211.963h-.812l-.178.395h-.092l.63-1.388h.089l.635,1.388h-.092l-.181-.395ZM251.757,211.879l-.371-.813-.367.813h.738Z" fill="#163029"/>
            <path d="M253.108,210.97v.081h-.468v1.307h-.084v-1.307h-.469v-.081h1.02Z" fill="#163029"/>
          </g>
          <g>
            <g>
              <path d="M39.355,25.911v.489l-2.351,4.778h-.638l2.336-4.71h-2.69v.773h-.541v-1.33h3.884Z" fill="#163029"/>
              <path d="M43.962,28.541c0,1.706-.698,2.652-1.945,2.652-1.255,0-1.953-.946-1.953-2.652s.698-2.644,1.953-2.644c1.247,0,1.945.947,1.945,2.644ZM40.665,28.541c0,1.435.459,2.164,1.352,2.164.879,0,1.344-.728,1.344-2.164s-.465-2.149-1.344-2.149c-.893,0-1.352.714-1.352,2.149Z" fill="#163029"/>
            </g>
            <g opacity=".3">
              <g>
                <path d="M38.489,35.037c-.189,0-.312.071-.312.2,0,.42,1.036.195,1.034.886,0,.343-.301.554-.724.554-.301,0-.587-.124-.785-.305l.14-.28c.198.181.444.28.65.28.225,0,.36-.085.36-.233,0-.428-1.037-.189-1.037-.872,0-.329.283-.534.7-.534.25,0,.494.079.672.197l-.134.286c-.21-.127-.418-.178-.563-.178Z" fill="#163029"/>
                <path d="M39.915,34.746v1.92h-.324v-1.92h.324Z" fill="#163029"/>
                <path d="M41.732,34.746v.291h-.608v1.629h-.324v-1.629h-.606v-.291h1.538Z" fill="#163029"/>
                <path d="M36.12,39.529h-.968l-.183.434h-.338l.848-1.92h.331l.84,1.92h-.346l-.183-.434ZM35.997,39.242l-.363-.853-.362.853h.725Z" fill="#163029"/>
                <path d="M37.293,38.043l.633,1.275.631-1.275h.381v1.92h-.299l-.003-1.434-.607,1.234h-.211l-.607-1.234v1.434h-.304v-1.92h.384Z" fill="#163029"/>
                <path d="M40.819,38.043v.291h-1.047v.518h.938v.291h-.938v.529h1.081v.291h-1.404v-1.92h1.37Z" fill="#163029"/>
                <path d="M42.562,38.043v.291h-.608v1.629h-.324v-1.629h-.606v-.291h1.538Z" fill="#163029"/>
                <path d="M43.165,38.043v.834h1.017v-.834h.325v1.92h-.325v-.795h-1.017v.795h-.324v-1.92h.324Z" fill="#163029"/>
              </g>
            </g>
            <g>
              <path d="M52.19,27.91c1.165,0,1.909.646,1.909,1.548,0,1.051-.766,1.735-1.953,1.735-.616,0-1.338-.225-1.863-.571l.248-.488c.459.323,1.052.518,1.555.518.849,0,1.382-.443,1.382-1.157,0-.631-.533-1.037-1.366-1.037-.368,0-1.03.053-1.436.143v-2.69h3.216v.556h-2.653v1.518c.301-.052.7-.075.962-.075Z" fill="#163029"/>
              <path d="M58.616,29.563c0,.969-.774,1.638-2.028,1.638-.662,0-1.345-.21-1.81-.518l.263-.496c.413.308.968.496,1.517.496.924,0,1.473-.443,1.473-1.097,0-.669-.557-1.015-1.488-1.015h-.698v-.368l1.75-1.727h-2.561l-.008-.556h3.327v.398l-1.84,1.825.324.015c1.074.052,1.78.556,1.78,1.404Z" fill="#163029"/>
            </g>
            <g opacity=".3">
              <g>
                <path d="M49.821,34.746l.633,1.275.632-1.275h.381v1.92h-.299l-.003-1.434-.606,1.234h-.211l-.606-1.234v1.434h-.304v-1.92h.384Z" fill="#163029"/>
                <path d="M53.217,36.233h-.968l-.183.434h-.338l.848-1.92h.331l.84,1.92h-.346l-.183-.434ZM53.094,35.945l-.363-.853-.362.853h.724Z" fill="#163029"/>
                <path d="M55.27,35.722h.282v.708c-.194.148-.482.25-.745.25-.569,0-1.01-.425-1.01-.974s.447-.968,1.028-.968c.275,0,.549.104.739.269l-.185.238c-.148-.138-.354-.219-.554-.219-.392,0-.699.299-.699.68,0,.384.31.683.702.683.143,0,.305-.049.443-.132v-.535Z" fill="#163029"/>
                <path d="M56.333,34.746l1.028,1.379v-1.379h.318v1.92h-.318l-1.023-1.377v1.377h-.324v-1.92h.318Z" fill="#163029"/>
                <path d="M59.428,36.233h-.968l-.183.434h-.338l.848-1.92h.331l.84,1.92h-.346l-.183-.434ZM59.305,35.945l-.363-.853-.362.853h.725Z" fill="#163029"/>
                <path d="M50.823,38.323c-.384,0-.686.296-.686.675s.303.677.686.677c.191,0,.389-.088.535-.227l.193.213c-.195.192-.472.316-.744.316-.562,0-.998-.425-.998-.977,0-.546.441-.966,1.01-.966.271,0,.542.113.73.296l-.19.237c-.14-.151-.339-.244-.535-.244Z" fill="#163029"/>
                <path d="M53.107,39.529h-.968l-.183.434h-.338l.848-1.92h.331l.84,1.92h-.346l-.183-.434ZM52.984,39.242l-.363-.853-.362.853h.725Z" fill="#163029"/>
                <path d="M54.484,38.334c-.189,0-.312.071-.312.2,0,.42,1.036.195,1.034.886,0,.343-.301.554-.724.554-.301,0-.587-.124-.785-.305l.14-.28c.198.181.444.28.65.28.225,0,.36-.085.36-.233,0-.428-1.037-.189-1.037-.872,0-.329.283-.535.7-.535.25,0,.494.079.672.197l-.134.286c-.21-.126-.418-.178-.563-.178Z" fill="#163029"/>
                <path d="M56.444,38.323c-.384,0-.686.296-.686.675s.303.677.686.677c.191,0,.389-.088.534-.227l.193.213c-.195.192-.472.316-.744.316-.562,0-.998-.425-.998-.977,0-.546.441-.966,1.01-.966.271,0,.542.113.73.296l-.19.237c-.14-.151-.339-.244-.534-.244Z" fill="#163029"/>
                <path d="M59.338,39.003c0,.549-.444.974-1.018.974s-1.018-.425-1.018-.974.444-.968,1.018-.968,1.018.42,1.018.968ZM57.631,39.003c0,.381.316.683.692.683s.682-.302.682-.683-.307-.677-.682-.677c-.379,0-.692.296-.692.677Z" fill="#163029"/>
              </g>
            </g>
            <g>
              <path d="M67.719,26.407c-1.149,0-1.72.939-1.63,2.397.233-.639.803-.992,1.593-.992,1.045,0,1.691.639,1.691,1.66,0,1.066-.714,1.727-1.803,1.727-1.293,0-2.082-.916-2.082-2.532,0-1.683.841-2.779,2.194-2.779.487,0,1.067.15,1.502.375l-.24.466c-.354-.202-.812-.323-1.226-.323ZM66.225,29.502c0,.511.39,1.172,1.307,1.172.751,0,1.278-.459,1.278-1.217,0-.714-.481-1.157-1.233-1.157-.849,0-1.352.571-1.352,1.202Z" fill="#163029"/>
              <path d="M72.583,25.911l-1.93,3.313h1.998v-1.405h.563v1.405h.827v.556h-.827v1.397h-.563v-1.397h-2.637v-.481l1.975-3.388h.593Z" fill="#163029"/>
            </g>
            <g opacity=".3">
              <g>
                <path d="M66.759,35.706c0,.554-.419.96-1.001.96h-.778v-1.92h.787c.575,0,.992.403.992.96ZM66.433,35.709c0-.392-.294-.672-.672-.672h-.457v1.338h.472c.373,0,.658-.277.658-.666Z" fill="#163029"/>
                <path d="M68.91,35.706c0,.549-.445.974-1.019.974s-1.018-.425-1.018-.974.444-.968,1.018-.968,1.019.42,1.019.968ZM67.202,35.706c0,.381.316.683.692.683s.683-.302.683-.683-.307-.677-.683-.677c-.379,0-.692.296-.692.677Z" fill="#163029"/>
                <path d="M69.582,34.746v1.626h.831v.293h-1.154v-1.92h.324Z" fill="#163029"/>
                <path d="M72.601,35.706c0,.549-.444.974-1.018.974s-1.018-.425-1.018-.974.444-.968,1.018-.968,1.018.42,1.018.968ZM70.894,35.706c0,.381.316.683.692.683s.683-.302.683-.683-.307-.677-.683-.677c-.379,0-.692.296-.692.677Z" fill="#163029"/>
                <path d="M74.168,36.666l-.351-.582c-.028.003-.058.003-.088.003h-.454v.579h-.324v-1.92h.778c.491,0,.774.238.774.656,0,.307-.143.523-.398.622l.431.642h-.368ZM73.729,35.797c.296,0,.466-.127.466-.387,0-.252-.17-.373-.466-.373h-.454v.76h.454Z" fill="#163029"/>
                <path d="M66.13,39.529h-.968l-.183.434h-.338l.848-1.92h.331l.84,1.92h-.346l-.183-.434ZM66.007,39.242l-.363-.853-.362.853h.725Z" fill="#163029"/>
                <path d="M67.303,38.043l.633,1.275.632-1.275h.381v1.92h-.299l-.003-1.434-.607,1.234h-.211l-.607-1.234v1.434h-.304v-1.92h.384Z" fill="#163029"/>
                <path d="M70.83,38.043v.291h-1.047v.518h.938v.291h-.938v.529h1.081v.291h-1.404v-1.92h1.37Z" fill="#163029"/>
                <path d="M72.572,38.043v.291h-.608v1.629h-.324v-1.629h-.607v-.291h1.538Z" fill="#163029"/>
                <path d="M73.176,38.043v.834h1.017v-.834h.325v1.92h-.325v-.795h-1.017v.795h-.324v-1.92h.324Z" fill="#163029"/>
              </g>
            </g>
          </g>
        </g>
      </g>
    </g>
  </g>
</svg>