<?xml version="1.0" encoding="UTF-8"?>
<svg id="Layer_2" data-name="Layer 2" xmlns="http://www.w3.org/2000/svg" viewBox="0 0 215.193 220.006">
  <g id="Bg">
    <g>
      <rect x="117.643" y="36.843" width="13.384" height=".586" fill="#282828"/>
      <rect x="102.067" y="36.843" width="13.384" height=".586" fill="#282828"/>
      <rect x="102.067" y="113.648" width="13.384" height=".586" fill="#282828"/>
      <rect x="86.49" y="36.843" width="13.384" height=".586" fill="#282828"/>
      <path d="M102.818,70.888l-1.166,1.166,1.776,1.776c.032-.213.055-.43.055-.652,0-.843-.249-1.624-.664-2.29Z" fill="#282828"/>
      <rect x="117.643" y="113.648" width="13.384" height=".586" fill="#282828"/>
      <rect x="70.913" y="113.648" width="13.384" height=".586" fill="#282828"/>
      <rect x="86.49" y="113.648" width="13.384" height=".586" fill="#282828"/>
      <rect x="70.913" y="36.843" width="13.384" height=".586" fill="#282828"/>
      <path d="M208.662,135.441l-26.468-25.782,24.406-24.063c4.469-4.47,6.532-9.283,6.532-16.158v-24.063c0-5.5-2.751-11.345-6.532-15.469l-23.033-23.033c-4.811-4.813-9.624-6.875-16.499-6.875H9.626C2.751,0,0,2.751,0,9.626v200.754c0,6.875,2.751,9.626,9.626,9.626h158.815c6.875,0,11.688-2.062,16.501-6.875l23.719-23.719c3.781-3.781,6.532-9.969,6.532-15.469v-22.344c0-6.875-2.062-11.688-6.532-16.158ZM131.749,100.092l-.36.361-4.393-4.393.36-.361,4.393,4.393ZM131.004,93.497v-45.14h.565v45.14h-.565ZM131.623,42.555h-60.969v-3.252h60.969v3.252ZM111.244,71.955c.922-.269,1.882-.408,2.849-.408.479,3.257-.098,6.692-1.877,9.753-1.582,2.721-3.891,4.764-6.54,6.024-.541-.806-.959-1.681-1.249-2.595,2.146-1.019,4.017-2.673,5.298-4.877,1.441-2.479,1.907-5.26,1.518-7.897ZM108.778,71.861c-.652.536-1.348,1.018-2.084,1.44-.518.447-1.002.945-1.445,1.491l-1.295-.435,5.613,5.613-.36.361-7.917-7.917-4.453,4.453c.667.416,1.45.662,2.293.662,1.383,0,2.616-.645,3.412-1.652l1.599.537c-3.129,5.507-1.353,12.545,4.084,15.891,3.815,2.347,8.439,2.267,12.072.187-4.872,3.786-11.774,4.369-17.339.945-1.497-.921-2.777-2.059-3.828-3.348-1.051,1.289-2.331,2.428-3.827,3.348-5.565,3.424-12.467,2.841-17.339-.945,3.631,2.079,8.256,2.16,12.071-.187,4.734-2.913,6.688-8.623,5.051-13.686l-1.712,1.712-.361-.361,1.878-1.878c-.216-.573-.466-1.139-.778-1.687l1.458-.725c.237.336.524.631.844.888l4.515-4.514-3.033-3.032c-1.799.533-3.117,2.185-3.117,4.156,0,.256.023.507.065.751l-1.806.897c-.465-.578-.977-1.103-1.527-1.572-.686-.4-1.338-.851-1.951-1.349-3.606-1.99-8.151-2.035-11.909.277-3.26,2.006-5.204,5.34-5.563,8.875-.204-5.317,2.387-10.588,7.242-13.576,1.758-1.082,3.65-1.762,5.57-2.07-.613-1.647-.948-3.431-.948-5.291,0-5.682,3.121-10.635,7.741-13.24-2.813,2.152-4.629,5.543-4.629,9.359,0,4.124,2.12,7.752,5.33,9.856,1.002.354,1.969.812,2.884,1.371.459.146.931.264,1.413.353l-3.682-3.682.361-.361,4.164,4.164c.214.024.43.044.647.056v.591l3.105,3.105,1.234-1.234c-.609-.759-1.465-1.31-2.448-1.528v-.98c5.923-.617,10.541-5.625,10.541-11.712,0-4.465-2.484-8.349-6.146-10.345,5.759,2.158,9.859,7.713,9.859,14.226,0,1.862-.336,3.646-.949,5.295,1.911.309,3.795.988,5.547,2.066,4.855,2.988,7.446,8.259,7.242,13.576-.359-3.535-2.303-6.869-5.563-8.875-3.731-2.295-8.237-2.268-11.83-.321ZM131.623,116.108v3.252h-60.969v-3.252h60.969ZM117.124,114.753v-1.625h14.423v1.625h-14.423ZM106.394,147.988c.004,1.544-.659,2.931-1.713,3.899l4.888,4.888-.36.361-4.921-4.921c-.88.664-1.971,1.063-3.158,1.067-1.107.003-2.134-.336-2.985-.916l-4.77,4.771-.361-.361,4.721-4.72c-1.156-.965-1.894-2.414-1.898-4.037-.003-1.198.397-2.299,1.066-3.187l-3.532-3.532c-1.333,1.698-2.13,3.838-2.123,6.166,0,.16,0,.313.016.466l-17.176.31c-.008-.24-.008-.488-.009-.728-.027-9.859,5.206-18.502,13.064-23.271l8.859,14.706c-.865.532-1.641,1.193-2.304,1.955l3.535,3.535c.962-1.047,2.336-1.709,3.87-1.713,1.634-.004,3.096.734,4.068,1.898l3.668-3.668c-.596-.59-1.276-1.114-2.037-1.553-.139-.08-.271-.156-.411-.22l8.344-15.016c.212.113.426.237.635.357,8.544,4.919,13.399,13.781,13.585,22.971l-17.165.292c-.061-2.369-.97-4.675-2.598-6.461l-3.709,3.709c.575.842.912,1.86.915,2.956ZM70.394,114.753v-1.625h14.423v1.625h-14.423ZM70.654,125.162h.565v45.14h-.565v-45.14ZM74.866,172.504l.361.361-4.393,4.393-.361-.361,4.393-4.393ZM127.357,172.504l4.393,4.393-.36.361-4.393-4.393.36-.361ZM131.004,170.302v-45.14h.565v45.14h-.565ZM85.971,114.753v-1.625h14.422v1.625h-14.422ZM115.97,114.753h-14.423v-1.625h14.423v1.625ZM88.051,79.072c1.234,2.588,3.267,4.542,5.664,5.709-.299.913-.725,1.784-1.271,2.582-2.96-1.442-5.47-3.856-6.993-7.052-1.354-2.842-1.737-5.901-1.284-8.798.97.008,1.929.157,2.847.433-.369,2.347-.06,4.825,1.037,7.126ZM74.866,95.699l.361.361-4.393,4.393-.361-.361,4.393-4.393ZM70.654,93.497v-45.14h.565v45.14h-.565ZM99.299,58.622c3.148,0,6.074.97,8.495,2.627-.425.872-.971,1.674-1.616,2.384-1.96-1.343-4.33-2.13-6.879-2.13-2.867,0-5.506.995-7.591,2.656-.696-.662-1.298-1.422-1.784-2.258,2.575-2.051,5.834-3.278,9.375-3.278ZM117.124,36.324h14.423v1.625h-14.423v-1.625ZM101.547,36.324h14.423v1.625h-14.423v-1.625ZM85.971,36.324h14.422v1.625h-14.422v-1.625ZM70.394,36.324h14.423v1.625h-14.423v-1.625ZM66.938,100.232l.71-.71v-6.492h.51v9.054h21.358l1.02,1.02h3.975v.51h-4.186l-1.02-1.02h-14.878l-1.137,1.137h-6.353v-3.498ZM94.511,180.418h-4.186l-1.02-1.02h-14.878l-1.137,1.137h-6.353v-3.498l.71-.71v-6.492h.51v9.054h21.358l1.02,1.02h3.975v.51ZM87.524,172.098l8.354-14.998c2.944,1.606,6.632,1.689,9.754-.112.139-.08.271-.157.397-.245l8.81,14.748c-.205.126-.419.25-.627.37-8.54,4.926-18.641,4.683-26.686.237ZM135.284,180.535h-6.352l-1.137-1.137h-14.877l-1.02,1.02h-4.187v-.51h3.975l1.02-1.02h21.357v-9.054h.511v6.493l.71.71v3.498ZM135.284,103.73h-6.352l-1.137-1.137h-14.877l-1.02,1.02h-4.187v-.51h3.975l1.02-1.02h21.357v-9.054h.511v6.493l.71.709v3.498Z" fill="#282828"/>
    </g>
  </g>
</svg>