<?xml version="1.0" encoding="UTF-8"?>
<svg id="Layer_2" data-name="Layer 2" xmlns="http://www.w3.org/2000/svg" viewBox="0 0 217.798 222.67">
  <g id="Bg">
    <g>
      <path d="M0,9.742C0,2.784,2.784,0,9.742,0h159.348c6.958,0,11.83,2.087,16.699,6.958l23.311,23.311c3.827,4.174,6.611,10.09,6.611,15.656v24.354c0,6.958-2.087,11.83-6.611,16.353l-24.702,24.354,26.789,26.094c4.524,4.524,6.611,9.395,6.611,16.353v22.614c0,5.566-2.784,11.83-6.611,15.656l-24.007,24.007c-4.871,4.871-9.742,6.958-16.701,6.958H9.742c-6.958,0-9.742-2.784-9.742-9.742V9.742Z" fill="#282828"/>
      <g>
        <path d="M120.369,68.299c-1.773-1.09-3.68-1.778-5.614-2.091.62-1.669.96-3.475.96-5.359,0-6.592-4.15-12.214-9.978-14.399,3.706,2.021,6.22,5.952,6.22,10.47,0,6.16-4.674,11.229-10.669,11.853v.992c1.972.436,3.446,2.196,3.446,4.298,0,.342-.039.675-.113.995l1.902.639c.448-.552.937-1.056,1.462-1.509.744-.427,1.449-.916,2.109-1.458,3.637-1.971,8.197-1.998,11.974.325,3.3,2.031,5.267,5.405,5.63,8.983.206-5.381-2.416-10.716-7.33-13.74ZM109.537,93.423c-5.503-3.386-7.3-10.509-4.133-16.083l-1.619-.544c-.806,1.019-2.053,1.672-3.454,1.672-1.489,0-2.805-.739-3.602-1.871l-1.476.733c3.175,5.575,1.379,12.705-4.128,16.093-3.861,2.376-8.542,2.294-12.217.189,4.931,3.832,11.916,4.422,17.549.957,1.514-.932,2.81-2.084,3.874-3.389,1.064,1.305,2.36,2.457,3.875,3.389,5.632,3.466,12.618,2.875,17.549-.957-3.676,2.105-8.357,2.186-12.218-.189ZM90.647,72.776c.62.505,1.28.961,1.974,1.366.557.475,1.074,1.006,1.545,1.591l1.828-.908c-.043-.247-.066-.501-.066-.76,0-2.103,1.475-3.862,3.446-4.298v-.946c-1.019-.056-2.004-.24-2.939-.537-.926-.566-1.905-1.03-2.919-1.388-3.249-2.129-5.394-5.801-5.394-9.975,0-3.862,1.838-7.294,4.684-9.472-4.676,2.636-7.835,7.649-7.835,13.4,0,1.883.339,3.688.959,5.355-1.943.312-3.858,1-5.637,2.095-4.914,3.024-7.537,8.359-7.33,13.74.363-3.578,2.33-6.952,5.63-8.983,3.804-2.34,8.403-2.295,12.053-.281Z" fill="#ff931e"/>
        <path d="M92.818,64.935c2.11-1.682,4.781-2.688,7.683-2.688,2.58,0,4.979.796,6.962,2.155.652-.718,1.205-1.53,1.635-2.412-2.45-1.676-5.411-2.658-8.597-2.658-3.583,0-6.882,1.242-9.488,3.318.492.846,1.101,1.615,1.806,2.286Z" fill="#ff931e"/>
        <path d="M112.591,72.826c.394,2.669-.078,5.484-1.536,7.993-1.297,2.231-3.19,3.904-5.362,4.936.293.925.717,1.811,1.264,2.626,2.68-1.276,5.018-3.343,6.619-6.097,1.801-3.098,2.385-6.574,1.9-9.871-.979,0-1.95.141-2.884.412Z" fill="#ff931e"/>
        <path d="M94.849,85.808c-2.426-1.181-4.484-3.159-5.732-5.779-1.11-2.329-1.423-4.837-1.05-7.212-.929-.28-1.899-.43-2.881-.438-.459,2.933-.072,6.029,1.299,8.905,1.542,3.235,4.082,5.678,7.077,7.138.552-.808.984-1.689,1.286-2.613Z" fill="#ff931e"/>
      </g>
      <g>
        <path d="M92.351,149.25c0,.162,0,.317.016.472l-17.384.314c-.008-.243-.009-.494-.009-.737-.028-9.978,5.269-18.726,13.222-23.553l8.966,14.884c-2.891,1.777-4.821,4.973-4.81,8.621Z" fill="#ff931e"/>
        <path d="M108.091,141.089c-.14-.081-.274-.158-.416-.223l8.445-15.198c.214.115.431.24.642.361,8.647,4.979,13.561,13.947,13.75,23.249l-17.373.295c-.088-3.393-1.886-6.665-5.048-8.485Z" fill="#ff931e"/>
        <path d="M106.91,158.888c.14-.081.275-.158.402-.248l8.916,14.927c-.207.128-.424.253-.635.375-8.643,4.986-18.867,4.74-27.009.24l8.455-15.18c2.979,1.625,6.712,1.71,9.872-.113Z" fill="#ff931e"/>
        <path d="M107.682,149.78c-.008-2.951-2.407-5.336-5.358-5.328-2.951.008-5.336,2.407-5.328,5.358.008,2.951,2.407,5.336,5.358,5.328,2.951-.008,5.336-2.407,5.328-5.358Z" fill="#ff931e"/>
      </g>
      <g>
        <rect x="71.509" y="117.514" width="61.707" height="3.291" fill="#ff931e"/>
        <g>
          <rect x="70.588" y="176.74" width="6.288" height=".517" transform="translate(-103.557 103.967) rotate(-44.996)" fill="#ff931e"/>
          <polygon points="95.656 182.603 91.419 182.603 90.387 181.57 68.467 181.57 68.467 171.891 68.984 171.891 68.984 181.054 90.6 181.054 91.633 182.086 95.656 182.086 95.656 182.603" fill="#ff931e"/>
          <polygon points="68.725 178.204 67.749 179.18 67.749 182.721 74.178 182.721 75.599 181.3 68.725 181.3 68.725 178.204" fill="#ff931e"/>
          <rect x="71.509" y="126.677" width=".572" height="45.687" fill="#ff931e"/>
        </g>
        <g>
          <rect x="130.681" y="173.854" width=".516" height="6.288" transform="translate(-86.804 144.422) rotate(-44.998)" fill="#ff931e"/>
          <polygon points="113.252 182.603 109.015 182.603 109.015 182.086 113.039 182.086 114.071 181.054 135.687 181.054 135.687 171.891 136.204 171.891 136.204 181.57 114.285 181.57 113.252 182.603" fill="#ff931e"/>
          <polygon points="135.945 178.204 136.922 179.18 136.922 182.721 130.493 182.721 129.072 181.3 135.945 181.3 135.945 178.204" fill="#ff931e"/>
          <rect x="132.59" y="126.677" width=".572" height="45.687" transform="translate(265.752 299.041) rotate(180)" fill="#ff931e"/>
        </g>
        <g opacity=".44">
          <rect x="90.927" y="150.403" width="23.18" height=".516" transform="translate(-76.506 116.617) rotate(-45)" fill="#ff931e"/>
          <rect x="102.259" y="139.071" width=".516" height="23.18" transform="translate(-76.507 116.621) rotate(-45.001)" fill="#ff931e"/>
        </g>
        <path d="M85.843,116.142h-14.597v-1.644h14.597v1.644ZM71.772,115.617h13.546v-.593h-13.546v.593Z" fill="#ff931e"/>
        <path d="M101.608,116.142h-14.597v-1.644h14.597v1.644ZM87.537,115.617h13.546v-.593h-13.546v.593Z" fill="#ff931e"/>
        <path d="M117.374,116.142h-14.597v-1.644h14.597v1.644ZM103.302,115.617h13.546v-.593h-13.546v.593Z" fill="#ff931e"/>
        <path d="M133.139,116.142h-14.597v-1.644h14.597v1.644ZM119.067,115.617h13.546v-.593h-13.546v.593Z" fill="#ff931e"/>
      </g>
      <g>
        <rect x="71.509" y="39.779" width="61.707" height="3.291" fill="#ff931e"/>
        <g>
          <rect x="70.588" y="99.005" width="6.288" height=".517" transform="translate(-48.594 81.21) rotate(-45)" fill="#ff931e"/>
          <polygon points="95.656 104.868 91.419 104.868 90.387 103.835 68.467 103.835 68.467 94.156 68.984 94.156 68.984 103.319 90.6 103.319 91.633 104.352 95.656 104.352 95.656 104.868" fill="#ff931e"/>
          <polygon points="68.725 100.469 67.749 101.446 67.749 104.986 74.178 104.986 75.599 103.565 68.725 103.565 68.725 100.469" fill="#ff931e"/>
          <rect x="71.509" y="48.943" width=".572" height="45.687" fill="#ff931e"/>
        </g>
        <g>
          <rect x="130.681" y="96.12" width=".516" height="6.288" transform="translate(-31.84 121.656) rotate(-44.998)" fill="#ff931e"/>
          <polygon points="113.252 104.868 109.015 104.868 109.015 104.352 113.039 104.352 114.071 103.319 135.687 103.319 135.687 94.156 136.204 94.156 136.204 103.835 114.285 103.835 113.252 104.868" fill="#ff931e"/>
          <polygon points="135.945 100.469 136.922 101.446 136.922 104.986 130.493 104.986 129.072 103.565 135.945 103.565 135.945 100.469" fill="#ff931e"/>
          <rect x="132.59" y="48.943" width=".572" height="45.687" transform="translate(265.752 143.572) rotate(180)" fill="#ff931e"/>
        </g>
        <g opacity=".44">
          <rect x="90.927" y="72.668" width="23.18" height=".516" transform="translate(-21.541 93.842) rotate(-44.996)" fill="#ff931e"/>
          <rect x="102.259" y="61.336" width=".516" height="23.18" transform="translate(-21.539 93.852) rotate(-45.001)" fill="#ff931e"/>
        </g>
        <path d="M85.843,38.408h-14.597v-1.644h14.597v1.644ZM71.772,37.882h13.546v-.593h-13.546v.593Z" fill="#ff931e"/>
        <path d="M101.608,38.408h-14.597v-1.644h14.597v1.644ZM87.537,37.882h13.546v-.593h-13.546v.593Z" fill="#ff931e"/>
        <path d="M117.374,38.408h-14.597v-1.644h14.597v1.644ZM103.302,37.882h13.546v-.593h-13.546v.593Z" fill="#ff931e"/>
        <path d="M133.139,38.408h-14.597v-1.644h14.597v1.644ZM119.067,37.882h13.546v-.593h-13.546v.593Z" fill="#ff931e"/>
      </g>
    </g>
  </g>
</svg>