<?xml version="1.0" encoding="UTF-8"?>
<svg id="Layer_2" data-name="Layer 2" xmlns="http://www.w3.org/2000/svg" viewBox="0 0 612.242 114.717">
  <g id="Bg">
    <path d="M325.948,51.398c-3.286,0-5.96,2.674-5.96,5.96s2.674,5.96,5.96,5.96,5.96-2.674,5.96-5.96-2.674-5.96-5.96-5.96ZM330.335,57.359c0,2.419-1.968,4.387-4.387,4.387s-4.387-1.968-4.387-4.387,1.968-4.387,4.387-4.387,4.387,1.968,4.387,4.387Z" fill="red"/>
    <polygon points="312.211 43.767 304.617 36.172 304.762 36.028 312.356 43.622 312.211 43.767" fill="#282828" stroke="red" stroke-miterlimit="10" stroke-width=".758"/>
    <polygon points="304.762 78.689 304.617 78.545 312.211 70.951 312.356 71.095 304.762 78.689" fill="#282828" stroke="red" stroke-miterlimit="10" stroke-width=".758"/>
    <polygon points="347.431 78.689 347.576 78.545 339.981 70.951 339.836 71.095 347.431 78.689" fill="#282828" stroke="red" stroke-miterlimit="10" stroke-width=".758"/>
    <polygon points="339.685 43.767 339.54 43.622 347.134 36.028 347.279 36.172 339.685 43.767" fill="#282828" stroke="red" stroke-miterlimit="10" stroke-width=".758"/>
    <path d="M325.948,114.228c-15.191,0-29.471-5.915-40.213-16.657-10.741-10.742-16.656-25.023-16.656-40.213s5.915-29.472,16.656-40.213C296.477,6.404,310.757.489,325.948.489s29.472,5.915,40.213,16.657c10.741,10.741,16.657,25.022,16.657,40.213s-5.916,29.472-16.657,40.213c-10.741,10.741-25.022,16.657-40.213,16.657ZM325.948.693c-31.246,0-56.665,25.42-56.665,56.666s25.42,56.665,56.665,56.665,56.665-25.42,56.665-56.665S357.193.693,325.948.693Z" fill="#282828" stroke="#163029" stroke-miterlimit="10" stroke-width=".978"/>
    <g>
      <path d="M271.22,57.359h-2.04c0,31.352,25.416,56.767,56.767,56.767v-2.039c-30.177,0-54.727-24.551-54.727-54.728Z" fill="#282828"/>
      <path d="M380.676,57.359h2.04c0-31.352-25.416-56.768-56.768-56.768,0,0,0,2.039,0,2.039,30.177,0,54.728,24.551,54.728,54.728Z" fill="#282828"/>
    </g>
    <g>
      <g>
        <g opacity=".7">
          <rect x="321.675" y="96.974" width="8.547" height=".204" fill="#282828"/>
        </g>
        <g opacity=".7">
          <rect x="321.191" y="94.105" width="9.514" height=".204" fill="#282828"/>
        </g>
        <g opacity=".7">
          <rect x="320.743" y="91.236" width="10.411" height=".204" fill="#282828"/>
        </g>
        <g opacity=".7">
          <rect x="320.277" y="88.367" width="11.343" height=".204" fill="#282828"/>
        </g>
        <g opacity=".7">
          <rect x="319.811" y="85.498" width="12.274" height=".204" fill="#282828"/>
        </g>
        <g opacity=".7">
          <rect x="319.344" y="82.629" width="13.207" height=".204" fill="#282828"/>
        </g>
        <g opacity=".7">
          <rect x="318.878" y="79.76" width="14.139" height=".204" fill="#282828"/>
        </g>
        <g opacity=".7">
          <rect x="318.413" y="76.891" width="15.07" height=".204" fill="#282828"/>
        </g>
        <g opacity=".7">
          <rect x="317.947" y="74.022" width="16.002" height=".204" fill="#282828"/>
        </g>
        <g opacity=".7">
          <rect x="317.481" y="71.153" width="16.935" height=".204" fill="#282828"/>
        </g>
        <g opacity=".7">
          <rect x="317.015" y="68.284" width="17.867" height=".204" fill="#282828"/>
        </g>
      </g>
      <g>
        <g opacity=".7">
          <rect x="321.675" y="17.539" width="8.547" height=".204" fill="#282828"/>
        </g>
        <g opacity=".7">
          <rect x="321.191" y="20.408" width="9.514" height=".204" fill="#282828"/>
        </g>
        <g opacity=".7">
          <rect x="320.743" y="23.277" width="10.411" height=".204" fill="#282828"/>
        </g>
        <g opacity=".7">
          <rect x="320.277" y="26.146" width="11.343" height=".204" fill="#282828"/>
        </g>
        <g opacity=".7">
          <rect x="319.811" y="29.015" width="12.274" height=".204" fill="#282828"/>
        </g>
        <g opacity=".7">
          <rect x="319.344" y="31.885" width="13.207" height=".204" fill="#282828"/>
        </g>
        <g opacity=".7">
          <rect x="318.878" y="34.753" width="14.139" height=".204" fill="#282828"/>
        </g>
        <g opacity=".7">
          <rect x="318.413" y="37.622" width="15.07" height=".204" fill="#282828"/>
        </g>
        <g opacity=".7">
          <rect x="317.947" y="40.491" width="16.002" height=".204" fill="#282828"/>
        </g>
        <g opacity=".7">
          <rect x="317.481" y="43.36" width="16.935" height=".204" fill="#282828"/>
        </g>
        <g opacity=".7">
          <rect x="317.015" y="46.229" width="17.867" height=".204" fill="#282828"/>
        </g>
      </g>
    </g>
    <g opacity=".7">
      <rect x="325.846" y="3.531" width=".204" height="3.349" fill="#282828"/>
    </g>
    <g opacity=".7">
      <polygon points="317.082 7.664 316.501 4.366 316.702 4.331 317.282 7.629 317.082 7.664" fill="#282828"/>
    </g>
    <g opacity=".7">
      <polygon points="308.588 9.959 307.442 6.812 307.633 6.742 308.779 9.889 308.588 9.959" fill="#282828"/>
    </g>
    <g opacity=".7">
      <rect x="299.769" y="10.518" width=".204" height="3.349" transform="translate(34.091 151.591) rotate(-30.005)" fill="#282828"/>
    </g>
    <g opacity=".7">
      <polygon points="296.427 22.321 294.473 19.992 294.615 19.873 296.569 22.202 296.427 22.321" fill="#282828"/>
    </g>
    <g opacity=".7">
      <polygon points="290.792 27.979 288.463 26.026 288.582 25.884 290.91 27.838 290.792 27.979" fill="#282828"/>
    </g>
    <g opacity=".7">
      <rect x="284.861" y="32.171" width=".185" height="3.039" transform="translate(113.3 263.623) rotate(-60)" fill="#282828"/>
    </g>
    <g opacity=".7">
      <polygon points="282.863 41.776 280.007 40.736 280.07 40.562 282.927 41.601 282.863 41.776" fill="#282828"/>
    </g>
    <g opacity=".7">
      <polygon points="280.812 49.494 277.818 48.966 277.85 48.784 280.844 49.312 280.812 49.494" fill="#282828"/>
    </g>
    <g opacity=".7">
      <rect x="277.092" y="57.266" width="3.039" height=".185" fill="#282828"/>
    </g>
    <g opacity=".7">
      <polygon points="277.85 65.934 277.818 65.751 280.812 65.223 280.844 65.406 277.85 65.934" fill="#282828"/>
    </g>
    <g opacity=".7">
      <polygon points="280.07 74.156 280.007 73.981 282.863 72.942 282.927 73.116 280.07 74.156" fill="#282828"/>
    </g>
    <g opacity=".7">
      <rect x="283.434" y="80.934" width="3.039" height=".185" transform="translate(-2.379 153.164) rotate(-29.966)" fill="#282828"/>
    </g>
    <g opacity=".7">
      <polygon points="288.582 88.834 288.463 88.692 290.792 86.738 290.91 86.88 288.582 88.834" fill="#282828"/>
    </g>
    <g opacity=".7">
      <polygon points="294.615 94.844 294.473 94.725 296.427 92.397 296.569 92.516 294.615 94.844" fill="#282828"/>
    </g>
    <g opacity=".7">
      <rect x="349.524" y="96.833" width=".185" height="3.04" transform="translate(-2.329 188.014) rotate(-30.005)" fill="#282828"/>
    </g>
    <g opacity=".7">
      <polygon points="357.282 94.844 355.328 92.516 355.469 92.397 357.423 94.725 357.282 94.844" fill="#282828"/>
    </g>
    <g opacity=".7">
      <polygon points="363.315 88.834 360.986 86.88 361.105 86.738 363.433 88.692 363.315 88.834" fill="#282828"/>
    </g>
    <g opacity=".7">
      <rect x="366.85" y="79.507" width=".185" height="3.039" transform="translate(113.3 358.295) rotate(-60)" fill="#282828"/>
    </g>
    <g opacity=".7">
      <polygon points="371.826 74.156 368.97 73.116 369.033 72.942 371.89 73.981 371.826 74.156" fill="#282828"/>
    </g>
    <g opacity=".7">
      <polygon points="374.046 65.934 371.052 65.406 371.084 65.223 374.078 65.751 374.046 65.934" fill="#282828"/>
    </g>
    <g opacity=".7">
      <rect x="371.765" y="57.266" width="3.039" height=".185" fill="#282828"/>
    </g>
    <g opacity=".7">
      <polygon points="371.084 49.494 371.052 49.312 374.046 48.784 374.078 48.966 371.084 49.494" fill="#282828"/>
    </g>
    <g opacity=".7">
      <rect x="368.91" y="41.076" width="3.04" height=".186" transform="translate(8.332 129.478) rotate(-20.048)" fill="#282828"/>
    </g>
    <g opacity=".7">
      <rect x="365.423" y="33.598" width="3.039" height=".185" transform="translate(32.225 187.789) rotate(-29.966)" fill="#282828"/>
    </g>
    <g opacity=".7">
      <polygon points="361.105 27.979 360.986 27.838 363.315 25.884 363.433 26.026 361.105 27.979" fill="#282828"/>
    </g>
    <g opacity=".7">
      <polygon points="355.469 22.321 355.328 22.202 357.282 19.873 357.423 19.992 355.469 22.321" fill="#282828"/>
    </g>
    <g opacity=".7">
      <rect x="348.096" y="16.272" width="3.04" height=".185" transform="translate(160.809 311.07) rotate(-60.034)" fill="#282828"/>
    </g>
    <g opacity=".7">
      <polygon points="343.309 9.959 343.117 9.889 344.263 6.742 344.454 6.812 343.309 9.959" fill="#282828"/>
    </g>
    <g opacity=".7">
      <polygon points="334.814 7.664 334.613 7.629 335.195 4.331 335.395 4.366 334.814 7.664" fill="#282828"/>
    </g>
    <path d="M325.948,100.976c-24.05,0-43.616-19.567-43.616-43.617s19.566-43.617,43.616-43.617,43.617,19.567,43.617,43.617-19.567,43.617-43.617,43.617ZM325.948,13.946c-23.938,0-43.413,19.475-43.413,43.413s19.475,43.413,43.413,43.413,43.413-19.475,43.413-43.413-19.475-43.413-43.413-43.413Z" fill="#282828" stroke="#163029" stroke-miterlimit="10" stroke-width=".978"/>
    <path d="M291.531,59.63l-3.982-2.271,3.982-2.272v4.543ZM287.923,57.359l3.423,1.952v-3.905l-3.423,1.953Z" fill="red"/>
    <path d="M360.365,59.63v-4.543l3.982,2.272-3.982,2.271ZM360.55,55.406v3.905l3.423-1.952-3.423-1.953Z" fill="red"/>
    <g>
      <g>
        <path d="M293.927,28.771c0,.305-.247.551-.551.551s-.552-.247-.552-.551.247-.552.552-.552.551.247.551.552Z" fill="#282828"/>
        <path d="M306.956,28.771c0,.305-.247.551-.552.551s-.551-.247-.551-.551.247-.552.551-.552.552.247.552.552Z" fill="#282828"/>
        <path d="M319.985,28.771c0,.305-.247.551-.552.551s-.551-.247-.551-.551.247-.552.551-.552.552.247.552.552Z" fill="#282828"/>
        <path d="M333.014,28.771c0,.305-.247.551-.551.551s-.551-.247-.551-.551.247-.552.551-.552.551.247.551.552Z" fill="#282828"/>
        <path d="M346.043,28.771c0,.305-.247.551-.551.551s-.552-.247-.552-.551.247-.552.552-.552.551.247.551.552Z" fill="#282828"/>
        <path d="M359.072,28.771c0,.305-.247.551-.551.551s-.552-.247-.552-.551.247-.552.552-.552.551.247.551.552Z" fill="#282828"/>
      </g>
      <g>
        <path d="M293.927,38.3c0,.305-.247.552-.551.552s-.552-.247-.552-.552.247-.551.552-.551.551.247.551.551Z" fill="#282828"/>
        <path d="M306.956,38.3c0,.305-.247.552-.552.552s-.551-.247-.551-.552.247-.551.551-.551.552.247.552.551Z" fill="#282828"/>
        <path d="M319.985,38.3c0,.305-.247.552-.552.552s-.551-.247-.551-.552.247-.551.551-.551.552.247.552.551Z" fill="#282828"/>
        <path d="M333.014,38.3c0,.305-.247.552-.551.552s-.551-.247-.551-.552.247-.551.551-.551.551.247.551.551Z" fill="#282828"/>
        <path d="M319.985,19.242c0-.305-.247-.551-.552-.551s-.551.247-.551.551.247.552.551.552.552-.247.552-.552Z" fill="#282828"/>
        <path d="M333.014,19.242c0-.305-.247-.551-.551-.551s-.551.247-.551.551.247.552.551.552.551-.247.551-.552Z" fill="#282828"/>
        <path d="M346.043,38.3c0,.305-.247.552-.551.552s-.552-.247-.552-.552.247-.551.552-.551.551.247.551.551Z" fill="#282828"/>
        <path d="M359.072,38.3c0,.305-.247.552-.551.552s-.552-.247-.552-.552.247-.551.552-.551.551.247.551.551Z" fill="#282828"/>
      </g>
      <g>
        <path d="M293.927,47.83c0,.305-.247.551-.551.551s-.552-.247-.552-.551.247-.551.552-.551.551.247.551.551Z" fill="#282828"/>
        <path d="M306.956,47.83c0,.305-.247.551-.552.551s-.551-.247-.551-.551.247-.551.551-.551.552.247.552.551Z" fill="#282828"/>
        <path d="M319.985,47.83c0,.305-.247.551-.552.551s-.551-.247-.551-.551.247-.551.551-.551.552.247.552.551Z" fill="#282828"/>
        <circle cx="332.463" cy="47.83" r=".551" fill="#282828"/>
        <path d="M346.043,47.83c0,.305-.247.551-.551.551s-.552-.247-.552-.551.247-.551.552-.551.551.247.551.551Z" fill="#282828"/>
        <path d="M359.072,47.83c0,.305-.247.551-.551.551s-.552-.247-.552-.551.247-.551.552-.551.551.247.551.551Z" fill="#282828"/>
      </g>
      <g>
        <path d="M293.927,57.359c0,.305-.247.551-.551.551s-.552-.247-.552-.551.247-.552.552-.552.551.247.551.552Z" fill="#282828"/>
        <path d="M306.956,57.359c0,.305-.247.551-.552.551s-.551-.247-.551-.551.247-.552.551-.552.552.247.552.552Z" fill="#282828"/>
        <path d="M346.043,57.359c0,.305-.247.551-.551.551s-.552-.247-.552-.551.247-.552.552-.552.551.247.551.552Z" fill="#282828"/>
        <path d="M359.072,57.359c0,.305-.247.551-.551.551s-.552-.247-.552-.551.247-.552.552-.552.551.247.551.552Z" fill="#282828"/>
      </g>
      <g>
        <path d="M293.927,66.888c0,.305-.247.552-.551.552s-.552-.247-.552-.552.247-.551.552-.551.551.247.551.551Z" fill="#282828"/>
        <path d="M306.956,66.888c0,.305-.247.552-.552.552s-.551-.247-.551-.552.247-.551.551-.551.552.247.552.551Z" fill="#282828"/>
        <path d="M319.985,66.888c0,.305-.247.552-.552.552s-.551-.247-.551-.552.247-.551.551-.551.552.247.552.551Z" fill="#282828"/>
        <path d="M333.014,66.888c0,.305-.247.552-.551.552s-.551-.247-.551-.552.247-.551.551-.551.551.247.551.551Z" fill="#282828"/>
        <path d="M346.043,66.888c0,.305-.247.552-.551.552s-.552-.247-.552-.552.247-.551.552-.551.551.247.551.551Z" fill="#282828"/>
        <path d="M359.072,66.888c0,.305-.247.552-.551.552s-.552-.247-.552-.552.247-.551.552-.551.551.247.551.551Z" fill="#282828"/>
      </g>
      <g>
        <path d="M293.927,76.417c0,.305-.247.551-.551.551s-.552-.247-.552-.551.247-.551.552-.551.551.247.551.551Z" fill="#282828"/>
        <path d="M306.956,76.417c0,.305-.247.551-.552.551s-.551-.247-.551-.551.247-.551.551-.551.552.247.552.551Z" fill="#282828"/>
        <path d="M319.985,76.417c0,.305-.247.551-.552.551s-.551-.247-.551-.551.247-.551.551-.551.552.247.552.551Z" fill="#282828"/>
        <circle cx="332.463" cy="76.417" r=".551" fill="#282828"/>
        <path d="M319.985,95.475c0-.305-.247-.551-.552-.551s-.551.247-.551.551.247.552.551.552.552-.247.552-.552Z" fill="#282828"/>
        <path d="M333.014,95.475c0-.305-.247-.551-.551-.551s-.551.247-.551.551.247.552.551.552.551-.247.551-.552Z" fill="#282828"/>
        <path d="M346.043,76.417c0,.305-.247.551-.551.551s-.552-.247-.552-.551.247-.551.552-.551.551.247.551.551Z" fill="#282828"/>
        <path d="M359.072,76.417c0,.305-.247.551-.551.551s-.552-.247-.552-.551.247-.551.552-.551.551.247.551.551Z" fill="#282828"/>
      </g>
      <g>
        <path d="M293.927,85.946c0,.305-.247.551-.551.551s-.552-.247-.552-.551.247-.552.552-.552.551.247.551.552Z" fill="#282828"/>
        <path d="M306.956,85.946c0,.305-.247.551-.552.551s-.551-.247-.551-.551.247-.552.551-.552.552.247.552.552Z" fill="#282828"/>
        <path d="M319.985,85.946c0,.305-.247.551-.552.551s-.551-.247-.551-.551.247-.552.551-.552.552.247.552.552Z" fill="#282828"/>
        <path d="M333.014,85.946c0,.305-.247.551-.551.551s-.551-.247-.551-.551.247-.552.551-.552.551.247.551.552Z" fill="#282828"/>
        <path d="M346.043,85.946c0,.305-.247.551-.551.551s-.552-.247-.552-.551.247-.552.552-.552.551.247.551.552Z" fill="#282828"/>
        <path d="M359.072,85.946c0,.305-.247.551-.551.551s-.552-.247-.552-.551.247-.552.552-.552.551.247.551.552Z" fill="#282828"/>
      </g>
    </g>
    <path d="M0,16.135c0-2.82,1.129-3.948,3.948-3.948h64.579c2.821,0,4.795.846,6.768,2.82l9.448,9.448c1.551,1.692,2.679,4.089,2.679,6.345v9.87c0,2.82-.846,4.794-2.679,6.627l-10.012,9.87,10.857,10.576c1.833,1.833,2.679,3.807,2.679,6.627v9.165c0,2.257-1.128,4.794-2.679,6.346l-9.729,9.729c-1.974,1.974-3.948,2.82-6.768,2.82H3.948c-2.82,0-3.948-1.128-3.948-3.948V16.135ZM11.704,52.232h53.158l11.139-11.28-.282-9.165-9.165-9.447H11.704v29.892ZM67.259,92.277l9.588-9.729.282-8.178-12.267-11.985H11.704v29.892h55.555Z" fill="#282828"/>
    <path d="M255.923,23.326c1.833,1.833,1.974,3.526,0,5.359l-3.243,3.101c-1.833,1.833-3.525,1.833-5.499-.282l-8.883-9.307h-48.646l-14.947,14.806v40.467l15.087,14.947h48.787l8.743-9.165c1.974-2.115,3.666-2.256,5.499-.282l2.961,3.102c1.833,1.833,1.833,3.525,0,5.358l-8.884,8.743c-1.833,1.833-3.807,2.679-6.627,2.679h-51.888c-2.821,0-4.794-.846-6.627-2.679l-16.075-15.934c-1.833-1.833-2.679-3.807-2.679-6.627v-40.467c0-2.821.846-4.795,2.82-6.768l15.793-15.793c1.974-1.974,3.948-2.82,6.768-2.82h51.888c2.821,0,4.794.846,6.627,2.679l9.024,8.883Z" fill="#282828"/>
    <path d="M411.639,98.481c0,2.82-1.128,4.089-3.948,4.089h-3.384c-2.821,0-4.09-.987-4.09-3.807V16.135c0-2.82,1.129-3.948,3.948-3.948h61.336c2.82,0,4.794.846,6.627,2.679l11.421,11.562c1.833,1.833,2.679,3.807,2.679,6.627v14.523c0,2.82-.846,4.794-2.679,6.627l-11.562,11.28,10.998,10.857c1.833,1.833,2.679,3.807,2.679,6.627v15.793c0,2.82-1.128,3.948-3.948,3.948h-4.089c-2.821,0-3.948-1.129-3.948-3.807l.282-15.934-12.126-11.985h-50.197v27.496ZM411.639,60.692h50.197l12.549-12.408v-15.369l-10.293-10.293h-52.453v38.07Z" fill="#282828"/>
    <path d="M507.874,16.135c0-2.82,1.129-3.948,3.948-3.948h62.746c2.82,0,4.794.846,6.627,2.679l6.909,6.768c1.833,1.833,1.833,3.666-.141,5.64l-2.538,2.538c-1.974,2.115-3.665,2.115-5.64,0l-7.05-7.332h-53.581v29.047h53.299c2.82,0,3.948,1.128,3.948,3.948v3.384c0,2.821-1.128,3.948-3.807,3.948l-53.44-.141v29.47h54.145l6.909-7.05c1.974-1.974,3.525-2.115,5.499-.282l2.961,2.821c1.833,1.833,1.833,3.525-.282,5.498l-6.768,6.627c-1.833,1.833-3.807,2.679-6.627,2.679h-63.169c-2.82,0-3.948-1.128-3.948-3.948V16.135Z" fill="#282828"/>
    <path d="M142.103,24.916c-.1-2.007.703-2.91,2.71-2.91h2.409c2.007,0,2.809.802,2.809,2.809v7.025c0,2.007-.602,3.411-2.007,4.917l-38.033,39.739.101,7.226c0,2.007-.703,2.91-2.71,2.91h-2.409c-2.007,0-2.81-.802-2.81-2.809v-7.025c0-2.007.603-3.411,2.008-4.917l38.133-39.84-.201-7.125Z" fill="#282828"/>
    <path d="M612.242,20.872c0,4.963-3.479,8.581-8.28,8.581s-8.279-3.618-8.279-8.558c0-5.056,3.479-8.605,8.396-8.605,4.685,0,8.164,3.664,8.164,8.581ZM597.096,20.895c0,4.244,2.876,7.329,6.865,7.329s6.865-3.085,6.865-7.352c0-4.221-2.876-7.352-6.772-7.352-4.105,0-6.958,3.039-6.958,7.375ZM602.732,24.861h-1.322v-7.978h2.969c1.856,0,2.667.696,2.667,2.296,0,1.276-.51,2.018-1.554,2.227l1.67,3.455h-1.438l-1.507-3.363h-1.484v3.363ZM604.379,20.57c.882,0,1.368-.487,1.368-1.368,0-.904-.51-1.368-1.461-1.368h-1.6v2.737h1.693Z" fill="#282828"/>
  </g>
</svg>