<?xml version="1.0" encoding="UTF-8"?>
<svg id="Layer_2" data-name="Layer 2" xmlns="http://www.w3.org/2000/svg" viewBox="0 0 775.443 119.715">
  <g id="Bg">
    <g>
      <path d="M98.219,59.672l13.158-12.972c2.408-2.409,3.521-5.004,3.521-8.71v-12.973c0-2.965-1.482-6.115-3.521-8.339l-12.417-12.417c-2.594-2.594-5.188-3.706-8.896-3.706H5.189C1.483.556,0,2.038,0,5.744v108.227c0,3.706,1.483,5.188,5.189,5.188h85.617c3.706,0,6.301-1.112,8.895-3.706l12.787-12.787c2.039-2.039,3.521-5.374,3.521-8.34v-12.045c0-3.707-1.112-6.301-3.521-8.71l-14.27-13.899ZM15.382,13.898h72.089l12.046,12.416.37,12.046-14.64,14.825H15.382V13.898ZM100.999,93.029l-12.602,12.787H15.382v-39.287h69.865l16.122,15.752-.37,10.748Z" fill="#282828"/>
      <path d="M249.257,13.713h63.935l11.675,12.231c2.595,2.779,4.818,2.779,7.228.37l4.262-4.076c2.595-2.409,2.409-4.634,0-7.043l-11.86-11.675c-2.409-2.409-5.003-3.521-8.71-3.521h-68.196c-3.707,0-6.301,1.111-8.896,3.706l-20.756,20.756c-2.595,2.594-3.706,5.188-3.706,8.896v53.186c0,3.707,1.111,6.301,3.521,8.71l21.127,20.941c2.409,2.409,5.003,3.521,8.71,3.521h68.196c3.707,0,6.301-1.111,8.71-3.521l11.676-11.49c2.409-2.409,2.409-4.633,0-7.042l-3.892-4.077c-2.409-2.594-4.634-2.409-7.228.371l-11.49,12.046h-64.12l-19.829-19.645v-53.186l19.645-19.459Z" fill="#282828"/>
      <path d="M473.032,3.706c-2.595-2.595-5.188-3.706-8.896-3.706h-70.421c-3.706,0-6.301,1.111-8.71,3.521l-21.312,21.497c-2.409,2.409-3.521,5.004-3.521,8.71v52.445c0,3.706,1.111,6.301,3.521,8.71l21.497,21.312c2.409,2.409,5.004,3.521,8.71,3.521h70.235c3.707,0,6.301-1.111,8.71-3.521l21.497-21.127c2.409-2.408,3.521-5.003,3.521-8.71v-52.63c0-3.706-1.112-6.301-3.707-8.896l-21.126-21.126Z" fill="#282828"/>
      <path d="M620.513,4.077c-2.409-2.409-5.004-3.521-8.71-3.521h-80.613c-3.706,0-5.189,1.482-5.189,5.188v108.597c0,3.706,1.668,5.004,5.375,5.004h4.447c3.706,0,5.188-1.668,5.188-5.374v-36.138h65.974l15.938,15.752-.371,20.941c0,3.521,1.482,5.004,5.189,5.004h5.374c3.706,0,5.188-1.483,5.188-5.189v-20.756c0-3.706-1.111-6.301-3.521-8.71l-14.455-14.27,15.196-14.825c2.409-2.409,3.521-5.004,3.521-8.71v-19.088c0-3.706-1.111-6.301-3.521-8.71l-15.011-15.195ZM623.478,47.997l-16.493,16.308h-65.974V14.27h68.938l13.528,13.528v20.199Z" fill="#282828"/>
      <path d="M773.68,99.701l-3.892-3.707c-2.595-2.409-4.633-2.224-7.228.371l-9.08,9.266h-71.162v-38.731l70.235.186c3.521,0,5.003-1.482,5.003-5.189v-4.447c0-3.706-1.482-5.188-5.188-5.188h-70.05V14.084h70.421l9.266,9.637c2.595,2.779,4.818,2.779,7.412,0l3.336-3.336c2.595-2.595,2.595-5.004.186-7.413l-9.08-8.895c-2.409-2.409-5.004-3.521-8.71-3.521h-82.467c-3.706,0-5.189,1.482-5.189,5.188v108.227c0,3.706,1.483,5.188,5.189,5.188h83.022c3.706,0,6.301-1.112,8.71-3.521l8.896-8.71c2.779-2.594,2.779-4.817.37-7.227Z" fill="#282828"/>
      <path d="M193.491,13.461h-3.166c-2.638,0-3.693,1.186-3.561,3.824l.264,9.365-50.118,52.361c-1.847,1.978-2.639,3.824-2.639,6.462v9.233c0,2.638,1.055,3.692,3.693,3.692h3.165c2.638,0,3.562-1.186,3.562-3.824l-.133-9.496,49.986-52.229c1.847-1.978,2.638-3.824,2.638-6.462v-9.233c0-2.638-1.055-3.692-3.692-3.692Z" fill="#282828"/>
    </g>
  </g>
</svg>