<?xml version="1.0" encoding="UTF-8"?>
<svg id="Layer_2" data-name="Layer 2" xmlns="http://www.w3.org/2000/svg" viewBox="0 0 1502.41 231.946">
  <g id="Bg">
    <g>
      <path d="M190.297,115.613l25.494-25.132c4.666-4.668,6.821-9.695,6.821-16.875v-25.134c0-5.744-2.872-11.848-6.821-16.156l-24.058-24.058c-5.025-5.025-10.052-7.18-17.235-7.18H10.055C2.874,1.077,0,3.949,0,11.129v209.688c0,7.18,2.874,10.053,10.055,10.053h165.882c7.18,0,12.208-2.155,17.233-7.18l24.775-24.775c3.951-3.951,6.823-10.412,6.823-16.158v-23.337c0-7.182-2.155-12.208-6.823-16.875l-27.647-26.93ZM29.802,26.928h139.671l23.339,24.056.717,23.339-28.364,28.724H29.802V26.928ZM195.684,180.243l-24.415,24.775H29.802v-76.118h135.363l31.236,30.519-.717,20.824Z" fill="#fff"/>
      <path d="M482.932,26.569h123.872l22.62,23.698c5.027,5.385,9.335,5.385,14.003.717l8.257-7.898c5.027-4.668,4.668-8.978,0-13.646l-22.979-22.62c-4.668-4.668-9.693-6.821-16.875-6.821h-132.129c-7.182,0-12.208,2.153-17.235,7.18l-40.214,40.214c-5.027,5.025-7.181,10.053-7.181,17.235v103.046c0,7.182,2.153,12.208,6.821,16.875l40.933,40.574c4.668,4.668,9.693,6.821,16.875,6.821h132.129c7.182,0,12.208-2.153,16.875-6.821l22.622-22.262c4.668-4.668,4.668-8.976,0-13.644l-7.54-7.899c-4.668-5.025-8.978-4.668-14.003.719l-22.262,23.339h-124.232l-38.419-38.061v-103.046l38.061-37.702Z" fill="#fff"/>
      <path d="M916.494,7.18c-5.027-5.027-10.052-7.18-17.235-7.18h-136.44c-7.18,0-12.208,2.153-16.875,6.821l-41.291,41.65c-4.668,4.668-6.821,9.695-6.821,16.875v101.612c0,7.18,2.153,12.208,6.821,16.875l41.65,41.291c4.668,4.668,9.695,6.821,16.875,6.821h136.08c7.182,0,12.208-2.153,16.875-6.821l41.65-40.933c4.668-4.666,6.823-9.693,6.823-16.875v-101.97c0-7.18-2.155-12.208-7.182-17.235l-40.931-40.931ZM934.805,166.959l-38.419,38.419h-129.976l-38.778-39.138v-101.253l38.418-38.419h129.619l39.136,39.138v101.253Z" fill="#fff"/>
      <path d="M1202.235,7.899c-4.668-4.668-9.695-6.823-16.875-6.823h-156.187c-7.181,0-10.055,2.872-10.055,10.053v210.405c0,7.18,3.232,9.695,10.414,9.695h8.616c7.18,0,10.053-3.232,10.053-10.412v-70.016h127.823l30.879,30.519-.719,40.574c0,6.821,2.872,9.695,10.054,9.695h10.412c7.18,0,10.052-2.874,10.052-10.054v-40.214c0-7.18-2.153-12.208-6.821-16.875l-28.007-27.647,29.443-28.724c4.668-4.668,6.821-9.695,6.821-16.875v-36.982c0-7.18-2.153-12.208-6.821-16.875l-29.083-29.441ZM1207.979,92.994l-31.955,31.596h-127.823V27.647h133.567l26.211,26.211v39.136Z" fill="#fff"/>
      <path d="M1498.994,193.17l-7.54-7.182c-5.027-4.668-8.976-4.308-14.003.719l-17.593,17.952h-137.876v-75.042l136.08.359c6.821,0,9.693-2.872,9.693-10.055v-8.617c0-7.18-2.872-10.053-10.052-10.053h-135.721V27.288h136.439l17.952,18.671c5.027,5.385,9.335,5.385,14.361,0l6.463-6.463c5.027-5.027,5.027-9.695.359-14.363l-17.593-17.233c-4.668-4.668-9.695-6.823-16.875-6.823h-159.778c-7.18,0-10.055,2.872-10.055,10.053v209.688c0,7.18,2.874,10.053,10.055,10.053h160.855c7.18,0,12.208-2.155,16.875-6.823l17.235-16.875c5.385-5.025,5.385-9.334.717-14.001Z" fill="#fff"/>
      <path d="M374.885,26.08h-6.133c-5.111,0-7.155,2.299-6.9,7.409l.512,18.144-97.103,101.448c-3.578,3.833-5.112,7.409-5.112,12.52v17.889c0,5.111,2.045,7.154,7.155,7.154h6.133c5.111,0,6.9-2.299,6.9-7.409l-.257-18.399,96.848-101.193c3.578-3.833,5.111-7.409,5.111-12.52v-17.889c0-5.111-2.043-7.154-7.154-7.154Z" fill="#fff"/>
    </g>
  </g>
</svg>