<?xml version="1.0" encoding="UTF-8"?>
<svg id="Layer_2" data-name="Layer 2" xmlns="http://www.w3.org/2000/svg" viewBox="0 0 612.242 100.621">
  <g id="Bg">
    <path d="M376.643,50.31c0-12.184-4.413-23.902-12.441-33.08l9.396-9.396-4.789-4.789-9.396,9.396c-9.178-8.029-20.896-12.441-33.08-12.441s-23.901,4.413-33.08,12.441l-9.396-9.396-4.789,4.789,9.396,9.396c-8.029,9.178-12.441,20.896-12.441,33.08s4.413,23.901,12.441,33.08l-9.396,9.396,4.789,4.789,9.396-9.396c9.179,8.029,20.898,12.441,33.08,12.441s23.901-4.413,33.08-12.441l9.396,9.396,4.789-4.789-9.396-9.396c8.029-9.178,12.441-20.896,12.441-33.08ZM369.871,50.31c0,24.007-19.531,43.537-43.537,43.537s-43.537-19.531-43.537-43.537,19.531-43.537,43.537-43.537,43.537,19.531,43.537,43.537Z" fill="#282828"/>
    <path d="M0,10.832c0-2.82,1.129-3.948,3.948-3.948h64.579c2.821,0,4.795.846,6.768,2.82l9.448,9.448c1.551,1.692,2.679,4.089,2.679,6.345v9.87c0,2.82-.846,4.794-2.679,6.627l-10.012,9.87,10.857,10.576c1.833,1.833,2.679,3.807,2.679,6.627v9.165c0,2.257-1.128,4.794-2.679,6.346l-9.729,9.729c-1.974,1.974-3.948,2.82-6.768,2.82H3.948c-2.82,0-3.948-1.128-3.948-3.948V10.832ZM11.704,46.929h53.158l11.139-11.28-.282-9.165-9.165-9.447H11.704v29.892ZM67.259,86.974l9.588-9.729.282-8.178-12.267-11.985H11.704v29.892h55.555Z" fill="#282828"/>
    <path d="M255.923,18.023c1.833,1.833,1.974,3.526,0,5.359l-3.243,3.101c-1.833,1.833-3.525,1.833-5.499-.282l-8.883-9.307h-48.646l-14.947,14.806v40.467l15.087,14.947h48.787l8.743-9.165c1.974-2.115,3.666-2.256,5.499-.282l2.961,3.102c1.833,1.833,1.833,3.525,0,5.358l-8.884,8.743c-1.833,1.833-3.807,2.679-6.627,2.679h-51.888c-2.821,0-4.794-.846-6.627-2.679l-16.075-15.934c-1.833-1.833-2.679-3.807-2.679-6.627V31.842c0-2.821.846-4.795,2.82-6.768l15.793-15.793c1.974-1.974,3.948-2.82,6.768-2.82h51.888c2.821,0,4.794.846,6.627,2.679l9.024,8.883Z" fill="#282828"/>
    <path d="M411.639,93.179c0,2.82-1.128,4.089-3.948,4.089h-3.384c-2.821,0-4.09-.987-4.09-3.807V10.832c0-2.82,1.129-3.948,3.948-3.948h61.336c2.82,0,4.794.846,6.627,2.679l11.421,11.562c1.833,1.833,2.679,3.807,2.679,6.627v14.523c0,2.82-.846,4.794-2.679,6.627l-11.562,11.28,10.998,10.857c1.833,1.833,2.679,3.807,2.679,6.627v15.793c0,2.82-1.128,3.948-3.948,3.948h-4.089c-2.821,0-3.948-1.129-3.948-3.807l.282-15.934-12.126-11.985h-50.197v27.496ZM411.639,55.389h50.197l12.549-12.408v-15.369l-10.293-10.293h-52.453v38.07Z" fill="#282828"/>
    <path d="M507.874,10.832c0-2.82,1.129-3.948,3.948-3.948h62.746c2.82,0,4.794.846,6.627,2.679l6.909,6.768c1.833,1.833,1.833,3.666-.141,5.64l-2.538,2.538c-1.974,2.115-3.665,2.115-5.64,0l-7.05-7.332h-53.581v29.047h53.299c2.82,0,3.948,1.128,3.948,3.948v3.384c0,2.821-1.128,3.948-3.807,3.948l-53.44-.141v29.47h54.145l6.909-7.05c1.974-1.974,3.525-2.115,5.499-.282l2.961,2.821c1.833,1.833,1.833,3.525-.282,5.498l-6.768,6.627c-1.833,1.833-3.807,2.679-6.627,2.679h-63.169c-2.82,0-3.948-1.128-3.948-3.948V10.832Z" fill="#282828"/>
    <path d="M142.103,19.613c-.1-2.007.703-2.91,2.71-2.91h2.409c2.007,0,2.809.802,2.809,2.809v7.025c0,2.007-.602,3.411-2.007,4.917l-38.033,39.739.101,7.226c0,2.007-.703,2.91-2.71,2.91h-2.409c-2.007,0-2.81-.802-2.81-2.809v-7.025c0-2.007.603-3.411,2.008-4.917l38.133-39.84-.201-7.125Z" fill="#282828"/>
    <path d="M612.242,15.57c0,4.963-3.479,8.581-8.28,8.581s-8.279-3.618-8.279-8.558c0-5.056,3.479-8.605,8.396-8.605,4.685,0,8.164,3.664,8.164,8.581ZM597.096,15.593c0,4.244,2.876,7.329,6.865,7.329s6.865-3.085,6.865-7.352c0-4.221-2.876-7.352-6.772-7.352-4.105,0-6.958,3.039-6.958,7.375ZM602.732,19.558h-1.322v-7.978h2.969c1.856,0,2.667.696,2.667,2.296,0,1.276-.51,2.018-1.554,2.227l1.67,3.455h-1.438l-1.507-3.363h-1.484v3.363ZM604.379,15.268c.882,0,1.368-.487,1.368-1.368,0-.904-.51-1.368-1.461-1.368h-1.6v2.737h1.693Z" fill="#282828"/>
  </g>
</svg>